<svg xmlns="http://www.w3.org/2000/svg" xmlns:xlink="http://www.w3.org/1999/xlink" width="145.01" height="104.88" viewBox="0 0 145.01 104.88">
  <defs>
    <linearGradient id="linear-gradient" x1="0.5" x2="0.5" y2="1" gradientUnits="objectBoundingBox">
      <stop offset="0.23" stop-color="#fadb5d"/>
      <stop offset="0.97" stop-color="#f08e28"/>
    </linearGradient>
  </defs>
  <g id="winner_1_" data-name="winner (1)" transform="translate(0.505 -70.871)">
    <g id="Group_464" data-name="Group 464" transform="translate(0 81.063)">
      <path id="Path_2862" data-name="Path 2862" d="M36.023,116.011a92.539,92.539,0,0,1,10.943-10.2.616.616,0,0,1,.976.642c-2.21,8.124-6.072,16.152-12.025,22.121A81.643,81.643,0,0,1,36.023,116.011Z" transform="translate(-25.678 -105.677)" stroke="#000" stroke-width="1" fill="url(#linear-gradient)"/>
      <path id="Path_2863" data-name="Path 2863" d="M10.239,152.919a92.482,92.482,0,0,1-9.052-13.066.613.613,0,0,0-1.145.269c-.48,9.484,3.144,20.581,11.972,25.057A82.011,82.011,0,0,1,10.239,152.919Z" transform="translate(0 -130.019)" stroke="#000" stroke-width="1" fill="url(#linear-gradient)"/>
      <path id="Path_2864" data-name="Path 2864" d="M42.714,197.8A88.932,88.932,0,0,1,50.136,185.2a.615.615,0,0,1,1.116.325c.346,8.193-1.06,16.853-4.985,24.044A82.574,82.574,0,0,1,42.714,197.8Z" transform="translate(-30.701 -162.646)" stroke="#000" stroke-width="1" fill="url(#linear-gradient)"/>
      <path id="Path_2865" data-name="Path 2865" d="M20.907,247.76a95.941,95.941,0,0,1-12.451-9.528.613.613,0,0,0-1.006.606c2.356,9.059,9.094,18.355,18.686,20A83.01,83.01,0,0,1,20.907,247.76Z" transform="translate(-5.339 -200.836)" stroke="#000" stroke-width="1" fill="url(#linear-gradient)"/>
      <path id="Path_2866" data-name="Path 2866" d="M73.937,274.737a87.521,87.521,0,0,1,3.457-14.118.615.615,0,0,1,1.161-.013c2.722,7.686,3.825,16.357,2.183,24.326A82.941,82.941,0,0,1,73.937,274.737Z" transform="translate(-53.142 -216.741)" stroke="#000" stroke-width="1" fill="url(#linear-gradient)"/>
      <path id="Path_2867" data-name="Path 2867" d="M58.433,334.053A97.867,97.867,0,0,1,43.779,328.6a.613.613,0,0,0-.784.873c4.894,7.982,14.057,14.892,23.709,13.7A82.455,82.455,0,0,1,58.433,334.053Z" transform="translate(-30.835 -265.86)" stroke="#000" stroke-width="1" fill="url(#linear-gradient)"/>
      <path id="Path_2868" data-name="Path 2868" d="M125.259,341.8a85.7,85.7,0,0,1-.853-14.568.615.615,0,0,1,1.107-.352c4.875,6.609,8.511,14.637,9.381,22.776A81.942,81.942,0,0,1,125.259,341.8Z" transform="translate(-89.393 -264.492)" stroke="#000" stroke-width="1" fill="url(#linear-gradient)"/>
      <path id="Path_2869" data-name="Path 2869" d="M444.7,116.011a92.541,92.541,0,0,0-10.943-10.2.616.616,0,0,0-.976.642c2.21,8.124,6.072,16.152,12.025,22.121A81.638,81.638,0,0,0,444.7,116.011Z" transform="translate(-311.045 -105.677)" stroke="#000" stroke-width="1" fill="url(#linear-gradient)"/>
      <path id="Path_2870" data-name="Path 2870" d="M471.059,152.919a92.484,92.484,0,0,0,9.052-13.066.613.613,0,0,1,1.145.269c.48,9.484-3.144,20.581-11.972,25.057A82.014,82.014,0,0,0,471.059,152.919Z" transform="translate(-337.298 -130.019)" stroke="#000" stroke-width="1" fill="url(#linear-gradient)"/>
      <path id="Path_2871" data-name="Path 2871" d="M447.336,197.8a88.93,88.93,0,0,0-7.422-12.605.615.615,0,0,0-1.116.325c-.346,8.193,1.06,16.853,4.985,24.044A82.578,82.578,0,0,0,447.336,197.8Z" transform="translate(-315.349 -162.646)" stroke="#000" stroke-width="1" fill="url(#linear-gradient)"/>
      <path id="Path_2872" data-name="Path 2872" d="M443.286,247.76a95.943,95.943,0,0,0,12.451-9.528.613.613,0,0,1,1.006.606c-2.356,9.059-9.094,18.355-18.686,20A83.01,83.01,0,0,0,443.286,247.76Z" transform="translate(-314.853 -200.836)" stroke="#000" stroke-width="1" fill="url(#linear-gradient)"/>
      <path id="Path_2873" data-name="Path 2873" d="M418.714,274.737a87.521,87.521,0,0,0-3.457-14.118.615.615,0,0,0-1.161-.013c-2.722,7.686-3.825,16.357-2.183,24.326A82.941,82.941,0,0,0,418.714,274.737Z" transform="translate(-295.509 -216.741)" stroke="#000" stroke-width="1" fill="url(#linear-gradient)"/>
      <path id="Path_2874" data-name="Path 2874" d="M392.741,334.053A97.867,97.867,0,0,0,407.4,328.6a.613.613,0,0,1,.784.873c-4.894,7.982-14.057,14.892-23.709,13.7A82.453,82.453,0,0,0,392.741,334.053Z" transform="translate(-276.339 -265.86)" stroke="#000" stroke-width="1" fill="url(#linear-gradient)"/>
      <path id="Path_2875" data-name="Path 2875" d="M359.854,341.8a85.7,85.7,0,0,0,.853-14.568.615.615,0,0,0-1.107-.352c-4.875,6.609-8.511,14.637-9.381,22.776A81.941,81.941,0,0,0,359.854,341.8Z" transform="translate(-251.719 -264.492)" stroke="#000" stroke-width="1" fill="url(#linear-gradient)"/>
    </g>
    <g id="Group_465" data-name="Group 465" transform="translate(8.034 71.431)">
      <path id="Path_2876" data-name="Path 2876" d="M77.935,170.7a79.768,79.768,0,0,1-10.583-6.21h0a79.9,79.9,0,0,1-9.354-7.624l0,0A80.385,80.385,0,0,1,49.961,148l0,0h0a80.928,80.928,0,0,1-6.606-9.9l0,0a81.033,81.033,0,0,1-5.076-10.75l0,0h0a80.7,80.7,0,0,1-3.452-11.424h0a80,80,0,0,1-1.724-11.9s0,0,0-.005a79.585,79.585,0,0,1,.1-12.2c0-.046,0-.091.005-.137a84.9,84.9,0,0,1,3.228-17.454,2.173,2.173,0,1,0-4.169-1.23,89.239,89.239,0,0,0-3.41,18.54c0,.042,0,.084,0,.126a84.223,84.223,0,0,0-.092,12.629v0a84.3,84.3,0,0,0,1.813,12.54s0,.007,0,.01a84.968,84.968,0,0,0,3.637,12.044h0v0a85.377,85.377,0,0,0,5.349,11.333v0l0,0h0a85.365,85.365,0,0,0,6.958,10.433l0,0a84.762,84.762,0,0,0,8.459,9.332l0,0a84.221,84.221,0,0,0,9.867,8.046h0a84.07,84.07,0,0,0,11.161,6.554,2.173,2.173,0,1,0,1.922-3.9Z" transform="translate(-28.564 -71.431)" stroke="#000" stroke-width="1" fill="url(#linear-gradient)"/>
      <path id="Path_2877" data-name="Path 2877" d="M353.884,91.66c0-.042,0-.083,0-.125a89.217,89.217,0,0,0-3.41-18.541,2.173,2.173,0,0,0-4.169,1.231,84.9,84.9,0,0,1,3.228,17.452c0,.046,0,.092.006.138a79.59,79.59,0,0,1,.1,12.2v0a80.024,80.024,0,0,1-1.725,11.9h0a80.583,80.583,0,0,1-3.452,11.424h0v0A81.02,81.02,0,0,1,339.38,138.1h0a80.969,80.969,0,0,1-6.607,9.9l0,0h0a80.483,80.483,0,0,1-8.032,8.856l0,0a79.886,79.886,0,0,1-9.354,7.624l0,0h0A79.669,79.669,0,0,1,304.8,170.7a2.173,2.173,0,1,0,1.922,3.9,84.056,84.056,0,0,0,11.16-6.553l0,0A84.272,84.272,0,0,0,327.749,160l0,0a84.8,84.8,0,0,0,8.461-9.334h0a85.387,85.387,0,0,0,6.961-10.437l0-.007a85.331,85.331,0,0,0,5.345-11.327h0a84.973,84.973,0,0,0,3.635-12.038v0a84.381,84.381,0,0,0,1.816-12.555s0-.006,0-.009A84.169,84.169,0,0,0,353.884,91.66Z" transform="translate(-226.235 -71.435)" stroke="#000" stroke-width="1" fill="url(#linear-gradient)"/>
    </g>
    <g id="Group_466" data-name="Group 466" transform="translate(32.987 97.307)">
      <path id="Path_2878" data-name="Path 2878" d="M143.952,200.722a26.737,26.737,0,0,1-26.664-26.764V166.61a3.174,3.174,0,0,1,3.174-3.175h.008l19.24.042a2.173,2.173,0,0,1,0,4.346H139.7l-18.066-.04v6.174a22.371,22.371,0,0,0,25.876,22.131q.335-.054.675-.114a2.173,2.173,0,0,1,.75,4.281q-.367.064-.729.123A26.552,26.552,0,0,1,143.952,200.722Z" transform="translate(-117.288 -163.435)" stroke="#000" stroke-width="1" fill="url(#linear-gradient)"/>
      <path id="Path_2879" data-name="Path 2879" d="M282.575,200.723a26.593,26.593,0,0,1-4.255-.343q-.361-.059-.729-.123a2.173,2.173,0,1,1,.75-4.281q.34.06.675.114a22.371,22.371,0,0,0,25.876-22.131v-6.174l-18.066.04h-.005a2.173,2.173,0,0,1,0-4.346l19.241-.042h.008a3.174,3.174,0,0,1,3.173,3.175v7.349a26.736,26.736,0,0,1-26.664,26.764Z" transform="translate(-231.213 -163.436)" stroke="#000" stroke-width="1" fill="url(#linear-gradient)"/>
    </g>
    <path id="Path_2880" data-name="Path 2880" d="M205.195,314.343h28.578c-11.838-15.011-10.6-36.646-10.6-36.646H215.8S217.033,299.332,205.195,314.343Z" transform="translate(-147.484 -148.253)" stroke="#000" stroke-width="1" fill="url(#linear-gradient)"/>
    <path id="Path_2882" data-name="Path 2882" d="M179.353,141.293v18.959a35.3,35.3,0,0,0,14.362,28.419h0a12.131,12.131,0,0,0,14.39,0h0a35.3,35.3,0,0,0,14.362-28.419V141.293Z" transform="translate(-128.91 -50.213)" stroke="#000" stroke-width="1" fill="url(#linear-gradient)"/>
    <path id="Path_2884" data-name="Path 2884" d="M216.842,132.026h-46.2a1.261,1.261,0,0,1-1.261-1.261V125.54a1.261,1.261,0,0,1,1.261-1.261h46.2a1.261,1.261,0,0,1,1.261,1.261v5.225A1.261,1.261,0,0,1,216.842,132.026Z" transform="translate(-121.741 -37.984)" stroke="#000" stroke-width="1" fill="url(#linear-gradient)"/>
    <path id="Path_2886" data-name="Path 2886" d="M215.759,410.258H166.923a1.017,1.017,0,0,1-.954-1.369l3.627-9.827a1.017,1.017,0,0,1,.954-.665h41.583a1.017,1.017,0,0,1,.954.665l3.627,9.827A1.017,1.017,0,0,1,215.759,410.258Z" transform="translate(-119.244 -235.006)" stroke="#000" stroke-width="1" fill="url(#linear-gradient)"/>
  </g>
</svg>
