<svg xmlns="http://www.w3.org/2000/svg" xmlns:xlink="http://www.w3.org/1999/xlink" width="114.395" height="114.395" viewBox="0 0 114.395 114.395">
  <defs>
    <linearGradient id="linear-gradient" x1="0.5" x2="0.5" y2="1" gradientUnits="objectBoundingBox">
      <stop offset="0.166" stop-color="#ff7878"/>
      <stop offset="0.78" stop-color="#eb5959"/>
    </linearGradient>
    <linearGradient id="linear-gradient-2" x1="0.5" x2="0.417" y2="1.813" gradientUnits="objectBoundingBox">
      <stop offset="0" stop-color="#ffbd8a"/>
      <stop offset="0.092" stop-color="#ffbd8a"/>
      <stop offset="0.844" stop-color="#f09a59"/>
      <stop offset="1" stop-color="#f09a59"/>
    </linearGradient>
    <linearGradient id="linear-gradient-3" x1="0.5" x2="0.5" y2="1" gradientUnits="objectBoundingBox">
      <stop offset="0" stop-color="#3e569c"/>
      <stop offset="1" stop-color="#3fb1e5"/>
    </linearGradient>
    <linearGradient id="linear-gradient-11" x1="0.5" x2="0.5" y2="1" gradientUnits="objectBoundingBox">
      <stop offset="0.23" stop-color="#fadb5d"/>
      <stop offset="0.97" stop-color="#f08e28"/>
    </linearGradient>
    <linearGradient id="linear-gradient-12" x1="0.5" x2="0.5" y2="1" gradientUnits="objectBoundingBox">
      <stop offset="0.106" stop-color="#00bacf"/>
      <stop offset="0.809" stop-color="#008db0"/>
    </linearGradient>
  </defs>
  <g id="collaboration" transform="translate(0.5 0.5)">
    <path id="Path_2959" data-name="Path 2959" d="M185.379,134.309V122.578a7.821,7.821,0,0,1,7.82-7.82h0a17.487,17.487,0,0,0,15.641,0h0a7.821,7.821,0,0,1,7.82,7.82v11.731a3.909,3.909,0,0,1-3.91,3.91H189.289A3.909,3.909,0,0,1,185.379,134.309Z" transform="translate(-144.322 -89.342)" stroke="#000" stroke-width="1" fill="url(#linear-gradient)"/>
    <circle id="Ellipse_27" data-name="Ellipse 27" cx="9.775" cy="9.775" r="9.775" transform="translate(46.922 0)" stroke="#000" stroke-width="1" fill="url(#linear-gradient-2)"/>
    <g id="Group_477" data-name="Group 477" transform="translate(9.775 9.813)">
      <path id="Path_2960" data-name="Path 2960" d="M46.093,105.57a1.956,1.956,0,0,1-1.955-1.955A46.876,46.876,0,0,1,72.7,60.422a1.955,1.955,0,1,1,1.533,3.6h0a42.972,42.972,0,0,0-26.182,39.6A1.956,1.956,0,0,1,46.093,105.57Z" transform="translate(-44.138 -56.731)" stroke="#000" stroke-width="1" fill="url(#linear-gradient-3)"/>
      <path id="Path_2961" data-name="Path 2961" d="M355.946,105.57a1.956,1.956,0,0,1-1.955-1.955,42.972,42.972,0,0,0-26.182-39.6,1.955,1.955,0,1,1,1.533-3.6,46.876,46.876,0,0,1,28.56,43.194A1.956,1.956,0,0,1,355.946,105.57Z" transform="translate(-264.057 -56.731)" stroke="#000" stroke-width="1" fill="url(#linear-gradient-3)"/>
      <path id="Path_2962" data-name="Path 2962" d="M187.274,441.56a46.67,46.67,0,0,1-18.362-3.728,1.955,1.955,0,1,1,1.533-3.6,43.364,43.364,0,0,0,33.659,0,1.955,1.955,0,0,1,1.533,3.6A46.67,46.67,0,0,1,187.274,441.56Z" transform="translate(-140.352 -347.754)" stroke="#000" stroke-width="1" fill="url(#linear-gradient-3)"/>
      <path id="Path_2963" data-name="Path 2963" d="M173.576,437.407a1.953,1.953,0,0,1-1.736-1.05l-3.91-7.482a1.954,1.954,0,0,1,.827-2.637,2.1,2.1,0,0,1,.358-.145l7.82-2.293a1.956,1.956,0,1,1,1.1,3.754l-5.535,1.623,2.809,5.371a1.955,1.955,0,0,1-1.732,2.86Z" transform="translate(-140.34 -339.691)" stroke="#000" stroke-width="1" fill="url(#linear-gradient-3)"/>
      <path id="Path_2964" data-name="Path 2964" d="M431.627,230.549a1.95,1.95,0,0,1-1.382-.573l-5.865-5.865a1.955,1.955,0,0,1,2.765-2.764l4.483,4.483,4.483-4.483a1.955,1.955,0,0,1,2.764,2.765l-5.865,5.865A1.951,1.951,0,0,1,431.627,230.549Z" transform="translate(-339.738 -181.709)" stroke="#000" stroke-width="1" fill="url(#linear-gradient-3)"/>
      <path id="Path_2965" data-name="Path 2965" d="M138.527,59.91a1.918,1.918,0,0,1-.845-.2,1.955,1.955,0,0,1-.915-2.608l3.048-6.362-6.008-2.737a1.955,1.955,0,0,1,1.623-3.554l7.82,3.572a1.955,1.955,0,0,1,.958,2.594l-.012.023-3.91,8.159A1.957,1.957,0,0,1,138.527,59.91Z" transform="translate(-113.111 -44.307)" stroke="#000" stroke-width="1" fill="url(#linear-gradient-3)"/>
    </g>
    <circle id="Ellipse_28" data-name="Ellipse 28" cx="9.775" cy="9.775" r="9.775" transform="translate(87.978 64.518)" stroke="#000" stroke-width="1" fill="url(#linear-gradient-2)"/>
    <circle id="Ellipse_29" data-name="Ellipse 29" cx="9.775" cy="9.775" r="9.775" transform="translate(5.865 64.518)" stroke="#000" stroke-width="1" fill="url(#linear-gradient-2)"/>
    <path id="Path_2970" data-name="Path 2970" d="M0,425.62V413.889a7.821,7.821,0,0,1,7.82-7.82h0a17.487,17.487,0,0,0,15.641,0h0a7.821,7.821,0,0,1,7.82,7.82V425.62a3.909,3.909,0,0,1-3.91,3.91H3.91A3.909,3.909,0,0,1,0,425.62Z" transform="translate(0 -316.135)" stroke="#000" stroke-width="1" fill="url(#linear-gradient-11)"/>
    <path id="Path_2972" data-name="Path 2972" d="M370.759,425.62V413.889a7.821,7.821,0,0,1,7.82-7.82h0a17.487,17.487,0,0,0,15.641,0h0a7.821,7.821,0,0,1,7.82,7.82V425.62a3.909,3.909,0,0,1-3.91,3.91H374.669A3.909,3.909,0,0,1,370.759,425.62Z" transform="translate(-288.646 -316.135)" stroke="#000" stroke-width="1" fill="url(#linear-gradient-12)"/>
  </g>
</svg>
