<svg xmlns="http://www.w3.org/2000/svg" xmlns:xlink="http://www.w3.org/1999/xlink" width="122.83" height="120.832" viewBox="0 0 122.83 120.832">
  <defs>
    <linearGradient id="linear-gradient" x1="0.5" x2="0.5" y2="1" gradientUnits="objectBoundingBox">
      <stop offset="0" stop-color="#f2f2f2"/>
      <stop offset="1" stop-color="#797979"/>
    </linearGradient>
    <linearGradient id="linear-gradient-4" x1="0.5" x2="0.5" y2="1" gradientUnits="objectBoundingBox">
      <stop offset="0.166" stop-color="#ff7878"/>
      <stop offset="0.78" stop-color="#eb5959"/>
    </linearGradient>
    <linearGradient id="linear-gradient-7" x1="0.5" x2="0.5" y2="1" gradientUnits="objectBoundingBox">
      <stop offset="0" stop-color="#42444a"/>
      <stop offset="1" stop-color="#0d0e0f"/>
    </linearGradient>
    <linearGradient id="linear-gradient-9" x1="0.5" x2="0.5" y2="1" gradientUnits="objectBoundingBox">
      <stop offset="0.23" stop-color="#fadb5d"/>
      <stop offset="0.97" stop-color="#f08e28"/>
    </linearGradient>
    <linearGradient id="linear-gradient-10" x1="0.5" x2="0.5" y2="1" gradientUnits="objectBoundingBox">
      <stop offset="0.106" stop-color="#00bacf"/>
      <stop offset="0.809" stop-color="#008db0"/>
    </linearGradient>
    <linearGradient id="linear-gradient-12" x1="0.5" x2="0.5" y2="1" gradientUnits="objectBoundingBox">
      <stop offset="0" stop-color="#64ffbd"/>
      <stop offset="1" stop-color="#08b96e"/>
    </linearGradient>
    <linearGradient id="linear-gradient-13" x1="0.5" x2="0.5" y2="1" gradientUnits="objectBoundingBox">
      <stop offset="0" stop-color="#3e569c"/>
      <stop offset="1" stop-color="#3fb1e5"/>
    </linearGradient>
  </defs>
  <g id="Group_4101" data-name="Group 4101" transform="translate(-5706.5 9650.332)">
    <g id="Group_4100" data-name="Group 4100" transform="translate(-42 -2816.906)">
      <g id="Group_4097" data-name="Group 4097" transform="translate(5749 -6832.925)">
        <path id="Path_5047" data-name="Path 5047" d="M321.964,364.774v15.978H296v-9.327a5.243,5.243,0,0,0,1.6-2.576l2.138-7.809a26.742,26.742,0,0,1,5.113,1.179l3.375,1.118a27.736,27.736,0,0,0,8.847,1.438,25.782,25.782,0,0,0,4.814-.44Zm0,0" transform="translate(-224.101 -272.903)" stroke="#000" stroke-width="1" fill="url(#linear-gradient)"/>
        <path id="Path_5048" data-name="Path 5048" d="M328.871,289.178a4,4,0,0,1-2.836,6.811H322L324.158,288h1.877a3.989,3.989,0,0,1,2.836,1.178Zm0,0" transform="translate(-243.61 -218.098)" stroke="#000" stroke-width="1" fill="url(#linear-gradient)"/>
        <path id="Path_5049" data-name="Path 5049" d="M240.6,288.12l-2.117,7.869h-6.331a8.041,8.041,0,0,0-5.652,2.337l-.339-.339,7.649-7.649A8,8,0,0,1,239.462,288h.679Zm0,0" transform="translate(-171.696 -218.098)" fill="#e6e9ed" stroke="#000" stroke-width="1"/>
        <path id="Path_5051" data-name="Path 5051" d="M157.936,65.919V19.983H112V8h71.9V73.908l-.139.2-7.291-4.854a7.925,7.925,0,0,0-4.433-1.338H169.28l3.854-14.24,2.138-7.949,3-11.085a5.433,5.433,0,0,0,.179-1.378,5.285,5.285,0,0,0-5.273-5.292h-.659a5.274,5.274,0,0,0-5.092,3.914l-2.776,10.306-2.157,7.928L158.2,66Zm0,0" transform="translate(-86.036 -8)" stroke="#000" stroke-width="1" fill="url(#linear-gradient)"/>
        <path id="Path_5052" data-name="Path 5052" d="M79.9,101.936l.259.08-.6,2.217-1.119-.3H73.768a8,8,0,0,0-5.652,2.337l-14.38,14.4a4.219,4.219,0,0,0-.02,5.992,4.308,4.308,0,0,0,3.015,1.239,4.233,4.233,0,0,0,3-1.239l2.736-2.756.339.339a8.041,8.041,0,0,0-2.337,5.652,2,2,0,0,0,2,2H72.09l-1.437,5.313a5.465,5.465,0,0,0-.2,1.378,5.3,5.3,0,0,0,5.292,5.292H76.4a5.253,5.253,0,0,0,3.5-1.338v21.31H8V56H79.9Zm0,0" transform="translate(-8 -44.017)" fill="#e6e9ed" stroke="#000" stroke-width="1"/>
        <path id="Path_5056" data-name="Path 5056" d="M336.68,93.292a5.434,5.434,0,0,1-.179,1.378l-3,11.085-10.626-3.535,2.776-10.306A5.274,5.274,0,0,1,330.748,88h.659a5.285,5.285,0,0,1,5.273,5.292Zm0,0" transform="translate(-244.269 -68.028)" stroke="#000" stroke-width="1" fill="url(#linear-gradient-4)"/>
        <path id="Path_5057" data-name="Path 5057" d="M327.021,148.5l-2.138,7.949-10.645-3.556,2.157-7.928Zm0,0" transform="translate(-237.785 -110.769)" fill="#e6e9ed" stroke="#000" stroke-width="1"/>
        <path id="Union_119" data-name="Union 119" d="M.916,13.221l.882-2.56A5.282,5.282,0,0,1,0,6.691,5.463,5.463,0,0,1,.2,5.313L1.637,0H9.447a25.965,25.965,0,0,1,3.735.259L11.044,8.069a5.306,5.306,0,0,1-5.092,3.914H5.567l-.874,2.538Z" transform="translate(62.453 87.877)" stroke="#000" stroke-width="1" fill="url(#linear-gradient-4)"/>
        <path id="Path_5059" data-name="Path 5059" d="M291.977,194.514l-4.854,17.975h-11.6l2.117-7.869,2.656-9.807.6-2.217,4.294-15.878,10.645,3.556Zm0,0" transform="translate(-208.733 -134.598)" stroke="#000" stroke-width="1" fill="url(#linear-gradient-4)"/>
        <path id="Path_5154" data-name="Path 5154" d="M6003.092-6632.951l.478,4.44,3.211-3.211" transform="translate(-5939.658 6734.072)" stroke="#000" stroke-width="1" fill="url(#linear-gradient-7)"/>
      </g>
    </g>
    <path id="Path_5156" data-name="Path 5156" d="M168,216h25.964v3.994H168Zm0,0" transform="translate(5545.944 -9843.904)" stroke="#000" stroke-width="1" fill="url(#linear-gradient-4)"/>
    <path id="Path_5157" data-name="Path 5157" d="M-9.352-4.28l.185-.149a.221.221,0,0,0,.228-.22A.473.473,0,0,1-8.65-5l.105-.149a2.366,2.366,0,0,1,.72-.343.706.706,0,0,0,.2-.158.051.051,0,0,1,.035-.018l.141.035A.957.957,0,0,0-7.152-5.7a1.072,1.072,0,0,1,.347-.062l.369-.018a.458.458,0,0,1,.145.053.615.615,0,0,0,.268.053.48.48,0,0,1,.356.176.5.5,0,0,1,.163.325.8.8,0,0,1-.281.554,1.079,1.079,0,0,1-.447.316,1.058,1.058,0,0,1-.228.189.642.642,0,0,0-.162.123A.228.228,0,0,1-6.76-3.9a.063.063,0,0,1-.053-.022.063.063,0,0,0-.053-.022q-.14,0-.307.343l-.158-.018a.463.463,0,0,0-.193.211.177.177,0,0,1-.184.114q-.325.325-.439.325a.732.732,0,0,1-.123-.035.292.292,0,0,0-.07.185q0,.105-.14.123l-.114.105-.088-.018-.176.185a.513.513,0,0,0-.272.088q-.018.105-.053.268t-.035.18q0,.255.466.255l.422-.062a.591.591,0,0,0,.312-.088A.592.592,0,0,1-7.7-1.872a.558.558,0,0,0,.158-.035l.088.035a.584.584,0,0,1,.229-.237.552.552,0,0,1,.264-.105l.088-.053a.226.226,0,0,1,.105-.141l.07-.062a.2.2,0,0,1,.132-.07h.123l.035-.018a.427.427,0,0,1,.295-.268.335.335,0,0,0,.237-.127.216.216,0,0,1,.171-.105A.319.319,0,0,0-5.5-3.177,1.078,1.078,0,0,1-5.3-3.366,2.092,2.092,0,0,0-5.124-3.5a.136.136,0,0,1,.083-.044q.053,0,.053.079t.035.079a.031.031,0,0,0,.035-.035.289.289,0,0,0-.018-.088v-.062a.174.174,0,0,1,.141-.176L-4.4-4q.018-.185.1-.215a.394.394,0,0,0,.127-.07.141.141,0,0,1,.1-.04q.114,0,.114.132L-4-3.964l.044.237a.26.26,0,0,1-.084.145.629.629,0,0,0-.128.281q-.044.189-.114.207h-.053a.745.745,0,0,1-.251.2.274.274,0,0,0-.145.11l-.3.343q-.088.088-.15.158t-.1.07l-.07-.07q0-.018-.035-.018-.088,0-.11.105a.393.393,0,0,1-.092.185.943.943,0,0,0-.343.229l-.053.018h-.158q-.114,0-.158.171a.264.264,0,0,1-.251.2.546.546,0,0,0-.295.105.2.2,0,0,1-.079.035,1.217,1.217,0,0,0-.246.141l-.739.264a.364.364,0,0,1-.114.044l-.246.035a.142.142,0,0,1-.106-.07q-.053-.07-.07-.07L-8.6-.861a1.165,1.165,0,0,1-.334.053A.391.391,0,0,1-9.132-.87,1.643,1.643,0,0,0-9.3-.958q-.255,0-.361-.4l-.106.018A2.619,2.619,0,0,1-10-1.96a.3.3,0,0,0-.167-.1.155.155,0,0,1-.114-.171.656.656,0,0,1,.171-.532q.171-.136.189-.207l.123-.457A.453.453,0,0,0-9.712-3.6l.2-.369Q-9.475-4.034-9.352-4.28Zm1.859-.527-.105.053a2.112,2.112,0,0,0-.207.154,2.038,2.038,0,0,1-.334.22.946.946,0,0,0-.334.435,1.994,1.994,0,0,0-.171.4.047.047,0,0,0,.053.053l.3-.132a1.421,1.421,0,0,0,.312-.2,4.143,4.143,0,0,1,.417-.3l.07-.07a.571.571,0,0,1,.163-.127.88.88,0,0,0,.215-.18l.088-.035a.649.649,0,0,1,.3-.29q.154-.053.154-.105,0-.105-.167-.105a.468.468,0,0,0-.211.088h-.2a.633.633,0,0,0-.193.105Zm10.5,2.382h.035l.088.035a.051.051,0,0,0,.035-.018.311.311,0,0,1,.141-.255.4.4,0,0,1,.2-.255q.154-.088.489-.29l.22-.193.106-.053.07-.088a.261.261,0,0,1,.185-.114q.132,0,.132.1l-.079.176.035.29a.41.41,0,0,1-.11.281q-.11.123-.339.36l-.449.475-.238.123a.815.815,0,0,0-.158.123l-.343.29a.219.219,0,0,1-.079.185H2.806l-.07.035A.713.713,0,0,1,2.374-.9l-.123.088a.183.183,0,0,1-.114.053L1.89-.791l-.167.035a.409.409,0,0,1-.189-.07,1.187,1.187,0,0,0-.242-.11Q1.169-.976.98-1.261a1.533,1.533,0,0,1-.207-.374.335.335,0,0,0-.04-.119.405.405,0,0,1-.04-.1A1.066,1.066,0,0,1,.773-2.03v-.018a.411.411,0,0,0-.048-.123.526.526,0,0,1-.048-.237.542.542,0,0,0-.053-.2q.07-.07.07-.105a.3.3,0,0,0-.026-.1.3.3,0,0,1-.026-.1l.053-.431-.035-.22.017-.211q0-.185-.158-.185a.293.293,0,0,0-.175.1L.282-3.85a2.037,2.037,0,0,0-.333.189.324.324,0,0,1-.2.075.492.492,0,0,1-.2.1l-.07.053a1.044,1.044,0,0,1-.14.105,1.961,1.961,0,0,1-.328.294q-.328.268-.591.505a1.037,1.037,0,0,1-.381.259q-.118.022-.118.224,0,.035-.158.141a1.122,1.122,0,0,0-.184.193.759.759,0,0,0-.158-.105q-.115,0-.167.29-.053.114-.282.141a.368.368,0,0,0-.062.132l-.035.035h-.088a.476.476,0,0,0-.123.1.537.537,0,0,1-.185.127q-.115.237-.194.237a.243.243,0,0,1-.1-.035.792.792,0,0,0-.163-.062q-.1-.026-.215-.215a.639.639,0,0,1-.119-.321q0-.976.378-1.063l.018-.035v-.07a.167.167,0,0,1,.1-.163.592.592,0,0,0,.207-.193.686.686,0,0,1,.141-.163h.114q.035,0,.035-.185a.134.134,0,0,1,.044-.1.2.2,0,0,0,.053-.127A.787.787,0,0,1-3.1-3.757a.844.844,0,0,0,.119-.224L-3-4.017a.858.858,0,0,1-.316.22q-.1.018-.264.255l-.141-.026a3.389,3.389,0,0,1-.458.308.492.492,0,0,0-.194.2q0,.053-.062.07a.973.973,0,0,0-.229.141h-.053q-.22,0-.22-.316l.184-.5a.739.739,0,0,1,.373-.4,4.514,4.514,0,0,0,.5-.312.733.733,0,0,1,.4-.158l.061-.088a.672.672,0,0,0,.4-.36q.105-.246.29-.246a.851.851,0,0,1,.738.356,1.1,1.1,0,0,1,.255.567l.018.237a1.58,1.58,0,0,1-.053.343.508.508,0,0,0-.105.237q0,.07.088.07a.252.252,0,0,0,.14-.075,1.237,1.237,0,0,1,.2-.136.29.29,0,0,0,.127-.105.5.5,0,0,1,.307-.29.875.875,0,0,0,.272-.132l.088-.07.07-.132a.988.988,0,0,0,.316-.193.372.372,0,0,1,.211-.114.743.743,0,0,0,.3-.158L.378-4.86.5-4.931a.317.317,0,0,1,.105-.044Q.694-5,.865-5.067A.82.82,0,0,1,1.1-5.133a.825.825,0,0,1,.707.36,1.112,1.112,0,0,1,.259.58l-.018.158.035.237v.035l-.07.483.018.167a.748.748,0,0,1-.176.571q-.044.018-.044.088v.079L1.985-2q.079.193.123.193L2.39-1.89a.342.342,0,0,0,.2-.185,1.289,1.289,0,0,0,.247-.211Q2.892-2.426,3.006-2.426Zm3.059.809-.141.07a.258.258,0,0,0-.1-.018,3.141,3.141,0,0,0-.325.07.1.1,0,0,1-.07.018q-.053,0-.141-.136A.448.448,0,0,1,5.2-1.837a1.1,1.1,0,0,1,.167-.378l.3-.519A1.8,1.8,0,0,0,5.8-3.067a.68.68,0,0,1,.083-.207.652.652,0,0,0,.075-.154A1.321,1.321,0,0,1,6-3.555a.861.861,0,0,0,.044-.189,2.264,2.264,0,0,1,.088-.343V-4.1q0-.053-.035-.053h-.07Q6-4.192,5.978-4.192l-.544.624a4.036,4.036,0,0,1-.483.4.842.842,0,0,0-.272.277q-.088.154-.158.154-.254,0-.254-.413a.357.357,0,0,1,.061-.246,1.725,1.725,0,0,0,.193-.281q0-.018.123-.079a.541.541,0,0,0,.2-.163.285.285,0,0,1,.145-.119.134.134,0,0,0,.1-.079.32.32,0,0,1,.11-.123A.392.392,0,0,0,5.319-4.4a.353.353,0,0,1,.145-.163.482.482,0,0,0,.167-.176.537.537,0,0,1,.311-.193l.517-.483q.324-.4.5-.4h.1a.629.629,0,0,0,.132-.018.629.629,0,0,1,.132-.018.515.515,0,0,1,.391.246.807.807,0,0,1,.189.492.585.585,0,0,1-.185.457A3.5,3.5,0,0,0,7.3-3.6a.277.277,0,0,1-.114.2.312.312,0,0,0-.114.242.833.833,0,0,1-.132.211.557.557,0,0,1-.062.229.822.822,0,0,0-.062.149.031.031,0,0,0,.035.035.843.843,0,0,0,.321-.105.882.882,0,0,1,.375-.105.639.639,0,0,0,.3-.079L8.069-3a.461.461,0,0,1,.282-.079l.141.018a.33.33,0,0,0,.136-.075,1.9,1.9,0,0,1,.409-.189,1.714,1.714,0,0,1,.378-.114q.483,0,.483.413,0,.009-.053.2t-.1.22q-.044.026-.141.1l.053.167a.718.718,0,0,0-.193.431l-.123.325a.375.375,0,0,0-.035.193,4.613,4.613,0,0,0-.3.712q-.092.3-.365.932l-.018.07q0,.035-.057.07T8.51.466q0,.035.316.242a.6.6,0,0,1,.316.514.447.447,0,0,1-.207.382.784.784,0,0,1-.461.145.413.413,0,0,1-.223-.1.439.439,0,0,0-.258-.1q-.105,0-.188.2T7.6,1.96L7.117,2.8l-.079.079a2.129,2.129,0,0,0-.167.207,1.659,1.659,0,0,1-.26.277,1.14,1.14,0,0,0-.269.378,1.381,1.381,0,0,0-.414.36,2.231,2.231,0,0,1-.348.356.686.686,0,0,0-.2.215l-.158.2a1.215,1.215,0,0,1-.15.07l-.035.035a2,2,0,0,1-.361.237.475.475,0,0,1-.308.3.9.9,0,0,0-.383.25.623.623,0,0,1-.3.207,1.192,1.192,0,0,0-.29.114.544.544,0,0,1-.25.079q-.211,0-.4-.286a1.087,1.087,0,0,1-.189-.611l.088-.554A3.809,3.809,0,0,1,3.227,3.3l.5-.782a4.136,4.136,0,0,0,.625-.6.938.938,0,0,1,.172-.163q.119-.092.409-.338a.524.524,0,0,1,.339-.237,2.611,2.611,0,0,0,.4-.105l.106-.018q.035,0,.062-.053Q5.981.729,7.275.519A.372.372,0,0,0,7.591.286q.079-.2.189-.409a.787.787,0,0,0,.11-.325.663.663,0,0,0,.193-.36l.053-.149A.247.247,0,0,0,8.216-1.1L8.2-1.257a1.111,1.111,0,0,0,.176-.58v-.018a.594.594,0,0,0,.141-.378.062.062,0,0,0-.07-.07l-.123.088a.385.385,0,0,0-.105-.053.445.445,0,0,0-.264.1.437.437,0,0,1-.176.1l-.141-.018-.4.1-.123-.018a.335.335,0,0,0-.128.053.607.607,0,0,1-.181.07.433.433,0,0,0-.172.079.34.34,0,0,1-.207.062.606.606,0,0,0-.1.048.529.529,0,0,1-.176.062Q6.066-1.626,6.066-1.617Zm-.1,3.349-.2.123L5.6,1.837a1.912,1.912,0,0,0-.189.136.585.585,0,0,1-.189.119H5.054q-.273.343-.343.36a.462.462,0,0,0-.286.2Q4.333,2.8,4.3,2.8l-.123-.053a1.227,1.227,0,0,0-.105.308.485.485,0,0,1-.149.035,4.2,4.2,0,0,1-.413.633H3.419q-.026,0-.07.07a1.831,1.831,0,0,1-.2.861Q3.2,5,3.252,5a.355.355,0,0,1,.141-.062,1.517,1.517,0,0,0,.259-.088,2.186,2.186,0,0,1,.242-.088A.8.8,0,0,0,4.1,4.605a1.13,1.13,0,0,1,.334-.215.663.663,0,0,0,.29-.233l.185-.141q-.009-.132.379-.36l.194-.22.1-.176.106-.053.053-.149a.336.336,0,0,1,.092-.035q.066-.018.132-.154t.3-.5a1.784,1.784,0,0,0,.36-.554l.062-.053q.105-.1.105-.149a.047.047,0,0,0-.053-.053,3.639,3.639,0,0,0-.374.062A1.771,1.771,0,0,0,5.961,1.731Z" transform="translate(5727 -9543)" fill="#1a1a1a"/>
    <path id="Path_5158" data-name="Path 5158" d="M168,216h53.97v3.994H168Zm0,0" transform="translate(5545.944 -9825.904)" stroke="#000" stroke-width="1" fill="url(#linear-gradient-9)"/>
    <path id="Path_5159" data-name="Path 5159" d="M168,216h53.97v3.994H168Zm0,0" transform="translate(5545.944 -9814.904)" stroke="#000" stroke-width="1" fill="url(#linear-gradient-10)"/>
    <path id="Path_5160" data-name="Path 5160" d="M168,216h53.97v3.994H168Zm0,0" transform="translate(5545.944 -9803.904)" stroke="#000" stroke-width="1" fill="url(#linear-gradient-4)"/>
    <path id="Path_5161" data-name="Path 5161" d="M168,216h24.17v3.994H168Zm0,0" transform="translate(5545.944 -9792.904)" stroke="#000" stroke-width="1" fill="url(#linear-gradient-12)"/>
    <path id="Path_5162" data-name="Path 5162" d="M213.243,248.3l-2.656,9.807-.459-.12h-.679a8,8,0,0,0-5.652,2.337l-7.649,7.649-2.736,2.756a4.233,4.233,0,0,1-3,1.238,4.308,4.308,0,0,1-3.015-1.238,4.219,4.219,0,0,1,.02-5.992l14.38-14.4A8,8,0,0,1,207.451,248h4.673Zm0,0" transform="translate(5565.317 -9837.915)" fill="#f0d0b4" stroke="#000" stroke-width="1"/>
    <path id="Path_5163" data-name="Path 5163" d="M241.328,276.22a25.94,25.94,0,0,0-3.735-.259H220.158a2,2,0,0,1-2-2,7.978,7.978,0,0,1,7.989-7.989h21.969a3.994,3.994,0,1,0,0-7.989h-1.877l2.7-9.986h2.756a7.925,7.925,0,0,1,4.433,1.338l7.291,4.854,6.67,4.454a7.928,7.928,0,0,0,4.434,1.338h13v15.978h-5.992a27.753,27.753,0,0,0-6.79.839l-9.287,2.317c-.659.16-1.318.3-1.978.4a25.781,25.781,0,0,1-4.814.44,27.736,27.736,0,0,1-8.847-1.438l-3.375-1.118a26.742,26.742,0,0,0-5.113-1.179Zm0,0" transform="translate(5541.307 -9837.915)" fill="#f0d0b4" stroke="#000" stroke-width="1"/>
    <path id="Path_5164" data-name="Path 5164" d="M168,216h24.17v3.994H168Zm0,0" transform="translate(5545.944 -9774.904)" stroke="#000" stroke-width="1" fill="url(#linear-gradient-13)"/>
  </g>
</svg>
