<svg xmlns="http://www.w3.org/2000/svg" xmlns:xlink="http://www.w3.org/1999/xlink" width="96.926" height="99.673" viewBox="0 0 96.926 99.673">
  <defs>
    <linearGradient id="linear-gradient" x1="0.5" x2="0.5" y2="1" gradientUnits="objectBoundingBox">
      <stop offset="0" stop-color="#3bcd8f"/>
      <stop offset="0.277" stop-color="#3bcd8f"/>
      <stop offset="0.5" stop-color="#25ac73"/>
      <stop offset="0.821" stop-color="#0a834f"/>
      <stop offset="0.986" stop-color="#007442"/>
      <stop offset="1" stop-color="#007442"/>
    </linearGradient>
    <linearGradient id="linear-gradient-2" x1="0.5" x2="0.5" y2="1" gradientUnits="objectBoundingBox">
      <stop offset="0" stop-color="#64ffbd"/>
      <stop offset="1" stop-color="#08b96e"/>
    </linearGradient>
    <linearGradient id="linear-gradient-4" x1="0.5" x2="0.5" y2="1" gradientUnits="objectBoundingBox">
      <stop offset="0" stop-color="#3ea69b"/>
      <stop offset="1" stop-color="#1f534e"/>
    </linearGradient>
    <linearGradient id="linear-gradient-12" x1="0.5" x2="0.5" y2="1" gradientUnits="objectBoundingBox">
      <stop offset="0.092" stop-color="#ffbd8a"/>
      <stop offset="0.844" stop-color="#f09a59"/>
    </linearGradient>
    <linearGradient id="linear-gradient-13" x1="0.5" x2="0.5" y2="1" gradientUnits="objectBoundingBox">
      <stop offset="0" stop-color="#0081a1"/>
      <stop offset="1" stop-color="#007491"/>
    </linearGradient>
    <linearGradient id="linear-gradient-14" x1="0.5" x2="0.5" y2="1" gradientUnits="objectBoundingBox">
      <stop offset="0.106" stop-color="#00bacf"/>
      <stop offset="0.809" stop-color="#008db0"/>
    </linearGradient>
  </defs>
  <g id="Group_4089" data-name="Group 4089" transform="translate(-59.5 -8791.535)">
    <path id="Path_2939" data-name="Path 2939" d="M291.566,6.574c-6.626,16.323-9.955,32.1-12.585,49.641A194.211,194.211,0,0,1,256.751,53.5c1.6-17.663,2.106-33.79-.464-51.236C271.52-1.559,277.68-.806,291.566,6.574Z" transform="translate(-146.291 8792)" stroke="#000" stroke-width="1" fill="url(#linear-gradient)"/>
    <path id="Path_2940" data-name="Path 2940" d="M285.141,63.353c-5.314-.568-7.9-.885-13.195-1.613A3.4,3.4,0,0,0,269.37,57.8a275.783,275.783,0,0,0,.514-40.507c2.408-.687,4.315-2.556,4.2-4.471,8.429-1.638,12.767-1.108,20.565,2.514-.564,1.832.845,4.107,3.021,5.353a275.6,275.6,0,0,0-9.094,39.458A3.386,3.386,0,0,0,285.141,63.353Z" transform="translate(-156.746 8782.463)" stroke="#000" stroke-width="1" fill="url(#linear-gradient-2)"/>
    <g id="Group_471" data-name="Group 471" transform="translate(116.184 8797.236)">
      <path id="Path_2941" data-name="Path 2941" d="M296.614,101.984c5.1.623,8.342,5.236,7.568,9.122s-4.888,6.27-9.352,5.724-7.894-3.852-7.726-7.812S291.518,101.361,296.614,101.984Z" transform="translate(-287.098 -86.685)" stroke="#000" stroke-width="1" fill="url(#linear-gradient)"/>
      <path id="Path_2942" data-name="Path 2942" d="M334.862,26.094a1.881,1.881,0,0,1,1.778,1.984,2.044,2.044,0,0,1-3.974-.486A1.871,1.871,0,0,1,334.862,26.094Z" transform="translate(-323.511 -26.076)" stroke="#000" stroke-width="1" fill="url(#linear-gradient-4)"/>
      <ellipse id="Ellipse_25" data-name="Ellipse 25" cx="1.372" cy="1.691" rx="1.372" ry="1.691" transform="matrix(-0.993, -0.119, 0.119, -0.993, 7.253, 45.602)" stroke="#000" stroke-width="1" fill="url(#linear-gradient-4)"/>
    </g>
    <path id="Path_2943" data-name="Path 2943" d="M309.122,121.39c-.475-.117-.713-.173-1.19-.28a8.572,8.572,0,0,1-2.453,4.065c-.475-.624-.714-.936-1.2-1.555a6.807,6.807,0,0,0,1.87-2.884c-1.273-.246-1.913-.351-3.2-.523a8.339,8.339,0,0,1-1.525,2.879,2.555,2.555,0,0,1-2.209.751,2.853,2.853,0,0,1-2.193-1.249,4.677,4.677,0,0,1-.779-2.873c-.335-.005-.5-.007-.837-.008.027-.457.04-.686.066-1.143.346,0,.518,0,.863,0a8,8,0,0,1,1.535-3.739c.614.478.917.725,1.512,1.23a6.176,6.176,0,0,0-1.207,2.554c1.268.052,1.9.1,3.163.223l.006-.055a7.38,7.38,0,0,1,1.6-2.947,2.649,2.649,0,0,1,2.439-.635,3.126,3.126,0,0,1,2.264,1.616,5,5,0,0,1,.5,3.156c.474.11.711.168,1.184.288C309.245,120.714,309.2,120.939,309.122,121.39Zm-10.758-.31a1.12,1.12,0,0,0,.878.525,1.137,1.137,0,0,0,.906-.295,4.043,4.043,0,0,0,.766-1.331c-1.15-.111-1.726-.151-2.881-.2A2.278,2.278,0,0,0,298.364,121.08Zm7.76-2.947a1.233,1.233,0,0,0-.9-.688,1.146,1.146,0,0,0-.995.243,3.961,3.961,0,0,0-.844,1.4c1.2.169,1.8.271,2.993.508A2.744,2.744,0,0,0,306.124,118.132Z" transform="translate(-177.556 8700.228)" fill="#44c4a1"/>
    <path id="Path_2944" data-name="Path 2944" d="M300.14,36.229C289.2,49.421,281.507,63.284,273.963,79.075A202.3,202.3,0,0,1,253.89,68.469C260.5,52.186,265.645,36.976,268.283,19.4,283.682,21.241,289.245,24.181,300.14,36.229Z" transform="translate(-144.375 8776.499)" stroke="#000" stroke-width="1" fill="url(#linear-gradient)"/>
    <path id="Path_2945" data-name="Path 2945" d="M284.744,89.636c-4.822-2.458-7.156-3.691-11.915-6.3a3.685,3.685,0,0,0-1.276-4.694,272.884,272.884,0,0,0,12.206-38.478c2.459.213,4.789-.884,5.236-2.753,8.384,1.475,12.3,3.545,18.57,9.812-1.059,1.545-.4,4.224,1.286,6.2A260.851,260.851,0,0,0,288.9,87.811,3.108,3.108,0,0,0,284.744,89.636Z" transform="translate(-158.491 8762.098)" stroke="#000" stroke-width="1" fill="url(#linear-gradient-2)"/>
    <g id="Group_472" data-name="Group 472" transform="translate(120.513 8804.81)">
      <path id="Path_2946" data-name="Path 2946" d="M327.519,130.2c4.6,2.432,6.312,8,4.462,11.435s-6.4,4.223-10.432,2.093-6.293-6.522-4.989-10.241S322.917,127.768,327.519,130.2Z" transform="translate(-314.676 -116.01)" stroke="#000" stroke-width="1" fill="url(#linear-gradient)"/>
      <path id="Path_2947" data-name="Path 2947" d="M392.854,64.05a2.051,2.051,0,0,1,1.094,2.535,1.72,1.72,0,0,1-2.445.527,2.036,2.036,0,0,1-1.143-2.423A1.732,1.732,0,0,1,392.854,64.05Z" transform="translate(-373.867 -63.786)" stroke="#000" stroke-width="1" fill="url(#linear-gradient)"/>
      <path id="Path_2948" data-name="Path 2948" d="M310.73,255.366a1.684,1.684,0,0,1,.554,2.181,1.429,1.429,0,0,1-1.9.88,1.693,1.693,0,0,1-.554-2.179A1.423,1.423,0,0,1,310.73,255.366Z" transform="translate(-308.653 -216.786)" stroke="#000" stroke-width="1" fill="url(#linear-gradient)"/>
    </g>
    <path id="Path_2949" data-name="Path 2949" d="M337.646,147.091c-.412-.283-.619-.422-1.036-.7a7.769,7.769,0,0,1-3.478,3c-.265-.767-.4-1.151-.676-1.917a6.15,6.15,0,0,0,2.589-2.078c-1.124-.694-1.693-1.025-2.848-1.651a7.578,7.578,0,0,1-2.264,2.2,2.428,2.428,0,0,1-2.29-.08,3.134,3.134,0,0,1-1.7-1.982,4.906,4.906,0,0,1,.1-3.024c-.312-.126-.469-.187-.783-.309.158-.427.236-.64.393-1.068.325.123.487.185.809.312a7.378,7.378,0,0,1,2.523-3.015c.438.678.65,1.022,1.063,1.719a5.651,5.651,0,0,0-1.871,2c1.175.507,1.756.777,2.9,1.353l.021-.05a6.7,6.7,0,0,1,2.352-2.237,2.55,2.55,0,0,1,2.472.273,3.454,3.454,0,0,1,1.657,2.358,5.133,5.133,0,0,1-.446,3.192c.413.276.619.417,1.028.7C337.957,146.49,337.854,146.69,337.646,147.091Zm-10.005-4.174a1.231,1.231,0,0,0,.672.817,1.084,1.084,0,0,0,.935.045,3.66,3.66,0,0,0,1.1-.994c-1.046-.52-1.576-.766-2.644-1.233A2.384,2.384,0,0,0,327.641,142.917Zm8.135-.016a1.364,1.364,0,0,0-.647-.981,1.106,1.106,0,0,0-1-.126,3.58,3.58,0,0,0-1.2,1.03c1.079.594,1.612.908,2.662,1.564A2.826,2.826,0,0,0,335.776,142.9Z" transform="translate(-201.415 8682.69)" stroke="#000" stroke-width="1" fill="url(#linear-gradient-2)"/>
    <path id="Path_2950" data-name="Path 2950" d="M141.835,176.181h0a6.752,6.752,0,0,0-6.676-6.825h-.453a75.207,75.207,0,0,0-14.961,0h-.888v.1a34.924,34.924,0,0,0-4.968.907l-.355-10.292-4.681.99a13.428,13.428,0,0,0-6.945,4.006L91.692,176.16a13.427,13.427,0,0,1-9.876,4.33H80.524l-5.048,36.654,12.788.112c18.173,7.179,40.047,4.654,40.047,4.654h1.879a6.752,6.752,0,0,0,6.676-6.825h0a6.831,6.831,0,0,0-3.877-6.19h.462a6.752,6.752,0,0,0,6.676-6.825h0a6.832,6.832,0,0,0-3.785-6.145,6.782,6.782,0,0,0,5.493-6.712h0a6.812,6.812,0,0,0-4.683-6.515A6.813,6.813,0,0,0,141.835,176.181Z" transform="translate(-1.79 8664.072)" stroke="#000" stroke-width="1" fill="url(#linear-gradient-12)"/>
    <rect id="Rectangle_133" data-name="Rectangle 133" width="21.426" height="52.007" transform="translate(60 8838.701)" stroke="#000" stroke-width="1" fill="url(#linear-gradient-13)"/>
    <circle id="Ellipse_26" data-name="Ellipse 26" cx="3.758" cy="3.758" r="3.758" transform="translate(66.955 8878.745)" stroke="#000" stroke-width="1" fill="url(#linear-gradient-14)"/>
  </g>
</svg>
