<svg xmlns="http://www.w3.org/2000/svg" xmlns:xlink="http://www.w3.org/1999/xlink" width="184.153" height="158.289" viewBox="0 0 184.153 158.289">
  <defs>
    <linearGradient id="linear-gradient" x1="0.5" x2="0.5" y2="1" gradientUnits="objectBoundingBox">
      <stop offset="0.23" stop-color="#fadb5d"/>
      <stop offset="0.97" stop-color="#f08e28"/>
    </linearGradient>
  </defs>
  <g id="Group_4140" data-name="Group 4140" transform="translate(-1032.5 -1087.396)">
    <g id="Group_4139" data-name="Group 4139" transform="translate(983.868 1038.173)">
      <g id="Group_4136" data-name="Group 4136" transform="translate(49.132 49.644)">
        <path id="Path_5303" data-name="Path 5303" d="M189.607,212.146c1.862-1.241,2.379-3.259,2.793-5.225a14.321,14.321,0,0,1,5.535-8.483,11.926,11.926,0,0,1,.983-.724c2.121-1.345,4.242-1.5,4.811-.207.879,2.017-.414,3.207-1.966,4.19-.052.052-.052.259-.1.362a.536.536,0,0,0,.879.1c1.138-1.035,1.552-.517,1.966.724.569,1.6,1.5,3.052,3.88,3.1a13.048,13.048,0,0,1-1.6-1.293c-.155-.155-.1-.517-.052-.776a.444.444,0,0,1,.621-.362c2.069,1.293,3.466-.517,5.121-1.138,1.5,2.948-1.241,2.638-2.69,3.362,1.448.621,1.81.569,3.621-.466,1.035-.569,2.224-.828,1.448-2.638-.414-.931.052-2.276.155-3.414.052-.414.569-1.035.724-.776.828,1.293,2.793,1.241,3.362,2.431.466,1.086-.517,2.224-1.5,2.948-.621.466-1.138.672-.155,1.345.466.31-.1.879-.414,1.19-1.19,1.4-2.121,3.052-3.569,4.242-1.655,1.4-2.017,3.466-2.638,5.431-.414,1.19-.776,2.638-2.69,1.707a2.822,2.822,0,0,1-1.448-3.776c.362-.879.879-1.707,1.293-2.586a.737.737,0,0,0-.31-1.086c-.414-.155-.569.259-.776.517-.517.621-1.035,1.293-1.6,1.862-2.586,2.483-5.328,1.707-6.362-1.759a14.272,14.272,0,0,0-.414-1.4c-.362-.879-.621-2.121-1.759-2.017a3.439,3.439,0,0,0-2.9,1.966,3.614,3.614,0,0,0-.31,2.431c.466,2.173.414,4.086-1.19,6a5.29,5.29,0,0,1-2.431,1.966c-1.707.517-3.414,1.086-5.121,1.655a5.9,5.9,0,0,0-3.88,3.466c-.879,2.069-2.793,2.742-4.552,3.517-1.241.569-2.638.776-3.621,1.914-.569.672-1.138,1.448.414,1.655.517.052.983.207,1.035.828.052.672-.466.983-.983,1.19-1.086.414-2.224.776-3.311,1.19a8.162,8.162,0,0,0-4.086,3c-.466.724-1.241,1.293-2.121.776s-.362-1.4,0-2.017c1.862-2.948,1.81-6.259,1.914-9.57,0-.672.259-.931.879-.724.931.31,1.914.414,2.121-.776a2.108,2.108,0,0,0-1.6-2.173,13.073,13.073,0,0,0-7.707-.362c-2.586.621-4.655-.724-4.811-3.362-.052-1.293-.672-1.914-1.914-1.914a2.34,2.34,0,0,1-2.276-1.19c-.879-1.966-2.69-1.6-4.242-1.862-.879-.155-1.138.621-1.5,1.19-1.759,2.586-2.586,2.276-5.535,2.379-3.311.1-5.845-2.379-9.1-1.81-1.293.207-1.759-1.035-2.121-2.328-.672,1.448-1.81,1.19-2.793,1.19a157.579,157.579,0,0,1-29.95-3.311,160.44,160.44,0,0,1-33.985-10.811c-3.259-1.5-4.138-4.345-4.655-7.4a3.01,3.01,0,0,0-1.552-2.276,16.17,16.17,0,0,0,1.241,5.121,5.277,5.277,0,0,1,.466,1.138c.259,1.241.983,3.052-.414,3.466-1.241.414-2.069-1.345-2.638-2.483-1.293-2.638-2.069-5.431-3.362-8.07-.362-.776-1.759-3,1.086-3.259.466-.052.517-.414.569-.724a4.269,4.269,0,0,1,3.311-3.259c-3.155-1.19-1.5-3.311-1.4-5.121.052-.569,1.086-1.4-.569-1.4-.879,0-.828-.931-.724-1.655a7.608,7.608,0,0,1,1.966-4.035c2.586-3,2.586-3.207.776-6.673a2.243,2.243,0,0,1-.466-1.759c1.448-3.776.517-7.707.931-11.535.155-1.4-.828-1.19-1.655-.931-2.69.879-3.1.569-3.155-2.224v-3.1c0-.466.052-1.138-.414-1.345-2.483-1.19-.724-2.121.1-3.1,6.518-7.294,12.88-14.432,19.243-21.622.621-.724,1.293-1.4,1.966-2.121.983-1.138,1.6-.724,1.966.517.1.31.207.672.31.983.828,2.69.983,2.742,3.724,2.431.621-.052,1.966-.879,1.5,1.035-.155.776.983.621,1.5.569,2.379-.362,4.655.155,6.983.362.672.052,1.5.1,1.448.828-.207,1.759,1.81,2.586,1.655,4.242,0,.31.1.517.466.517,2.948,0,4.086,2.69,5.949,4.19.983.776,1.655,1.759,3,2.017a2.116,2.116,0,0,1,1.707,2.069c.1,1.138-.724,1.345-1.759,1.6,2.845,2.535,8.38.983,9.1,6.311.724-1.862.621-2.379-.517-4.449a.706.706,0,0,1,.31-1.035,8.467,8.467,0,0,1,3.517-1.086c.414-.052,1.035.31.724.672-1.345,1.552.259,1.6.983,2.069.672.466,1.4.879,2.069,1.345,1.345.983,2.69,1.655,4.4,1.138.983-.31,1.862.31,3.052.414-.259-.724-1.448-1.138-.724-2.017a1.3,1.3,0,0,1,1.655-.362c.983.362,1.759.828,1.4,2.121a1.138,1.138,0,0,0,.569,1.5,44.012,44.012,0,0,0,2.224-4.035c.724-1.6-.259-2.845-1.19-3.931a5.211,5.211,0,0,1-.828-6.621c.362-.621.31-1.6,1.4-1.5a2.412,2.412,0,0,1,2.224,1.241c.724,1.707,1.5,3.414,1.086,5.38-.155.672-.31,1.5.569,1.759a3.114,3.114,0,0,1,2.224,3.259c.569.1.569-.207.621-.466.207-.672-.414-1.914.517-1.862a2.155,2.155,0,0,1,1.914,2.328,6.306,6.306,0,0,0,.31,2.793,1.46,1.46,0,0,0,1.241.983,1.1,1.1,0,0,0,1.19-.931c.466-2.173,1.552-4.293.052-6.518-.672-1.035-.362-1.759,1.086-1.862a8.592,8.592,0,0,1,3.259.466c1.138.414,2.017,1.552,1.552,2.535-.828,1.655.1,2.586.931,3.621,1.241,1.5.983,2.742-.414,3.931-1.448,1.241-2.535,3.414-5.276,2.069.724,2.121,1.4,3.621,3.724,3.569,1.293,0,2.121,1.138,3.052,1.966s1.552,2.121,3.155,2.121c.517,0,.776.517.672,1.086-.155.724-.776,1.5-1.448,1.19-2.793-1.293-4.4-.414-5.535,2.276-.362.828-1.19.621-1.552-.259-.259-.621-.362-1.293-1.4-1.035-1.966.466-1.4-.569-.828-1.5a4.409,4.409,0,0,0,.31-4.5c-.155-.362-.259-1.086-.983-.828-.517.207-.517.569-.466,1.19.259,2.276-.879,3.776-2.9,5.069-1.035.672-2.948,1.035-2.379,3.155.1.466-.414.828-.828,1.138-4.345,3.362-5.069,8.276-5.845,13.191-.155.983.31,2.121,1.552,2.017,2.638-.207,3,1.6,3.052,3.414.052,2.017.414,2.638,2.742,2.276a7.361,7.361,0,0,1,6.414,2.069,9.211,9.211,0,0,0,3.1,2.121c2.638,1.035,5.173,1.862,8.018,1.345,1.966-.362,2.948.776,2.9,2.586-.155,4.966,3.414,7.552,6.518,10.449a.86.86,0,0,0,1.138.155,3.912,3.912,0,0,0,1.19-5.69c-1.138-1.81-1.759-3.88-3.259-5.483-.879-.983-.569-1.81.466-2.586,4.966-3.517,4.862-8.949-.155-12.363-3.052-2.069-3.1-2.121-2.017-5.535a3,3,0,0,0-.672-3.414,2.653,2.653,0,0,1-1.035-2.379,3.217,3.217,0,0,0-.879-2.483,1.571,1.571,0,0,1-.31-1.914,1.738,1.738,0,0,1,1.914-.983,5.2,5.2,0,0,0,4.759-1.086c1.4-1.035,2.948-.052,4.086,1.035s2.173,1.759,3.828,1.293a1.873,1.873,0,0,1,2.276,1.345A29.013,29.013,0,0,1,175.693,166c.724,2.535,2.69,1.5,3.983,1.655,1.4.155,1.914-1.345,1.966-2.69.052-1.81,0-3.569-.052-5.38,0-1.4.569-1.5,1.655-.828,1.035.621,1.655,1.707,2.638,2.276,1.552.931,2.793,2.276,4.759,2.742,1.552.362,2.328,1.966,3.1,3.311a3.382,3.382,0,0,0,.879,1.345c1.448,1.035,3.362.724,4.862,1.914.466.362,2.586.052,3.88-.414a1.9,1.9,0,0,1,2.483.569,2.555,2.555,0,0,0,3.1.983c2.069-.672,3.414,1.293,4.811,2.586a2.564,2.564,0,0,1,.466,3.362,10.92,10.92,0,0,1-1.345,2.069,11.074,11.074,0,0,0-2.535,5.793,5.7,5.7,0,0,1-3.362,4.6,29.532,29.532,0,0,1-6.156,2.328,10.7,10.7,0,0,0-4.5,2.793c-.414.414-1.035,1.035-.983,1.5.259,2.224-1.035,3.673-2.224,5.276a6.976,6.976,0,0,0-1.19,3.517A16.507,16.507,0,0,1,189.607,212.146Z" transform="translate(-49.132 -81.97)" stroke="#000" stroke-width="1" fill="url(#linear-gradient)"/>
        <path id="Path_5304" data-name="Path 5304" d="M215.212,133.858c-2.742-.724-3-1.035-2.845-3.931a14.028,14.028,0,0,1,.517-3.88,4.243,4.243,0,0,1,1.966-2.535c.569-.31,1.241-.879,1.914-.362.621.466.1,1.19-.1,1.707a5.159,5.159,0,0,0,.207,4.19c.672-.569.414-1.19.362-1.759-.362-3.1.983-4.6,4.19-4.552,1.241,0,2.328-.776,3.621-.569,1.345.207,2.431.621,2.483,2.224,0,.155-.1.31-.052.414.672,1.19,2.276.931,3.052,2.224.466.828,1.6,2.069,2.845.414a.668.668,0,0,1,1.138.362c-.1,2.069,1.345,1.448,2.276,1.345,1.6-.207,2.431.155,1.914,2.173.931-.517,1.707-1.138,2.586-.466.828.672-.466,1.19-.155,1.966,1.707-.259,2.638.1,1.138,1.914-.259.259-.362,1.086.052.983,1.5-.414,2.69.983,3.828.672,1.81-.414,3.414.362,5.069.414,3.311.155,4.4,1.914,3.466,5.224-.1.466-.517.879-.466,1.345.052.724.569,1.552-.414,1.966a1.89,1.89,0,0,1-2.173-.828c-1.035-1.293-2.535-.776-3.776-1.241-.724-.259-.879.672-1.035,1.241-.207.672.207.931.724,1.241,1.862,1.138,4.19,1.086,5.9,2.793a16.88,16.88,0,0,1,2.535,3.207c.828,1.345.052,1.914-1.241,2.017-1.293.155-2.328-.672-3.517-1.086-.569-.207-1.4-.466-1.655.207-.259.724.672.931,1.19,1.138,1.4.569,2.845,1.035,4.242,1.655a1.427,1.427,0,0,1,1.035,1.6c-.207.776-1.035.362-1.6.569-2.793.879-5.483-.414-8.173-.724-1.293-.155-2.9-1.4-4.242-2.328-1.862-1.293-3.207-1.4-5.069,0a1.371,1.371,0,0,1-.31.259,2.371,2.371,0,0,1-3.052.362c-.621-.414-1.448-.983-1.035-1.81.569-1.19,1.241-2.431,2.793-2.328a2.686,2.686,0,0,0,2.069-.621c.828-.672,1.759-1.241,0-1.914a.689.689,0,0,1-.362-1.035c1.086-1.086.466-2.638,1.086-3.88a1.8,1.8,0,0,0-.569-2.379c-1.293-1.035-2.638-1.966-3.983-2.9-.207-.155-.672-.362-.724-.31-2.017,2.121-1.6-.1-2.328-1.086-.724-1.035-2.224-1.552-3.1-2.638-.31-.414-1.086-.31-.983.362.207,1.4-.776,1.345-1.6,1.6a11.306,11.306,0,0,1-7.5.155,3.076,3.076,0,0,0-1.81.052c-1.19.31-1.6-.517-1.862-1.448C213.505,134.22,214.126,133.858,215.212,133.858Z" transform="translate(-127.912 -84.636)" stroke="#000" stroke-width="1" fill="url(#linear-gradient)"/>
        <path id="Path_5305" data-name="Path 5305" d="M150.5,119.487c1.19.155,2.328-1.966,3.052.1a12.876,12.876,0,0,1,.207,3.569,1.894,1.894,0,0,0,.569-2.121c-.517-2.328,1.086-3.414,2.535-4.6a1.022,1.022,0,0,1,1.345,0,1.125,1.125,0,0,1,.466,1.6c-1.862,3-.155,5.9.207,8.794a3.7,3.7,0,0,0,1.552,2.121c.724.672,1.914,1.138,1.552,2.431-.31,1.241-1.6.776-2.431,1.19.31.724.776,1.5.1,2.069-.724.724-1.707.207-2.535.1a4.158,4.158,0,0,1-2.069-1.293,1.788,1.788,0,0,0-2.224-.207,9.372,9.372,0,0,1-6.983.776c-.414-.1-1.086-.259-1.086-.414-.207-2.121-2.069-3.052-3.155-4.5a2.2,2.2,0,0,1,.052-2.9c.879-.931,1.862-.517,2.845-.052.931.466,1.759,1.241,3.207,1.138a4.257,4.257,0,0,0-3-1.966c-.724-.207-1.5-.31-2.173-.569-.724-.259-1.707-1.19-1.345-1.552,2.017-1.862-1.552-5.38,2.328-6.518-1.862.155-1.862.155-3.155,1.655a3.054,3.054,0,0,1-1.966,1.4c-2.638.31-2.173.155-3.155-2.328-1.086-2.742.31-3.88,2.017-5.224a4.093,4.093,0,0,0,1.81-2.431c.155-.828.207-1.862,1.241-1.862s2.379-.052,3,.983a4.654,4.654,0,0,0,2.535,1.914c1.4.569,2.379,1.707,1.655,3.052-.983,1.966,1.5,1.914,1.448,3.207C150.657,117.055,150.5,118.3,150.5,119.487Z" transform="translate(-90.514 -77.765)" stroke="#000" stroke-width="1" fill="url(#linear-gradient)"/>
        <path id="Path_5306" data-name="Path 5306" d="M209.133,64.829c-.052-2.173.1-2.276,2.69-1.241-.155-1.035-.155-2.069-1.655-1.448a1.273,1.273,0,0,1-.776,0c-.466-2.017-3.362-1.552-3.724-3.724-.1-.569-.362-1.035.259-1.4,1.035-.569,1.759-1.759,2.535-2.224,1.759-1.138,2.69-3,4.449-4.035,1.19-.672,2.431-1.862,3.88-.466.362.362.776.207,1.138.1a1.783,1.783,0,0,1,2.224.569,2.867,2.867,0,0,1-.052,2.742c-.31.724-1.4,1.035-1.138,2.173.724.052.828-1.552,1.655-.828.569.466.155,1.293.1,1.966-.207,1.707-1.5,3.259-.828,5.173.207.569-.517.879-.931,1.241-1.138,1.035-3.052,1.966-.724,3.724a1.943,1.943,0,0,1,.569,1.707c-.672,1.862-1.552,3.621-2.379,5.535-.155-.207-.1-.1,0,0,.569.621,2.431-.569,2.069,1.4a2.694,2.694,0,0,1-3.207,1.914,2.563,2.563,0,0,0-1.759.414,8.019,8.019,0,0,1-3.673.466,1.364,1.364,0,0,1-1.293-.828c-.31-.724,1.086-4.811,1.81-5.328-.517-.414-1.448-.517-1.241-1.552.31-1.6,1.655-1.862,3.052-2.379-.569-.724-1.345-1.241-1.448-2.121C210.168,65.812,209.65,65.295,209.133,64.829Z" transform="translate(-124.626 -49.644)" stroke="#000" stroke-width="1" fill="url(#linear-gradient)"/>
        <path id="Path_5307" data-name="Path 5307" d="M382.19,241.81c.621-.414.207-1.448,1.19-1.345a3.414,3.414,0,0,1,3,3.517c0,.828.1,1.655-1.035,1.914-1.707.466-1.707.517-3.259-1.81-.155,1.241-.259,2.276-.466,3.259-.1.466-.362.931-.931.931-.517,0-.621-.517-.621-.931-.1-1.4-.879-1.034-1.552-.569-1.862,1.448-4.086,2.276-5.742,3.983-.517.517-1.035.983-1.81.724-.828-.259-.569-1.138-.879-1.655-1.448-2.69,0-5.793-1.293-8.535-.621-1.293-.414-2.845-.362-4.293a7.03,7.03,0,0,1,.362-1.81c.207-.621.414-1.5,1.293-1.4.828.1.879,1.035.828,1.655a14.078,14.078,0,0,0,.207,3.311c.1.776.31,1.448,1.293.672.052-.052.1-.155.155-.1a6.152,6.152,0,0,0,5.69-1.81c.31-.259.879-.052,1.138.259.672.983,1.086,2.224,2.69,1.138.31-.207.466.517.362.931C382.345,240.465,381.776,240.982,382.19,241.81Z" transform="translate(-203.229 -138.533)" stroke="#000" stroke-width="1" fill="url(#linear-gradient)"/>
        <path id="Path_5308" data-name="Path 5308" d="M214.564,107.431c.155,1.5-.362,2.431-2.173,2.328a2.394,2.394,0,0,0-1.552.466c-2.173,1.448-4.5.052-6.725.362-1.241.155-1.552-1.6-1.6-2.742-.1-1.862-.31-3.414-2.535-3.828-.466-.1-.879-.621-1.293-.983a1.026,1.026,0,0,1-.155-1.345.935.935,0,0,1,1.293-.31,16.984,16.984,0,0,0,3.828,1.4,1.137,1.137,0,0,1,.828,1.086,2.6,2.6,0,0,0,3.311,2.328c1.035-.259,2.017-.828,3.052-1.19C213.167,104.173,214.564,105.1,214.564,107.431Z" transform="translate(-121.16 -74.556)" stroke="#000" stroke-width="1" fill="url(#linear-gradient)"/>
        <path id="Path_5309" data-name="Path 5309" d="M164.624,106.166c-1.086-.155-2.173-.31-3.207-.517-1.707-.362-2.017-1.293-1.035-2.69.259-.31.362-.724.621-1.086,1.241-1.862,2.948-1.914,4.242-.052a9.894,9.894,0,0,1,.828,1.655c.259.517.466,1.086,1.138.931.569-.155.414-.776.414-1.241.052-.362,0-.672.052-1.035.1-.672,0-1.552.931-1.552.828,0,.724.879.724,1.448,0,.724.207,1.19.931,1.4,1.035.259,1.862.672,1.655,1.914-.259,1.4-1.086,2.586-2.535,2.586a17.371,17.371,0,0,0-5.431.621c-.621.207-1.6.155-1.655-.724-.1-.879.931-.569,1.4-.828.362-.155.724-.259,1.086-.414A3.568,3.568,0,0,0,164.624,106.166Z" transform="translate(-102.567 -74.169)" stroke="#000" stroke-width="1" fill="url(#linear-gradient)"/>
        <path id="Path_5310" data-name="Path 5310" d="M205.992,74c.517.466.983.931,1.5,1.448-.052,1.655-1.035,2.793-2.069,3.931-.672.828-1.5,2.121-2.638,1.4-.983-.672-2.845-1.345-1.81-3.311.362-.724-.31-.672-.724-.879-1.086-.569-1.6-1.759-.931-2.535.828-1.035.621-1.966.569-3.052a2.091,2.091,0,0,1,1.293-2.328c.931-.207,1.345.828,1.707,1.552C203.613,71.779,204.026,73.537,205.992,74Z" transform="translate(-121.486 -58.818)" stroke="#000" stroke-width="1" fill="url(#linear-gradient)"/>
        <path id="Path_5311" data-name="Path 5311" d="M185.4,128.632c.1-.466-.207-1.4,1.035-.983.414.155.466-.052.362-.879-.155-.879-.362-1.914.672-2.328,1.19-.517,2.328.31,3.517.414.31.052.362.621.155.931-.931,1.345-.052,2.276.517,3.362.931,1.759-.828,4.966-2.742,5.121a1.043,1.043,0,0,1-.569-.155A23.147,23.147,0,0,1,185.4,128.632Z" transform="translate(-114.912 -85.67)" stroke="#000" stroke-width="1" fill="url(#linear-gradient)"/>
        <path id="Path_5312" data-name="Path 5312" d="M198.971,127.063a4.127,4.127,0,0,1,.672-2.638,3.86,3.86,0,0,1,5.069-.879c.931.776,0,4.138-1.552,4.707-1.035.414-1.6.879-1.655,1.966a.733.733,0,0,1-.724.828c-.414,0-.569-.31-.724-.621C199.643,129.287,198.764,128.3,198.971,127.063Z" transform="translate(-121.448 -85.031)" stroke="#000" stroke-width="1" fill="url(#linear-gradient)"/>
        <path id="Path_5313" data-name="Path 5313" d="M192.278,106.6c-.259,1.19-.155,2.431-.776,3.466a1.615,1.615,0,0,1-1.862.983c-.879-.207-.931-.879-.776-1.6.1-.362.31-.931-.31-.931-3.776-.1.207-2.017-.672-2.742.931-.621,1.5-1.81,3-1.293A1.841,1.841,0,0,1,192.278,106.6Z" transform="translate(-115.634 -76.054)" stroke="#000" stroke-width="1" fill="url(#linear-gradient)"/>
        <path id="Path_5314" data-name="Path 5314" d="M158.7,91.2c.517.207,1.448-.052,1.552.672a3.876,3.876,0,0,1-1.19,3.155c-.414.517-.931.776-1.5,0-.569-.828-.672.155-.931.362-.724.466-1.241,1.552-2.431.776-.621-.414-1.5-.621-1.5-1.5,0-.983.931-1.086,1.6-1.293a4.8,4.8,0,0,0,2.121-1.19A2.981,2.981,0,0,1,158.7,91.2Z" transform="translate(-99.127 -69.704)" stroke="#000" stroke-width="1" fill="url(#linear-gradient)"/>
        <path id="Path_5315" data-name="Path 5315" d="M190.3,87.259c-.052.517.155,1.293-.362,1.655-.724.517-.983-.517-1.448-.724a7.806,7.806,0,0,1-1.448-.776,2.262,2.262,0,0,1-1.19-2.586c.1-.672.207-1.5,1.086-1.552a2.836,2.836,0,0,1,2.793,1.4A5.776,5.776,0,0,1,190.3,87.259Z" transform="translate(-115.101 -65.867)" stroke="#000" stroke-width="1" fill="url(#linear-gradient)"/>
        <path id="Path_5316" data-name="Path 5316" d="M193,159.524c-1.241-.31-2.793-.362-3.207-2.017-.155-.621,1.707-3.207,2.173-3.207.776,0,3,3.052,2.9,4.035C194.757,159.369,193.93,159.473,193,159.524Z" transform="translate(-117.027 -100.164)" stroke="#000" stroke-width="1" fill="url(#linear-gradient)"/>
      </g>
    </g>
  </g>
</svg>
