<svg xmlns="http://www.w3.org/2000/svg" xmlns:xlink="http://www.w3.org/1999/xlink" width="164.737" height="148.193" viewBox="0 0 164.737 148.193">
  <defs>
    <linearGradient id="linear-gradient" x1="0.5" x2="0.5" y2="1" gradientUnits="objectBoundingBox">
      <stop offset="0.166" stop-color="#ff7878"/>
      <stop offset="0.78" stop-color="#eb5959"/>
    </linearGradient>
    <linearGradient id="linear-gradient-4" x1="0.5" x2="0.5" y2="1" gradientUnits="objectBoundingBox">
      <stop offset="0.23" stop-color="#fadb5d"/>
      <stop offset="0.97" stop-color="#f08e28"/>
    </linearGradient>
  </defs>
  <g id="Group_4131" data-name="Group 4131" transform="translate(0.5 0.5)">
    <g id="Group_153" data-name="Group 153" transform="translate(12.578 19.171)">
      <path id="Path_716" data-name="Path 716" d="M151.156,5.2V95.17c-.659-.241-1.322-.466-2-.69-1.153-.379-2.3-.721-3.454-1.052-.674-.2-1.367-.376-2.046-.542-.435-.118-.873-.225-1.319-.331-.808-.2-1.622-.373-2.419-.539-.615-.135-1.246-.255-1.877-.376s-1.263-.241-1.88-.331c-.631-.107-1.26-.208-1.877-.283-.629-.107-1.26-.182-1.877-.258-1.291-.166-2.6-.3-3.89-.418-1.114-.093-2.209-.166-3.323-.23-1.35-.07-2.686-.115-4.021-.132-30.395-.5-60.8,10.863-91.189,10.366-3.334-.062-6.687-.255-10.018-.631-.631-.073-1.28-.152-1.925-.224-.735-.107-1.47-.21-2.209-.32-.617-.1-1.232-.208-1.863-.312-.659-.121-1.322-.241-1.981-.376-.676-.135-1.336-.286-2-.435s-1.367-.3-2.043-.483c-.542-.135-1.083-.269-1.608-.421-1.156-.3-2.315-.645-3.469-1.021C1.908,95.83.96,95.515,0,95.17V5.2c.96.345,1.908.662,2.871.963.915.3,1.83.572,2.747.828.241.056.48.135.721.194.525.152,1.066.283,1.608.421q2.143.539,4.28.946c.587.123,1.173.241,1.743.331.617.121,1.246.225,1.863.314,1.1.168,2.178.317,3.275.452.5.059.993.118,1.5.166q4.689.493,9.376.556C60.377,10.865,90.78-.478,121.174.016c1.336.02,2.672.062,4.021.138,1.1.059,2.209.135,3.323.224.884.073,1.788.166,2.674.269.631.079,1.277.152,1.922.225.735.107,1.47.21,2.194.317.615.107,1.246.21,1.863.314.673.121,1.336.241,2,.379,1.336.269,2.674.567,4,.9.558.135,1.114.283,1.653.435C146.936,3.787,149.038,4.45,151.156,5.2Z" transform="translate(0 0)" fill="#f2f2f2" stroke="#000" stroke-width="1"/>
      <path id="Path_717" data-name="Path 717" d="M29.985,5.169V95.155c-3.334-.062-6.687-.255-10.018-.631-.631-.073-1.28-.152-1.925-.224-.735-.107-1.47-.21-2.209-.32-.617-.1-1.232-.208-1.863-.311-.659-.121-1.322-.241-1.981-.376-.676-.135-1.336-.286-2-.435s-1.367-.3-2.043-.483c-.542-.135-1.083-.269-1.608-.421-1.156-.3-2.315-.645-3.469-1.021-.963-.3-1.911-.615-2.871-.96V0C.96.345,1.908.662,2.871.963c.915.3,1.83.572,2.747.828.241.056.48.135.721.194.542.152,1.066.283,1.608.421q2.143.539,4.28.946c.587.123,1.159.241,1.743.331.617.1,1.246.208,1.863.314,1.1.168,2.178.317,3.275.452.5.059,1,.118,1.5.166Q25.3,5.106,29.985,5.169Z" transform="translate(0 5.199)" stroke="#000" stroke-width="1" fill="url(#linear-gradient)"/>
      <path id="Path_718" data-name="Path 718" d="M29.993,95.157A92.577,92.577,0,0,0,0,89.983V0A92.661,92.661,0,0,1,29.993,5.18Z" transform="translate(121.166 0.013)" stroke="#000" stroke-width="1" fill="url(#linear-gradient)"/>
      <path id="Path_719" data-name="Path 719" d="M66.96,32.056c-1.35-.337-1.426-1.451-.974-3.219s2.624-9.811,2.624-9.808c0-.025-5.551,1.355-7.571,2.144-2.026.758-3.676,1.28-4.2-.979-.2-.859-.974-3.165-.974-3.165,0-.017-5.924,7.38-7.8,9.578-1.877,2.18-3.376,2.063-2.475-2.063.427-1.956,3.224-17.183,3.224-17.18s-2.66,1.546-3.676,2.183c-1.414.881-3.222,2.8-4.723-.309C39.953,8.273,35.016,0,35.016,0s-4.933,10.032-5.4,11.158c-1.5,3.637-3.3,2.346-4.723,1.939-1.016-.286-3.673-.965-3.673-.968s2.8,14.309,3.227,16.114c.9,3.822-.6,4.454-2.478,2.888-1.875-1.549-7.8-7.2-7.8-7.22,0,0-.775,2.514-.974,3.432-.525,2.394-2.175,2.312-4.2,2.023-2.023-.261-7.571-.682-7.571-.707,0,.006,2.175,7.7,2.624,9.387s.373,2.817-.974,3.382S0,42.854,0,42.854c0,.168,14.3,10.467,15.218,10.9.679.432,2.7,1.931,2.287,3.791s-1.383,4.7-1.383,4.7c0,.079,13.723-4.063,15.294-4.695,1.577-.581,2.778-.645,2.778,1.529s-.6,17.051-.6,17.051c.477-.081.951-.168,1.426-.253l1.426-.253s-.6-14.666-.6-16.84,1.2-2.54,2.77-2.52c1.58-.028,15.3-.421,15.3-.345a43.6,43.6,0,0,1-1.389-4.294c-.41-1.74,1.614-3.842,2.29-4.459.918-1,15.221-14.315,15.221-14.141C70.036,33.03,68.31,32.39,66.96,32.056Z" transform="translate(40.562 13.592)" stroke="#000" stroke-width="1" fill="url(#linear-gradient)"/>
    </g>
    <g id="Group_154" data-name="Group 154" transform="translate(12.578 24.37)" opacity="0.2">
      <path id="Path_720" data-name="Path 720" d="M2.871.963V90.931c-.963-.3-1.911-.615-2.871-.96V0C.96.345,1.908.662,2.871.963Z" stroke="#000" stroke-width="1"/>
    </g>
    <g id="Group_155" data-name="Group 155" transform="translate(4.836 8.796)">
      <rect id="Rectangle_281" data-name="Rectangle 281" width="7.964" height="138.397" stroke="#000" stroke-width="1" fill="url(#linear-gradient-4)"/>
    </g>
    <path id="Path_721" data-name="Path 721" d="M7.964,0V10.507a8.787,8.787,0,0,1-7.964,0V0Z" transform="translate(4.835 8.798)" stroke="#000" stroke-width="1" opacity="0.2"/>
    <path id="Path_722" data-name="Path 722" d="M17.615,8.806A8.807,8.807,0,1,1,8.809,0,8.809,8.809,0,0,1,17.615,8.806Z" stroke="#000" stroke-width="1" fill="url(#linear-gradient-4)"/>
  </g>
</svg>
