<svg xmlns="http://www.w3.org/2000/svg" xmlns:xlink="http://www.w3.org/1999/xlink" width="103.425" height="144.18" viewBox="0 0 103.425 144.18">
  <defs>
    <linearGradient id="linear-gradient" x1="0.5" x2="0.5" y2="1" gradientUnits="objectBoundingBox">
      <stop offset="0.23" stop-color="#fadb5d"/>
      <stop offset="0.97" stop-color="#f08e28"/>
    </linearGradient>
  </defs>
  <g id="Group_4403" data-name="Group 4403" transform="translate(-1073.425 -1079.858)">
    <path id="Path_5317" data-name="Path 5317" d="M254.462,625.2c-1.049-.1-2.225-.191-3.4-.254A1.954,1.954,0,0,1,249.44,624a2.112,2.112,0,0,0-1.97-1.017,2.815,2.815,0,0,1-2.415-1.176,4.846,4.846,0,0,0-.7-.7.953.953,0,0,0-1.3-.127c-1.208,1.112-2.638.922-4.068.731-1.017-.127-1.97-.254-2.225-1.494-.1-.381-.509-.572-.858-.795-.413-.254-.826-.54-.731-1.112a1.147,1.147,0,0,1,.953-.953c.636-.191,1.271-.318,1.875-.509.286-.1.826-.159.731-.508s-.54-.127-.858-.064a9.2,9.2,0,0,1-1.621.35c-.35,0-.667-.064-.763-.445a.56.56,0,0,1,.477-.731c1.208-.191,1.43-.763,1.176-1.939-.222-1.049.636-1.907,1.049-2.829,1.4-3.21,4.036-5.467,6.166-8.136a49.123,49.123,0,0,1,3.274-4.386c.953-.953,1.875-1.875,3.369-1.875a2.535,2.535,0,0,0,1.367-.6c.826-.6,1.621-1.3,2.479-1.843,3.083-1.939,5.339-4.863,8.263-6.96.985-.7,1.907-1.462,2.829-2.225a15.57,15.57,0,0,0,4.926-8.613c.254-1.017.508-2.034.763-3.083a1.88,1.88,0,0,1,1.081-1.271,6.531,6.531,0,0,0,3.75-5.753v-.159c-.54-3.305,1.494-5.212,3.846-6.9a4.7,4.7,0,0,1,1.684-.858,2.092,2.092,0,0,1,1.462.1c.222.127.636.159.572.477-.032.254-.413.222-.636.254a.992.992,0,0,0-.985,1.176.966.966,0,0,0,.667.985c.222.1.477.159.7.254a1.675,1.675,0,0,1,1.24,2.1c-.1.731-.254,1.43.381,2.066.413.413.795.54,1.3.127a11.523,11.523,0,0,1,3.369-1.812c1.3-.477,1.748-.127,1.589,1.239-.127.953,0,1.049.953.922.636-.1,1.3-.127,1.939-.159.223,0,.477,0,.572.254s-.1.413-.222.6c0,.032-.032.032-.064.064-1.589,1.144-1.335,1.812-.381,3.337a2.216,2.216,0,0,1-.254,3.019c-1.112,1.367-1.748,3.051-2.924,4.386a23.594,23.594,0,0,0-3.337,4.99,8.85,8.85,0,0,1-3.877,3.973,1.412,1.412,0,0,0-.795,1.4,15.36,15.36,0,0,1-.1,2.415.8.8,0,0,0,.509.953,7.346,7.346,0,0,1,2.511,1.653c.223.254.54.508.413.922-.127.381-.509.477-.826.54a14.048,14.048,0,0,1-3.814.191c-2.892-.159-5.085,1.24-7.246,2.86-.286.222-.54.445-.826.667a6.426,6.426,0,0,0-2.479,4.322,18.085,18.085,0,0,1-1.843,6.1,5.273,5.273,0,0,0-.477,1.748,7.563,7.563,0,0,1-1.176,2.924.87.87,0,0,0,.159,1.24c.826.795.795,1.112-.1,1.875a1.312,1.312,0,0,1-.413.318c-2.574,1.144-3.941,3.528-5.53,5.594a8.16,8.16,0,0,1-4.227,2.8A21.239,21.239,0,0,1,254.462,625.2Z" transform="translate(838.767 598.334)" stroke="#000" stroke-width="1" fill="url(#linear-gradient)"/>
    <path id="Path_5318" data-name="Path 5318" d="M386.708,344.971c.509-.667.381-1.144-.032-1.462a3.217,3.217,0,0,0-3.083-.763c-.6.191-1.081.1-1.176-.509-.35-1.97-1.684-3.4-2.765-4.926-1.271-1.843-2.956-3.369-4.132-5.276a3.025,3.025,0,0,0-.667-.6,4.046,4.046,0,0,1-1.526-3.877,3.526,3.526,0,0,0-.6-2.574,42.314,42.314,0,0,0-3.4-4.1c-.318-.413-.858-.795-.636-1.335.254-.572.922-.413,1.43-.445h.54c1.176,0,1.176,0,1.335,1.176a2.531,2.531,0,0,0,.7,1.462,12.475,12.475,0,0,1,1.589,1.812c.222.381.636.381,1.017.381.667,0,1.24.1,1.4.922a.69.69,0,0,0,.858.572,3.433,3.433,0,0,1,2.034.35c.826.318,1.621.7,2.415,1.081a2.086,2.086,0,0,1,1.208,1.367,1.26,1.26,0,0,0,1.716.953.9.9,0,0,1,.985.381,6.271,6.271,0,0,1,1.208,1.907,18.187,18.187,0,0,1,1.4,3.719c.1.381.318.826.032,1.144-.35.35-.667-.159-1.049-.127-.191.191,0,.381.064.54a20.689,20.689,0,0,0,2.956,4.608,1.207,1.207,0,0,1,.254,1.4,8.887,8.887,0,0,0-.35,3.877,1.843,1.843,0,0,0,1.271,1.716,15.857,15.857,0,0,0,2.892,1.081,1.962,1.962,0,0,1,1.526,1.4,11.6,11.6,0,0,0,.445,1.112.462.462,0,0,0,.54.318.45.45,0,0,0,.35-.508c-.159-2.415.127-4.894-1.271-7.087-.35-.572-.127-.953.508-1.081a1.665,1.665,0,0,1,1.748.922,2.7,2.7,0,0,1,.286.7c.413,1.239.413,1.271,1.684,1.112.509-.064.636.254.667.6.127,3.146,1.3,6.134,1.716,9.217v.064c.509,2.415.731,2.638,3.115,3.051a30.777,30.777,0,0,1,6.07,1.716c.985.381,2,.667,3.019.953a2.945,2.945,0,0,0,2.892-.6c1.367-1.176,2.8-2.288,4.163-3.464a3.128,3.128,0,0,1,3.369-.6,7.778,7.778,0,0,1,2.924,1.621.621.621,0,0,1,.191.858,25.134,25.134,0,0,0-2.257,7.532,4.778,4.778,0,0,1-3.083,3.973c-.7.254-.795.858-.795,1.462-.032,1.017,0,2-.032,3.019a2.263,2.263,0,0,1-.7,1.843c-.54.413-.89.286-1.017-.35-.254-1.367-.6-1.653-2-1.685a7.425,7.425,0,0,0-6.293,2.956,2.114,2.114,0,0,0,0,2.892,6.671,6.671,0,0,0,.445.54,1.3,1.3,0,0,1,.191,1.684,15.039,15.039,0,0,0-.795,2.1,18.917,18.917,0,0,1-1.716,3.274,8.521,8.521,0,0,0-1.24,2.733,2.139,2.139,0,0,1-.985,1.3,6.2,6.2,0,0,0-2.1,2.511,30.554,30.554,0,0,1-6.134,7.977,10.391,10.391,0,0,1-3.21,2.1,1.555,1.555,0,0,1-2.288-1.081c-.381-1.081-.381-1.112-1.589-1.081a1.107,1.107,0,0,1-1.176-.636c-.159-.381-.35-.445-.7-.286a3.839,3.839,0,0,1-.572.159c-.6.064-.826-.191-.572-.763a10.157,10.157,0,0,1,1.494-2.352,16.526,16.526,0,0,0,3.528-7.405,6.606,6.606,0,0,0-2.574-6.738,4.1,4.1,0,0,0-1.494-.731,9.2,9.2,0,0,1-3.814-1.907,7.8,7.8,0,0,0-2.765-1.494,6.213,6.213,0,0,1-2.892-1.843,1.688,1.688,0,0,1-.064-2.67,7.753,7.753,0,0,1,4.99-2.829,1.9,1.9,0,0,0,1.335-.795,6.712,6.712,0,0,0,1.462-3.877,18.857,18.857,0,0,1,1.144-5.594,4.654,4.654,0,0,0,.222-1.621,3.2,3.2,0,0,1,.413-1.716,2.054,2.054,0,0,0,.1-1.621,16.741,16.741,0,0,0-.6-1.78,4.228,4.228,0,0,1-.381-1.748,3.1,3.1,0,0,0-.572-1.589,9.68,9.68,0,0,1-.667-1.271c-.35-.922-.191-1.3.667-1.748.127-.064.286-.1.318-.286.032-.223-.159-.318-.318-.381-2.86-1.049-3.56-3.909-5.022-6.1a.483.483,0,0,1-.032-.636.64.64,0,0,1,.7-.127A2.465,2.465,0,0,1,386.708,344.971Z" transform="translate(747.71 761.258)" stroke="#000" stroke-width="1" fill="url(#linear-gradient)"/>
  </g>
</svg>
