<svg xmlns="http://www.w3.org/2000/svg" xmlns:xlink="http://www.w3.org/1999/xlink" width="162.111" height="149.124" viewBox="0 0 162.111 149.124">
  <defs>
    <linearGradient id="linear-gradient" x1="0.5" x2="0.5" y2="1" gradientUnits="objectBoundingBox">
      <stop offset="0" stop-color="#3e569c"/>
      <stop offset="1" stop-color="#3fb1e5"/>
    </linearGradient>
    <linearGradient id="linear-gradient-2" x1="0.5" x2="0.5" y2="1" gradientUnits="objectBoundingBox">
      <stop offset="0.23" stop-color="#fadb5d"/>
      <stop offset="0.97" stop-color="#f08e28"/>
    </linearGradient>
    <linearGradient id="linear-gradient-4" x1="0.5" x2="0.5" y2="1" gradientUnits="objectBoundingBox">
      <stop offset="0.166" stop-color="#ff7878"/>
      <stop offset="0.78" stop-color="#eb5959"/>
    </linearGradient>
  </defs>
  <g id="Group_4133" data-name="Group 4133" transform="translate(0.501 0.5)">
    <g id="Group_3978" data-name="Group 3978" transform="translate(-0.001 0)">
      <g id="Group_153" data-name="Group 153" transform="translate(12.376 18.864)">
        <path id="Path_716" data-name="Path 716" d="M299.734,34v88.53c-.649-.237-1.3-.458-1.966-.679-1.135-.373-2.262-.71-3.4-1.035-.663-.193-1.345-.37-2.013-.533-.428-.116-.859-.221-1.3-.326-.8-.193-1.6-.367-2.38-.53-.6-.133-1.226-.251-1.847-.37s-1.243-.237-1.85-.326c-.621-.1-1.24-.2-1.847-.279-.618-.1-1.24-.179-1.847-.254-1.27-.163-2.557-.3-3.827-.411-1.1-.091-2.173-.163-3.269-.226-1.328-.069-2.643-.113-3.957-.13-29.908-.489-59.824,10.689-89.729,10.2-3.28-.061-6.58-.251-9.858-.621-.621-.072-1.259-.149-1.894-.221-.723-.1-1.447-.207-2.173-.315-.607-.1-1.212-.2-1.834-.307-.649-.119-1.3-.237-1.949-.37-.665-.133-1.314-.282-1.966-.428s-1.345-.3-2.01-.475c-.533-.133-1.066-.265-1.582-.414-1.138-.3-2.278-.635-3.413-1.005-.947-.3-1.88-.6-2.825-.944V34c.944.34,1.878.652,2.825.947.9.3,1.8.563,2.7.815.237.055.472.133.71.191.516.149,1.049.279,1.582.414q2.108.53,4.211.931c.577.121,1.154.237,1.715.326.608.119,1.226.221,1.834.309,1.08.166,2.143.312,3.222.445.489.058.978.116,1.477.163q4.614.485,9.226.547c29.9.489,59.821-10.672,89.729-10.186,1.314.019,2.629.061,3.957.135,1.08.058,2.173.133,3.269.221.87.072,1.759.163,2.632.265.621.077,1.256.149,1.892.221.723.1,1.447.207,2.159.312.6.1,1.226.207,1.834.309.663.119,1.314.237,1.963.373,1.314.265,2.632.558,3.932.886.55.133,1.1.279,1.626.428C295.581,32.612,297.649,33.264,299.734,34Z" transform="translate(-150.999 -28.885)" stroke="#000" stroke-width="1" fill="url(#linear-gradient)"/>
      </g>
      <g id="Group_154" data-name="Group 154" transform="translate(12.376 23.979)" opacity="0.2">
        <path id="Path_720" data-name="Path 720" d="M153.824,31.685v88.528c-.947-.3-1.88-.6-2.825-.944V30.738C151.943,31.078,152.877,31.39,153.824,31.685Z" transform="translate(-150.999 -30.738)" stroke="#000" stroke-width="1"/>
      </g>
      <g id="Group_155" data-name="Group 155" transform="translate(4.758 8.655)">
        <rect id="Rectangle_281" data-name="Rectangle 281" width="7.836" height="139.468" stroke="#000" stroke-width="1" fill="url(#linear-gradient-2)"/>
      </g>
      <path id="Path_721" data-name="Path 721" d="M156.077,25.189V35.527a8.646,8.646,0,0,1-7.837,0V25.189Z" transform="translate(-143.482 -16.532)" stroke="#000" stroke-width="1" opacity="0.2"/>
      <path id="Path_722" data-name="Path 722" d="M163.85,30.719a8.666,8.666,0,1,1-8.665-8.665A8.668,8.668,0,0,1,163.85,30.719Z" transform="translate(-146.517 -22.054)" stroke="#000" stroke-width="1" fill="url(#linear-gradient-2)"/>
    </g>
    <path id="Path_4836" data-name="Path 4836" d="M223.392,255.293l.189-.213c-.063.072-.127.142-.191.213Z" transform="translate(-158.486 -189.674)" fill="#f0f0f0" stroke="#000" stroke-width="1"/>
    <path id="Path_4837" data-name="Path 4837" d="M58.469,86.666l1.079,5.9L49.042,98.4H59.548v13.807H45.8l13.748,7.638v5.307H53.342l-17.1-9.5v9.5H23.3v-11.3l-20.337,11.3H0v-7.107l10.506-5.838H0V98.4H13.748L0,90.761v-5.3l.222-1.1L23.3,94.953V88.864H36.247v7.891l18.89-9.619Z" transform="translate(12.94 -59.535)" fill="#f0f0f0" stroke="#000" stroke-width="1"/>
    <path id="Path_4838" data-name="Path 4838" d="M33.823,88.3H26.348l-.3,12.783H0v7.444H26.052v16.128H33.5V108.524H59.548V101.08H33.5Z" transform="translate(12.94 -59.032)" stroke="#000" stroke-width="1" fill="url(#linear-gradient-4)"/>
    <path id="Path_4839" data-name="Path 4839" d="M155.826,200.344l23.3,12.945v-3.661l-16.712-9.285Z" transform="translate(-106.64 -147.67)" fill="#0052b4" stroke="#000" stroke-width="1"/>
    <path id="Path_4840" data-name="Path 4840" d="M155.826,200.344l23.3,12.945v-3.661l-16.712-9.285Z" transform="translate(-106.64 -147.67)" fill="#f0f0f0" stroke="#000" stroke-width="1"/>
    <path id="Path_4841" data-name="Path 4841" d="M155.826,200.344l23.3,12.945v-3.661l-16.712-9.285Z" transform="translate(-106.64 -147.67)" stroke="#000" stroke-width="1" fill="url(#linear-gradient-4)"/>
    <path id="Path_4842" data-name="Path 4842" d="M16.712,200.344,0,209.629v3.661H0l23.3-12.945Z" transform="translate(12.94 -147.67)" stroke="#000" stroke-width="1" fill="url(#linear-gradient-4)"/>
    <path id="Path_4843" data-name="Path 4843" d="M23.3,98.275,0,85.33v3.661l16.712,9.285Z" transform="translate(12.94 -59.409)" fill="#0052b4" stroke="#000" stroke-width="1"/>
    <path id="Path_4844" data-name="Path 4844" d="M23.3,98.275,0,85.33v3.661l16.712,9.285Z" transform="translate(12.94 -59.409)" fill="#f0f0f0" stroke="#000" stroke-width="1"/>
    <path id="Path_4845" data-name="Path 4845" d="M23.3,98.275,0,85.33v3.661l16.712,9.285Z" transform="translate(12.94 -59.409)" stroke="#000" stroke-width="1" fill="url(#linear-gradient-4)"/>
    <path id="Path_4846" data-name="Path 4846" d="M162.415,98.134,178.61,89.24l-.561-2.8h-.222l-22,11.69Z" transform="translate(-106.64 -59.268)" stroke="#000" stroke-width="1" fill="url(#linear-gradient-4)"/>
    <path id="Path_4870" data-name="Path 4870" d="M372.619,340.2a.506.506,0,0,1-.289-.092l-2.94-2.1-2.94,2.1a.505.505,0,0,1-.289.092.5.5,0,0,1-.474-.648l1.09-3.445-2.906-2.144a.5.5,0,0,1,.291-.9l3.613-.029,1.143-3.428a.5.5,0,0,1,.944,0l1.143,3.428,3.613.029a.5.5,0,0,1,.291.9L372,336.107l1.09,3.445a.5.5,0,0,1-.182.553A.506.506,0,0,1,372.619,340.2Z" transform="translate(-256.083 -249.859)" stroke="#000" stroke-width="0.5" fill="url(#linear-gradient-4)"/>
    <path id="Path_4871" data-name="Path 4871" d="M368.122,328.5l1.255,3.764,3.968.031-3.192,2.357,1.2,3.783-3.228-2.307-3.228,2.308,1.2-3.783-3.192-2.357,3.968-.031,1.256-3.765m0-.994a.994.994,0,0,0-.943.679l-1.031,3.091-3.258.025a.994.994,0,0,0-.583,1.793l2.621,1.935-.983,3.106a.994.994,0,0,0,1.525,1.108l2.651-1.895,2.651,1.895a.993.993,0,0,0,1.525-1.108l-.983-3.106,2.621-1.935a.994.994,0,0,0-.583-1.793l-3.258-.025-1.031-3.091a1,1,0,0,0-.943-.679Z" transform="translate(-254.817 -248.59)" fill="#f5f5f5" stroke="#000" stroke-width="0.5"/>
    <path id="Path_4872" data-name="Path 4872" d="M372.619,197.88a.5.5,0,0,1-.289-.092l-2.94-2.1-2.94,2.1a.505.505,0,0,1-.289.092.5.5,0,0,1-.474-.648l1.09-3.445-2.906-2.147a.5.5,0,0,1,.291-.9l3.613-.027,1.143-3.428a.5.5,0,0,1,.944,0l1.143,3.428,3.613.027a.5.5,0,0,1,.291.9L372,193.788l1.09,3.445a.5.5,0,0,1-.182.553A.505.505,0,0,1,372.619,197.88Z" transform="translate(-256.083 -147.586)" stroke="#000" stroke-width="0.5" fill="url(#linear-gradient-4)"/>
    <path id="Path_4873" data-name="Path 4873" d="M368.122,186.177l1.255,3.764,3.968.031-3.192,2.357,1.2,3.784-3.228-2.308-3.228,2.308,1.2-3.784-3.192-2.357,3.968-.031,1.256-3.764m0-.994a.994.994,0,0,0-.943.679l-1.031,3.091-3.258.025a.994.994,0,0,0-.583,1.793l2.621,1.935-.983,3.106a.994.994,0,0,0,1.525,1.108l2.651-1.895,2.651,1.895a.993.993,0,0,0,1.525-1.108l-.983-3.106,2.621-1.935a.994.994,0,0,0-.583-1.793l-3.258-.025-1.031-3.091a.994.994,0,0,0-.943-.679Z" transform="translate(-254.817 -146.317)" fill="#f5f5f5" stroke="#000" stroke-width="0.5"/>
    <path id="Path_4874" data-name="Path 4874" d="M434.413,242.017a.5.5,0,0,1-.289-.092l-2.94-2.1-2.94,2.1a.5.5,0,0,1-.289.092.5.5,0,0,1-.474-.648l1.09-3.445-2.906-2.147a.5.5,0,0,1,.291-.9l3.613-.027,1.143-3.428a.5.5,0,0,1,.944,0l1.143,3.428,3.613.027a.5.5,0,0,1,.291.9l-2.906,2.147,1.09,3.445a.5.5,0,0,1-.182.553A.507.507,0,0,1,434.413,242.017Z" transform="translate(-300.491 -179.304)" stroke="#000" stroke-width="0.5" fill="url(#linear-gradient-4)"/>
    <path id="Path_4875" data-name="Path 4875" d="M429.915,230.315l1.255,3.764,3.968.031-3.192,2.357,1.2,3.784-3.228-2.308-3.228,2.308,1.2-3.783-3.192-2.357,3.968-.031,1.256-3.765m0-.994a.994.994,0,0,0-.943.679l-1.031,3.091-3.258.025a.994.994,0,0,0-.583,1.793l2.621,1.935-.983,3.106a.993.993,0,0,0,1.525,1.108l2.651-1.895,2.651,1.895a.994.994,0,0,0,1.525-1.108l-.983-3.106,2.621-1.935a.994.994,0,0,0-.583-1.793l-3.258-.025L430.858,230a.994.994,0,0,0-.943-.679Z" transform="translate(-299.221 -178.036)" fill="#f5f5f5" stroke="#000" stroke-width="0.5"/>
    <path id="Path_4876" data-name="Path 4876" d="M310.826,259.672a.5.5,0,0,1-.289-.092l-2.94-2.1-2.94,2.1a.5.5,0,0,1-.289.092.5.5,0,0,1-.474-.648l1.09-3.445-2.906-2.147a.5.5,0,0,1,.291-.9l3.613-.027,1.143-3.428a.5.5,0,0,1,.944,0l1.143,3.428,3.613.027a.5.5,0,0,1,.291.9l-2.906,2.147,1.09,3.445a.5.5,0,0,1-.182.553A.506.506,0,0,1,310.826,259.672Z" transform="translate(-211.681 -191.99)" stroke="#000" stroke-width="0.5" fill="url(#linear-gradient-4)"/>
    <path id="Path_4877" data-name="Path 4877" d="M306.329,247.97l1.255,3.764,3.968.031-3.192,2.357,1.2,3.784-3.228-2.308-3.228,2.308,1.2-3.784-3.192-2.357,3.968-.031,1.256-3.764m0-.994a.994.994,0,0,0-.943.679l-1.031,3.091-3.258.025a.994.994,0,0,0-.583,1.793l2.621,1.935-.983,3.106a.994.994,0,0,0,1.525,1.108l2.651-1.895,2.651,1.895a.993.993,0,0,0,1.525-1.108l-.983-3.106,2.621-1.935a.994.994,0,0,0-.583-1.793l-3.258-.025-1.031-3.091a.994.994,0,0,0-.943-.679Z" transform="translate(-210.411 -190.722)" fill="#f5f5f5" stroke="#000" stroke-width="0.5"/>
  </g>
</svg>
