<svg xmlns="http://www.w3.org/2000/svg" xmlns:xlink="http://www.w3.org/1999/xlink" width="129.6" height="91.131" viewBox="0 0 129.6 91.131">
  <defs>
    <linearGradient id="linear-gradient" x1="0.5" x2="0.5" y2="1" gradientUnits="objectBoundingBox">
      <stop offset="0" stop-color="#fff"/>
      <stop offset="1" stop-color="#e6e6e6"/>
    </linearGradient>
    <linearGradient id="linear-gradient-7" x1="0.5" x2="0.5" y2="1" gradientUnits="objectBoundingBox">
      <stop offset="0" stop-color="#fff"/>
      <stop offset="1" stop-color="#f9f9f9"/>
    </linearGradient>
    <linearGradient id="linear-gradient-8" x1="0.5" x2="0.5" y2="1" gradientUnits="objectBoundingBox">
      <stop offset="0.106" stop-color="#00bacf"/>
      <stop offset="0.809" stop-color="#008db0"/>
    </linearGradient>
    <linearGradient id="linear-gradient-18" x1="0.5" x2="0.5" y2="1" gradientUnits="objectBoundingBox">
      <stop offset="0.092" stop-color="#ffbd8a"/>
      <stop offset="0.844" stop-color="#f09a59"/>
    </linearGradient>
    <linearGradient id="linear-gradient-21" x1="0.5" x2="0.5" y2="1" gradientUnits="objectBoundingBox">
      <stop offset="0" stop-color="#827b7b"/>
      <stop offset="1"/>
    </linearGradient>
  </defs>
  <g id="Group_4390" data-name="Group 4390" transform="translate(-18110.5 5147)">
    <g id="Group_4377" data-name="Group 4377" transform="translate(18120.662 -5129.551)">
      <path id="Path_19" data-name="Path 19" d="M404.143,529.3h9.007s-.161,2.012-.146,2.853l-8.392,5.045Z" transform="translate(-305.4 -509.483)" stroke="#1d293a" stroke-linecap="round" stroke-linejoin="round" stroke-width="1" fill="url(#linear-gradient)"/>
      <path id="Path_20" data-name="Path 20" d="M407.026,536.763a116.986,116.986,0,0,1,17.815-1.7s-8.731,10.291-11.35,16.447l-2.126.509Z" transform="translate(-307.164 -513.026)" stroke="#1d293a" stroke-linecap="round" stroke-linejoin="round" stroke-width="1" fill="url(#linear-gradient)"/>
      <path id="Path_21" data-name="Path 21" d="M393.46,529.3l5.546,19.506-12.321,2.385,2.619-19.944Z" transform="translate(-294.717 -509.497)" stroke="#1d293a" stroke-linecap="round" stroke-linejoin="round" stroke-width="1" fill="url(#linear-gradient)"/>
      <path id="Path_22" data-name="Path 22" d="M376.671,516.957s3.2-2.713,10.086-3.392c0,0-7.567,19.9-9.022,28l-1.229.946-4.447-7.793Z" transform="translate(-285.767 -499.864)" stroke="#1d293a" stroke-linecap="round" stroke-linejoin="round" stroke-width="1" fill="url(#linear-gradient)"/>
      <path id="Path_23" data-name="Path 23" d="M362.484,509.786a26.436,26.436,0,0,1,6.749-1.471l-1.423,26.79-8.376-19.417Z" transform="translate(-278.041 -496.642)" stroke="#1d293a" stroke-linecap="round" stroke-linejoin="round" stroke-width="1" fill="url(#linear-gradient)"/>
      <path id="Path_24" data-name="Path 24" d="M263.187,503.367a47.75,47.75,0,0,1,33.76-25.219,61.594,61.594,0,0,0-1.035,8.8l-20.7,23.817Z" transform="translate(-219.143 -478.148)" stroke="#1d293a" stroke-linecap="round" stroke-linejoin="round" stroke-width="1" fill="url(#linear-gradient)"/>
      <path id="Path_25" data-name="Path 25" d="M181.686,530.658s29.815-8.637,43.138,23.6h-29.75Z" transform="translate(-169.268 -509.691)" stroke="#1d293a" stroke-linecap="round" stroke-linejoin="round" stroke-width="1" fill="url(#linear-gradient-7)"/>
      <path id="Path_26" data-name="Path 26" d="M181.686,532.315l7.179,23.6h7.858S189.641,539.688,181.686,532.315Z" transform="translate(-169.268 -511.35)" stroke="#1d293a" stroke-linecap="round" stroke-linejoin="round" stroke-width="1" fill="url(#linear-gradient-8)"/>
      <path id="Path_27" data-name="Path 27" d="M235.249,562l-9.313-19.045s16.1-3.007,25.417,3.4Z" transform="translate(-196.347 -517.43)" stroke="#1d293a" stroke-linecap="round" stroke-linejoin="round" stroke-width="1" fill="url(#linear-gradient)"/>
      <path id="Path_28" data-name="Path 28" d="M254.42,575.238l-4.484,4.659h34.149l-9.872-8.4Z" transform="translate(-211.034 -535.338)" stroke="#1d293a" stroke-linecap="round" stroke-linejoin="round" stroke-width="1" fill="url(#linear-gradient-8)"/>
      <path id="Path_29" data-name="Path 29" d="M291.436,552.815l11.642,10.574-11.092,2.134Z" transform="translate(-236.43 -523.897)" stroke="#1d293a" stroke-linecap="round" stroke-linejoin="round" stroke-width="1" fill="url(#linear-gradient)"/>
      <path id="Path_30" data-name="Path 30" d="M273.644,565.523,261.491,563.8l11.62-10.99Z" transform="translate(-218.105 -523.897)" stroke="#1d293a" stroke-linecap="round" stroke-linejoin="round" stroke-width="1" fill="url(#linear-gradient)"/>
      <path id="Path_31" data-name="Path 31" d="M291.436,511.2l18.044,15.649h2.813a175.854,175.854,0,0,1,13-42.037A59.14,59.14,0,0,0,291.436,511.2Z" transform="translate(-236.43 -482.228)" stroke="#1d293a" stroke-linecap="round" stroke-linejoin="round" stroke-width="1" fill="url(#linear-gradient)"/>
      <path id="Path_32" data-name="Path 32" d="M352.347,522.305l2.022.974-7.244,26.515h-1.94S349.549,529.833,352.347,522.305Z" transform="translate(-269.321 -505.22)" stroke="#1d293a" stroke-linecap="round" stroke-linejoin="round" stroke-width="1" fill="url(#linear-gradient)"/>
      <path id="Path_33" data-name="Path 33" d="M357.43,524.815l5.691,24.577-12.935,1.938Z" transform="translate(-272.381 -506.757)" stroke="#1d293a" stroke-linecap="round" stroke-linejoin="round" stroke-width="1" fill="url(#linear-gradient)"/>
      <path id="Path_34" data-name="Path 34" d="M351.5,578.975l10.654-1.621.97,4.189-12.935,1.938Z" transform="translate(-272.381 -538.922)" stroke="#1d293a" stroke-linecap="round" stroke-linejoin="round" stroke-width="1" fill="url(#linear-gradient-8)"/>
      <path id="Path_35" data-name="Path 35" d="M387.608,571.635l10.254-2.446,1.056,3.714-12.232,2.7Z" transform="translate(-294.717 -533.921)" stroke="#1d293a" stroke-linecap="round" stroke-linejoin="round" stroke-width="1" fill="url(#linear-gradient-8)"/>
      <path id="Path_36" data-name="Path 36" d="M257.888,580.476l-1.876-3.026-28.393,6.09H169.283l-19.6,6.5v5.821H265.52V580.476Z" transform="translate(-149.686 -539.001)" stroke="#1d293a" stroke-linecap="round" stroke-linejoin="round" stroke-width="1" fill="url(#linear-gradient-18)"/>
      <path id="Path_37" data-name="Path 37" d="M415.032,592.065H409.5l-20.567,9.216V604.8h26.1Z" transform="translate(-296.094 -547.945)" stroke="#1d293a" stroke-linecap="round" stroke-linejoin="round" stroke-width="1" fill="url(#linear-gradient-18)"/>
      <rect id="Rectangle_37" data-name="Rectangle 37" width="92.841" height="3.329" transform="translate(0 53.53)" fill="url(#linear-gradient-18)" stroke-linecap="round" stroke-linejoin="round" stroke-width="1" stroke="#1d293a"/>
      <line id="Line_16" data-name="Line 16" x2="33.528" transform="translate(56.809 47.653)" fill="none" stroke="#1d293a" stroke-linecap="round" stroke-linejoin="round" stroke-width="1"/>
      <line id="Line_17" data-name="Line 17" x2="4.51" transform="translate(92.428 47.653)" fill="none" stroke="#1d293a" stroke-linecap="round" stroke-linejoin="round" stroke-width="1"/>
      <path id="Path_38" data-name="Path 38" d="M367.66,596.819l1.708-2.287h1.822" transform="translate(-283.075 -549.44)" fill="none" stroke="#1d293a" stroke-linecap="round" stroke-linejoin="round" stroke-width="1"/>
      <path id="Path_39" data-name="Path 39" d="M390.4,596.819l1.275-2.287h2.255" transform="translate(-296.988 -549.44)" fill="none" stroke="#1d293a" stroke-linecap="round" stroke-linejoin="round" stroke-width="1"/>
      <path id="Path_40" data-name="Path 40" d="M204.186,597.983v1.746h14.875" transform="translate(-183.037 -551.567)" fill="none" stroke="#1d293a" stroke-linecap="round" stroke-linejoin="round" stroke-width="1"/>
      <line id="Line_18" data-name="Line 18" x2="12.03" transform="translate(25.029 51.525)" fill="none" stroke="#1d293a" stroke-linecap="round" stroke-linejoin="round" stroke-width="1"/>
      <line id="Line_19" data-name="Line 19" x2="8.731" transform="translate(10.93 51.525)" fill="none" stroke="#1d293a" stroke-linecap="round" stroke-linejoin="round" stroke-width="1"/>
      <line id="Line_20" data-name="Line 20" y1="1.628" x2="8.408" transform="translate(80.456 40.477)" fill="none" stroke="#1d293a" stroke-linecap="round" stroke-linejoin="round" stroke-width="1"/>
      <line id="Line_21" data-name="Line 21" y1="1.629" x2="8.408" transform="translate(93.925 37.623)" fill="none" stroke="#1d293a" stroke-linecap="round" stroke-linejoin="round" stroke-width="1"/>
      <line id="Line_22" data-name="Line 22" x2="0.017" y2="3.339" transform="translate(55.539 41.218)" fill="none" stroke="#1d293a" stroke-linecap="round" stroke-linejoin="round" stroke-width="1"/>
    </g>
    <g id="Group_4375" data-name="Group 4375" transform="translate(18111 -5147)">
      <path id="Path_4997" data-name="Path 4997" d="M119.354,218.492l-19.367.131A29.45,29.45,0,0,0,80.422,246.36V270.9h58.883V246.36a29.446,29.446,0,0,0-19.952-27.868Zm0,0" transform="translate(-80.422 -180.265)" stroke="#000" stroke-width="1" fill="url(#linear-gradient-21)"/>
      <path id="Path_5516" data-name="Path 5516" d="M18147.668-5110.833l10.869,10.869,8.646-10.869Z" transform="translate(-18128.154 5149.643)" fill="#fff" stroke="#000" stroke-width="1"/>
      <path id="Path_5003" data-name="Path 5003" d="M125.112,187.155a14.721,14.721,0,0,1-14.722-14.722v-7.36a14.721,14.721,0,1,1,29.442,0v7.36A14.721,14.721,0,0,1,125.112,187.155Zm0,0" transform="translate(-95.671 -145.593)" stroke="#000" stroke-width="1" fill="url(#linear-gradient-18)"/>
      <g id="Rectangle_1125" data-name="Rectangle 1125" transform="translate(14.636 2.661)" fill="#444" stroke="#000" stroke-width="1">
        <rect width="29.274" height="13.306" stroke="none"/>
        <rect x="0.5" y="0.5" width="28.274" height="12.306" fill="none"/>
      </g>
      <g id="Rectangle_1126" data-name="Rectangle 1126" transform="translate(6.653)" fill="#444" stroke="#000" stroke-width="1">
        <rect width="45.241" height="3.992" stroke="none"/>
        <rect x="0.5" y="0.5" width="44.241" height="2.992" fill="none"/>
      </g>
      <rect id="Rectangle_1127" data-name="Rectangle 1127" width="13.306" height="1.331" transform="translate(49.233 2.661) rotate(90)"/>
      <g id="Ellipse_239" data-name="Ellipse 239" transform="translate(46.571 14.637)" fill="#fff" stroke="#000" stroke-width="1">
        <circle cx="1.996" cy="1.996" r="1.996" stroke="none"/>
        <circle cx="1.996" cy="1.996" r="1.496" fill="none"/>
      </g>
    </g>
  </g>
</svg>
