<svg xmlns="http://www.w3.org/2000/svg" xmlns:xlink="http://www.w3.org/1999/xlink" width="531.477" height="577.648" viewBox="0 0 531.477 577.648">
  <defs>
    <linearGradient id="linear-gradient" x1="0.5" x2="0.5" y2="1" gradientUnits="objectBoundingBox">
      <stop offset="0" stop-color="#fff"/>
      <stop offset="1" stop-color="#e6e6e6"/>
    </linearGradient>
  </defs>
  <g id="Group_4163" data-name="Group 4163" transform="translate(28.064 -890.867)">
    <g id="Group_3852" data-name="Group 3852" transform="translate(-27.564 972.756)">
      <g id="Group_115" data-name="Group 115" transform="translate(19.619 326.296)">
        <path id="Path_223" data-name="Path 223" d="M117.458,264.62l-4.966-2.119a144.783,144.783,0,0,1,6.958-13.56v11C118.867,261.3,119.315,260.261,117.458,264.62Z" transform="translate(-112.492 -248.941)" stroke="#000" stroke-width="1" fill="url(#linear-gradient)"/>
      </g>
      <g id="Group_116" data-name="Group 116" transform="translate(0 0)">
        <path id="Path_224" data-name="Path 224" d="M209.982,604.478c-3.1,0-6.321-.089-9.569-.267l.284-4.681a161.062,161.062,0,0,0,19.784-.1l.368,4.677C217.345,604.354,213.687,604.478,209.982,604.478Zm-29.84-2.411a139.368,139.368,0,0,1-19.891-4.615L161.833,593a134.015,134.015,0,0,0,19.14,4.44Zm60.97-.926-1.187-4.555a100.409,100.409,0,0,0,18.45-6.145l2.143,4.233A105.389,105.389,0,0,1,241.111,601.141Zm-99.632-11.727a73.575,73.575,0,0,1-16.168-12.245l3.643-3.194a68.541,68.541,0,0,0,15.088,11.417Zm136.54-5.035-3.1-3.663A84.161,84.161,0,0,0,288.67,567.68l3.9,2.917A88.806,88.806,0,0,1,278.019,584.379Zm-164.41-23.4a73.92,73.92,0,0,1-6.445-18.544l4.883-.905a69.352,69.352,0,0,0,6.047,17.412Zm190.042-6.726-4.432-2.132a111.02,111.02,0,0,0,7.438-17.189l4.743,1.426A115.477,115.477,0,0,1,303.651,554.256Zm-198.428-31.12v-.556a133,133,0,0,1,1.394-18.69l4.932.624A128.646,128.646,0,0,0,110.2,522.58v.523Zm211.05-5.488-4.9-.828a167.731,167.731,0,0,0,2.429-18.575l4.965.333A171.911,171.911,0,0,1,316.273,517.647ZM115.267,486.124l-4.835-1.109C111.984,479,113.893,472.8,116.1,466.6l4.721,1.492C118.656,474.168,116.787,480.233,115.267,486.124Zm199.058-6.635c-.1-6.079-.468-12.395-1.083-18.772l4.957-.422c.625,6.492,1,12.925,1.1,19.114Zm-3.541-37.448c-1.008-6.065-2.24-12.294-3.666-18.519l4.865-.99c1.446,6.311,2.7,12.63,3.715,18.784Zm-8.4-36.829c-1.722-5.978-3.641-12.057-5.709-18.068l4.733-1.447c2.093,6.081,4.036,12.236,5.778,18.289Zm-12.107-36.078c-2.031-6.03-3.92-12.205-5.612-18.354l4.815-1.18c1.672,6.07,3.536,12.165,5.542,18.113ZM280.1,332.168c-1.339-6.222-2.518-12.552-3.5-18.819l4.925-.685c.97,6.182,2.13,12.43,3.454,18.568Zm-5.91-37.792c-.62-6.367-1.05-12.787-1.277-19.074l4.975-.162c.224,6.2.647,12.529,1.257,18.807Zm3.618-38.067-4.975-.124c.182-6.447.585-12.873,1.2-19.1l4.955.434C278.385,243.644,277.987,249.964,277.808,256.309Zm3.743-37.434-4.91-.774c1.142-6.429,2.548-12.742,4.178-18.76l4.82,1.161C284.046,206.393,282.67,212.575,281.55,218.875Zm9.917-36.287-4.679-1.6a156.769,156.769,0,0,1,8.061-17.679l4.445,2.115A151.765,151.765,0,0,0,291.467,182.588Zm17.965-33.13-4.061-2.711a105.611,105.611,0,0,1,13.354-14.731l3.454,3.377A100.969,100.969,0,0,0,309.432,149.458Zm122.134-22.482a166.057,166.057,0,0,0-18.306-7.144l1.605-4.442a172.04,172.04,0,0,1,18.873,7.364Zm-93.931-2.782-2.551-4.029a84.258,84.258,0,0,1,18.953-7.793l1.394,4.5A79.241,79.241,0,0,0,337.635,124.194Zm56.535-8.976a100.66,100.66,0,0,0-19.538-1.248l-.2-4.686A106.52,106.52,0,0,1,395,110.591Z" transform="translate(-105.223 -109.219)" fill="#ffe087" stroke="#000" stroke-width="1"/>
      </g>
      <g id="Group_117" data-name="Group 117" transform="translate(345.525 26.484)">
        <path id="Path_225" data-name="Path 225" d="M252.536,129.4c-3-2.005-6.032-3.946-9-5.768l2.82-4.6c3.031,1.86,6.119,3.838,9.18,5.881Z" transform="translate(-243.535 -119.031)" stroke="#000" stroke-width="1" fill="url(#linear-gradient)"/>
      </g>
    </g>
    <g id="Group_4076" data-name="Group 4076" transform="translate(347.478 891.666) rotate(20)">
      <g id="Group_27" data-name="Group 27" transform="translate(0 0)">
        <path id="Path_87" data-name="Path 87" d="M0,78.7l.119,45.923L128.474,0Z" transform="translate(36.898 0)" fill="#97dfff" stroke="#000" stroke-width="1"/>
        <g id="Group_26" data-name="Group 26">
          <path id="Path_88" data-name="Path 88" d="M0,87.552l40.787,37.066L118.728,0Z" transform="translate(46.644 0)" fill="#fff" stroke="#000" stroke-width="1"/>
          <path id="Path_89" data-name="Path 89" d="M36.9,78.7,165.372,0,0,45.164Z" fill="#fff" stroke="#000" stroke-width="1"/>
        </g>
        <path id="Path_90" data-name="Path 90" d="M9.627,0,0,37.066,25.792,14.69Z" transform="translate(37.017 87.552)" fill="#4fb5ec" stroke="#000" stroke-width="1"/>
      </g>
    </g>
  </g>
</svg>
