<svg xmlns="http://www.w3.org/2000/svg" xmlns:xlink="http://www.w3.org/1999/xlink" width="841.111" height="774.413" viewBox="0 0 841.111 774.413">
  <defs>
    <linearGradient id="linear-gradient" x1="0.5" x2="0.5" y2="1" gradientUnits="objectBoundingBox">
      <stop offset="0.23" stop-color="#fadb5d"/>
      <stop offset="0.97" stop-color="#f08e28"/>
    </linearGradient>
    <linearGradient id="linear-gradient-2" x1="0.5" x2="0.5" y2="1" gradientUnits="objectBoundingBox">
      <stop offset="0" stop-color="#fff"/>
      <stop offset="1" stop-color="#e6e6e6"/>
    </linearGradient>
    <linearGradient id="linear-gradient-4" x1="0.521" y1="0.896" x2="0.517" y2="0.03" xlink:href="#linear-gradient-2"/>
    <linearGradient id="linear-gradient-7" y1="1" y2="0" xlink:href="#linear-gradient-2"/>
    <linearGradient id="linear-gradient-8" x1="0.5" x2="0.5" y2="1" gradientUnits="objectBoundingBox">
      <stop offset="0.106" stop-color="#00bacf"/>
      <stop offset="0.809" stop-color="#008db0"/>
    </linearGradient>
    <clipPath id="clip-path">
      <path id="Path_5366" data-name="Path 5366" d="M99.541-119.465q0,71.582,15.642,102.6T163.7,14.155q31.814,0,47.986-30.754t16.172-102.866q0-71.052-16.172-102.335T163.7-253.084q-31.814,0-47.986,30.754T99.541-119.465Z" transform="translate(-99.541 253.084)" stroke="#000" stroke-width="1" fill="url(#linear-gradient)"/>
    </clipPath>
    <linearGradient id="linear-gradient-9" x1="0.235" x2="0.098" y2="0.5" xlink:href="#linear-gradient"/>
    <clipPath id="clip-path-2">
      <path id="Path_5367" data-name="Path 5367" d="M16495.635,569.215l-87.062,56.227s-7.119,44.292,0,51.41,13.445,72.764,13.445,72.764l10.281,26.1s3.16,5.536,16.609,27.682,13.445,7.118,18.982,34.01,12.654,31.637,12.654,51.409-3.955,21.355,3.953,36.382,14.238,18.191,13.447,26.1,1.584,12.655,0,21.355-13.443,2.373,0,25.309,9.488,26.1,18.98,28.473a206.28,206.28,0,0,0,45.875,5.536c18.189,0,48.244,11.864,56.945,0s17.4-6.327,17.4-30.055,10.281-26.891,5.535-76.719-11.076-58.528-11.865-87.792-7.908-15.028,0-52.2,14.238-23.727,15.82-56.946,3.164-46.664,0-82.255,6.33-32.428-9.49-45.082-34.8-19.773-49.039-22.937-41.92-3.164-41.92-3.164Z" transform="translate(-16405.408 -569.215)" fill="none" stroke="#707070" stroke-width="1"/>
    </clipPath>
    <linearGradient id="linear-gradient-10" x1="0.5" x2="0.5" y2="1" gradientUnits="objectBoundingBox">
      <stop offset="0.092" stop-color="#ffbd8a"/>
      <stop offset="0.844" stop-color="#f09a59"/>
    </linearGradient>
    <linearGradient id="linear-gradient-11" x1="0.5" x2="0.5" y2="1" gradientUnits="objectBoundingBox">
      <stop offset="0" stop-color="#fdb883"/>
      <stop offset="1" stop-color="#f29e5f"/>
    </linearGradient>
    <linearGradient id="linear-gradient-12" x1="10.169" y1="-4.591" x2="9.274" y2="-4.591" gradientUnits="objectBoundingBox">
      <stop offset="0.166" stop-color="#ff7878"/>
      <stop offset="0.78" stop-color="#eb5959"/>
    </linearGradient>
    <linearGradient id="linear-gradient-14" x1="0.5" x2="0.5" y2="1" gradientUnits="objectBoundingBox">
      <stop offset="0" stop-color="#f9a654"/>
      <stop offset="1" stop-color="#f24a00"/>
    </linearGradient>
    <linearGradient id="linear-gradient-15" x1="0.5" y1="1" x2="0.5" y2="0" xlink:href="#linear-gradient-12"/>
    <linearGradient id="linear-gradient-17" y1="1" y2="0" xlink:href="#linear-gradient-8"/>
    <linearGradient id="linear-gradient-27" y1="1" y2="0" xlink:href="#linear-gradient"/>
    <linearGradient id="linear-gradient-37" x1="0.5" x2="0.5" y2="1" gradientUnits="objectBoundingBox">
      <stop offset="0" stop-color="#42444a"/>
      <stop offset="1" stop-color="#0d0e0f"/>
    </linearGradient>
  </defs>
  <g id="Group_4271" data-name="Group 4271" transform="translate(-553.183 -125.464)">
    <path id="Path_5378" data-name="Path 5378" d="M0,2.552.887,0A44.281,44.281,0,0,1,10.936,4.994l-1.5,2.245A41.654,41.654,0,0,0,0,2.552Zm23.679,20.18a51.535,51.535,0,0,0-6.265-8.584l2-1.816a54.54,54.54,0,0,1,6.6,9.031Z" transform="matrix(-0.921, 0.391, -0.391, -0.921, 967.677, 888.86)" stroke="#000" stroke-width="1" fill="url(#linear-gradient-2)"/>
    <g id="Group_4270" data-name="Group 4270">
      <path id="Path_5379" data-name="Path 5379" d="M0,2.552.887,0A44.281,44.281,0,0,1,10.936,4.994l-1.5,2.245A41.654,41.654,0,0,0,0,2.552Zm23.679,20.18a51.535,51.535,0,0,0-6.265-8.584l2-1.816a54.54,54.54,0,0,1,6.6,9.031Z" transform="translate(931.559 872.92) rotate(-149)" stroke="#000" stroke-width="1" fill="url(#linear-gradient-2)"/>
      <g id="Group_4269" data-name="Group 4269">
        <g id="Group_4263" data-name="Group 4263" transform="translate(42 -3.695)">
          <path id="Path_2807" data-name="Path 2807" d="M358.659,0C556.741,0,717.318,160.577,717.318,358.659S556.741,717.318,358.659,717.318,0,556.741,0,358.659,160.577,0,358.659,0Z" transform="translate(561.263 132.657)" fill="url(#linear-gradient-4)"/>
          <g id="Group_4262" data-name="Group 4262" transform="translate(511.683 130.07)">
            <g id="Group_4260" data-name="Group 4260">
              <g id="Group_4264" data-name="Group 4264" transform="translate(376.397 421.57) rotate(61)">
                <path id="Path_224" data-name="Path 224" d="M45.948,285.173c-1.683,0-3.43-.051-5.192-.154l.154-2.7a82.382,82.382,0,0,0,10.736-.058l.2,2.693C49.944,285.1,47.959,285.173,45.948,285.173Zm-16.193-1.388a71.969,71.969,0,0,1-10.794-2.658l.859-2.562a69.2,69.2,0,0,0,10.386,2.556Zm33.086-.533-.644-2.622a52.347,52.347,0,0,0,10.012-3.538l1.163,2.438A54.928,54.928,0,0,1,62.841,283.252ZM8.774,276.5A40.255,40.255,0,0,1,0,269.448l1.977-1.839a37.508,37.508,0,0,0,8.188,6.574Zm74.1-2.9-1.684-2.109a46.946,46.946,0,0,0,7.464-7.506l2.115,1.68A49.536,49.536,0,0,1,82.869,273.6Zm13.91-17.345-2.405-1.228a66.026,66.026,0,0,0,4.037-9.9l2.574.821A68.673,68.673,0,0,1,96.779,256.255Zm6.849-21.079-2.659-.477a102.182,102.182,0,0,0,1.318-10.7l2.694.192A104.693,104.693,0,0,1,103.628,235.176ZM102.571,213.2c-.055-3.5-.254-7.137-.587-10.809l2.69-.243c.339,3.738.542,7.442.6,11.006Zm-1.922-21.563c-.547-3.492-1.215-7.079-1.989-10.663l2.64-.57c.785,3.634,1.463,7.272,2.016,10.816ZM96.09,170.435c-.935-3.442-1.976-6.943-3.1-10.4l2.569-.833c1.136,3.5,2.191,7.045,3.136,10.531Zm-6.57-20.774c-1.1-3.472-2.127-7.028-3.045-10.569l2.613-.679c.908,3.495,1.919,7,3.008,10.43ZM84,128.375c-.727-3.583-1.367-7.228-1.9-10.836l2.673-.394c.527,3.56,1.156,7.157,1.874,10.691ZM80.79,106.614c-.336-3.666-.57-7.363-.693-10.983l2.7-.093c.122,3.571.351,7.214.682,10.829ZM82.754,84.7l-2.7-.072c.1-3.712.317-7.413.652-11l2.689.25C83.067,77.4,82.851,81.042,82.754,84.7Zm7.412-42.449-2.539-.922A93.026,93.026,0,0,1,92,31.145l2.412,1.218A90.055,90.055,0,0,0,90.166,42.246ZM99.915,23.17l-2.2-1.561a59.7,59.7,0,0,1,7.247-8.482l1.874,1.945A57.08,57.08,0,0,0,99.915,23.17Zm66.277-12.945a87.061,87.061,0,0,0-9.934-4.113l.871-2.558a90.2,90.2,0,0,1,10.242,4.24Zm-50.973-1.6L113.835,6.3A44.283,44.283,0,0,1,124.12,1.816l.756,2.592A41.655,41.655,0,0,0,115.22,8.623ZM145.9,3.455a51.538,51.538,0,0,0-10.6-.718l-.107-2.7a54.538,54.538,0,0,1,11.157.752Z" transform="translate(201.648 0) rotate(45)" stroke="#000" stroke-width="1" fill="url(#linear-gradient-2)"/>
              </g>
              <path id="Path_5374" data-name="Path 5374" d="M1.344,142.024,0,139.681a102.177,102.177,0,0,0,9.04-5.865L10.625,136A104.708,104.708,0,0,1,1.344,142.024ZM17.5,127.091c2.646-2.292,5.3-4.782,7.9-7.4l1.915,1.9c-2.646,2.662-5.353,5.2-8.047,7.533Zm15.283-15.332c2.324-2.664,4.642-5.481,6.89-8.378l2.134,1.656c-2.28,2.937-4.631,5.795-6.989,8.5ZM46.093,94.635c2.036-2.929,4.048-5.976,5.979-9.061l2.289,1.432c-1.952,3.121-3.989,6.207-6.051,9.171ZM57.783,76.249c1.951-3.076,4.016-6.147,6.139-9.126l2.2,1.565c-2.094,2.942-4.132,5.973-6.056,9.008ZM70.54,58.336c2.278-2.86,4.658-5.693,7.079-8.421l2.02,1.794C77.251,54.4,74.9,57.2,72.654,60.017ZM85.148,41.891c2.593-2.614,5.274-5.169,7.968-7.591l1.807,2.008c-2.657,2.388-5.3,4.906-7.857,7.483ZM103.2,29.306l-1.68-2.114c2.907-2.311,5.882-4.522,8.842-6.568l1.537,2.22C108.989,24.859,106.062,27.032,103.2,29.306Zm17.817-12.3-1.371-2.328c3.234-1.9,6.509-3.657,9.732-5.207l1.169,2.434C127.395,13.425,124.188,15.141,121.018,17.007ZM140.483,7.7l-.925-2.538a93.024,93.024,0,0,1,10.61-3.193l.617,2.631A90.053,90.053,0,0,0,140.483,7.7ZM161.363,2.9,161.142.213a59.7,59.7,0,0,1,11.156.1L172.013,3A57.078,57.078,0,0,0,161.363,2.9Zm52.519,42.45A87.054,87.054,0,0,0,210.648,35.1l2.519-.977A90.2,90.2,0,0,1,216.5,44.7ZM182.344,5.278l.887-2.552a44.281,44.281,0,0,1,10.049,4.994l-1.5,2.245A41.655,41.655,0,0,0,182.344,5.278Zm23.679,20.18a51.534,51.534,0,0,0-6.265-8.584l2-1.816a54.54,54.54,0,0,1,6.6,9.031Z" transform="matrix(-0.695, -0.719, 0.719, -0.695, 450.607, 254.397)" stroke="#000" stroke-width="1" fill="url(#linear-gradient-2)"/>
              <g id="Group_4258" data-name="Group 4258" transform="matrix(0.259, -0.966, 0.966, 0.259, 313.552, 349.744)">
                <path id="Path_224-2" data-name="Path 224" d="M2.815,0,1.131,2.109A46.946,46.946,0,0,1,8.595,9.615l2.115-1.68A49.535,49.535,0,0,0,2.815,0Zm13.91,17.345L14.32,18.573a66.026,66.026,0,0,1,4.037,9.9l2.574-.821A68.675,68.675,0,0,0,16.725,17.345Zm6.849,21.079-2.659.477a102.185,102.185,0,0,1,1.318,10.7l2.694-.192A104.693,104.693,0,0,0,23.574,38.424ZM22.517,60.4c-.055,3.5-.254,7.137-.587,10.809l2.69.243c.339-3.738.542-7.442.6-11.006ZM20.595,81.959c-.547,3.492-1.215,7.079-1.989,10.663l2.64.57c.785-3.634,1.463-7.272,2.016-10.816Zm-4.559,21.206c-.935,3.442-1.976,6.943-3.1,10.4l2.569.833c1.136-3.5,2.191-7.045,3.136-10.531Zm-6.57,20.774c-1.1,3.472-2.127,7.028-3.045,10.569l2.613.679c.908-3.495,1.919-7,3.008-10.43ZM3.944,145.224c-.727,3.583-1.367,7.228-1.9,10.836l2.673.394c.527-3.56,1.156-7.157,1.874-10.691ZM.736,166.986c-.336,3.666-.57,7.363-.693,10.983l2.7.093c.122-3.571.351-7.214.682-10.829ZM2.7,188.9l-2.7.072c.1,3.712.317,7.413.652,11l2.689-.25C3.013,196.2,2.8,192.558,2.7,188.9Zm2.031,21.554-2.664.446c.62,3.7,1.383,7.337,2.267,10.8l2.616-.668C6.085,217.646,5.338,214.086,4.731,210.459Zm5.381,20.894-2.539.922a93.024,93.024,0,0,0,4.374,10.18l2.412-1.218A90.051,90.051,0,0,1,10.112,231.353Zm9.749,19.076-2.2,1.561a59.7,59.7,0,0,0,7.247,8.482l1.874-1.945A57.076,57.076,0,0,1,19.861,250.43Zm66.277,12.945a87.069,87.069,0,0,1-9.934,4.113l.871,2.558a90.2,90.2,0,0,0,10.242-4.24Zm-50.973,1.6-1.384,2.32a44.283,44.283,0,0,0,10.285,4.488l.756-2.592A41.656,41.656,0,0,1,35.165,264.977Zm30.679,5.168a51.538,51.538,0,0,1-10.6.718l-.107,2.7a54.54,54.54,0,0,0,11.157-.752Z" transform="translate(0 61.743) rotate(-45)" stroke="#000" stroke-width="1" fill="url(#linear-gradient-7)"/>
              </g>
              <g id="Group_4257" data-name="Group 4257" transform="translate(248.975 94.651)">
                <path id="Path_5363" data-name="Path 5363" d="M21.359-101.525q0-102.335,44.01-155.359t123.545-53.024q166.494,0,166.494,208.383,0,103.926-43.479,156.154T187.853,106.858Q21.359,106.858,21.359-101.525Zm102.866,0q0,71.582,15.642,102.6t48.517,31.019q31.814,0,47.986-30.754t16.172-102.866q0-71.052-16.172-102.335t-47.986-31.284q-31.814,0-47.986,30.754T124.225-101.525Z" transform="translate(-21.359 428.162)" stroke="#000" stroke-width="1" fill="url(#linear-gradient-8)"/>
                <g id="Mask_Group_78" data-name="Mask Group 78" transform="translate(104.181 193.018)" clip-path="url(#clip-path)">
                  <path id="Path_5365" data-name="Path 5365" d="M283.5,169.409s18.338,42.2,69.4,24.491c0,0,44.048,20.688,57.227,68.859,6.925,25.312,12.3,67.579,12.3,67.579l-75.471,4.4S311.983,396.3,268.353,467.033L213.539,339.311l1.994-160.942Z" transform="translate(-220.12 -145.944)" stroke="#000" stroke-width="1" fill="url(#linear-gradient-9)"/>
                </g>
                <g id="Mask_Group_79" data-name="Mask Group 79" transform="translate(106.641)" clip-path="url(#clip-path-2)">
                  <path id="Path_1" data-name="Path 1" d="M298.651,208.417l4.332,57.424H256.6l-5.021-55.5Z" transform="translate(-117.369 154.949)" stroke="#000" stroke-width="1" fill="url(#linear-gradient-10)"/>
                  <g id="Group_4252" data-name="Group 4252" transform="matrix(-0.999, -0.035, 0.035, -0.999, 186.1, 259.965)">
                    <g id="Group_2" data-name="Group 2" transform="translate(17.614 0)">
                      <g id="Group_1" data-name="Group 1" transform="translate(0 0)">
                        <path id="Path_2" data-name="Path 2" d="M109.675,6.992l-.209,50.221c13.727-.075,28.438,5.109,27.668,21.157-.4,8.179-4.863,14.791-5.665,22.746-.845,8.42,2.766,9.089,7.789,13.454,5.044,4.381,6.591,7.623-.615,10.967-14.085,6.537-20.895,18.75-23.992,33.232-2.541,11.892-6.034,21.933-17.07,28.176-25.436,14.39-97-1.46-97.552-38.388S6.982,95.783,37.4,51.564L39.6,0Z" stroke="#000" stroke-width="1" fill="url(#linear-gradient-11)"/>
                      </g>
                    </g>
                    <g id="Group_3" data-name="Group 3" transform="translate(0 51.564)">
                      <path id="Path_3" data-name="Path 3" d="M118.174,184a25.473,25.473,0,0,1-3.231,1.022c-6.671-12.619-20.162-18.59-33.723-20.815-13.791-2.263-28-1.37-41.661-4.285-20.109-4.29-52.371-34.6-32.15-56.459-20.162-15.252,5.965-50.65,17.541-66.281S55.019,0,55.019,0L72.191,28.8C66.568,32.653,54.26,41.534,54.1,49.093c-.46,22.291,20.29-7.505,17.616-7.864L86.848,43.24c-.637,5.981-3.606,11.41-6.2,16.835C63.011,97,106.957,75.685,105.624,103.626c16.214,6.885,34.8,19.258,37.013,36.735C144.761,157.164,133.912,177.925,118.174,184Z" transform="translate(0 0)" stroke="#000" stroke-width="1" fill="url(#linear-gradient-12)"/>
                    </g>
                  </g>
                  <path id="Path_3-2" data-name="Path 3" d="M283.5,169.409s18.338,42.2,69.4,24.491c0,0,44.048,20.688,57.227,68.859,6.925,25.312,12.3,67.579,12.3,67.579l-75.471,4.4S311.983,396.3,268.353,467.033L213.539,339.311l17.472-163.994Z" transform="translate(-222.58 47.074)" stroke="#000" stroke-width="1" fill="url(#linear-gradient-9)"/>
                </g>
              </g>
              <path id="Path_5361" data-name="Path 5361" d="M6.146-86.006a29.488,29.488,0,0,1,4.1-15.474L127.663-303.1a61.371,61.371,0,0,1,22.984-23.211,63.309,63.309,0,0,1,32.541-8.647q26.852,0,45.512,18.887t18.66,45.285v148.824h12.288a31.976,31.976,0,0,1,23.439,9.785,31.976,31.976,0,0,1,9.785,23.439,32.506,32.506,0,0,1-9.785,23.894,31.976,31.976,0,0,1-23.439,9.785H247.36v31.4a38.145,38.145,0,0,1-11.606,27.99,38.145,38.145,0,0,1-27.99,11.606A38.68,38.68,0,0,1,179.319,4.335a38.145,38.145,0,0,1-11.606-27.99v-31.4H37.094a29.794,29.794,0,0,1-21.846-9.1A29.794,29.794,0,0,1,6.146-86.006Zm86.018-35.955h76.915v-142H166.8a429.306,429.306,0,0,1-30.493,64.172Z" transform="translate(547.24 586.674)" stroke="#000" stroke-width="1" fill="url(#linear-gradient-14)"/>
              <g id="Group_417" data-name="Group 417" transform="translate(97.4 90.276) rotate(-21)">
                <g id="Group_416" data-name="Group 416" transform="translate(183.869 190.859) rotate(-172)">
                  <g id="Group_24" data-name="Group 24" transform="translate(0 0)">
                    <path id="Path_79" data-name="Path 79" d="M70.381,39.545S23.86,46.413,0,0C0,0,31.479,23.685,59.6,15.264Z" transform="translate(0 59.71)" stroke="#000" stroke-width="1" fill="url(#linear-gradient-15)"/>
                    <path id="Path_80" data-name="Path 80" d="M50.078,63.32S49.578,16.3,0,0C0,0,28.321,27.382,24.407,56.473Z" transform="translate(50.991 0)" stroke="#000" stroke-width="1" fill="url(#linear-gradient-15)"/>
                    <path id="Union_135" data-name="Union 135" d="M135.414,118.756C89.774,109.92,24.142,86.784,0,23.044L9.84,11.523h0L19.677,0C86.414,13.862,119.54,75.066,135.414,118.756Z" transform="translate(50.262 47.883)" fill="#fff" stroke="#000" stroke-width="1"/>
                    <path id="Path_83" data-name="Path 83" d="M17.492,16.8,7.654,28.321,0,13.746,5.869,6.873,11.739,0,27.331,5.278Z" transform="translate(42.609 42.608)" stroke="#000" stroke-width="1" fill="url(#linear-gradient-17)"/>
                    <path id="Path_84" data-name="Path 84" d="M25.172,3.657a15.261,15.261,0,1,0,1.7,21.517A15.259,15.259,0,0,0,25.172,3.657Z" transform="translate(120.805 109.016)" stroke="#000" stroke-width="1" fill="url(#linear-gradient-14)"/>
                    <path id="Path_85" data-name="Path 85" d="M17.8,2.586A10.792,10.792,0,1,0,19,17.8,10.791,10.791,0,0,0,17.8,2.586Z" transform="translate(125.275 113.486)" stroke="#000" stroke-width="1" fill="url(#linear-gradient)"/>
                    <path id="Path_86" data-name="Path 86" d="M6.361.923A3.856,3.856,0,1,0,6.789,6.36,3.859,3.859,0,0,0,6.361.923Z" transform="translate(136.432 119.171)" stroke="#000" stroke-width="1" fill="url(#linear-gradient-14)"/>
                  </g>
                </g>
              </g>
              <g id="Group_4259" data-name="Group 4259" transform="translate(545.313 619.488) rotate(158)">
                <path id="Path_224-3" data-name="Path 224" d="M45.948,0c-1.683,0-3.43.051-5.192.154l.154,2.7a82.381,82.381,0,0,1,10.736.058l.2-2.693C49.944.072,47.959,0,45.948,0ZM29.755,1.388A71.972,71.972,0,0,0,18.96,4.046l.859,2.562A69.2,69.2,0,0,1,30.206,4.051Zm33.086.533L62.2,4.544A52.347,52.347,0,0,1,72.209,8.082l1.163-2.438A54.927,54.927,0,0,0,62.841,1.922ZM8.774,8.674A40.255,40.255,0,0,0,0,15.725l1.977,1.839a37.508,37.508,0,0,1,8.188-6.574Zm74.1,2.9-1.684,2.109a46.947,46.947,0,0,1,7.464,7.506l2.115-1.68A49.535,49.535,0,0,0,82.869,11.573Zm13.91,17.345-2.405,1.228a66.026,66.026,0,0,1,4.037,9.9l2.574-.821A68.674,68.674,0,0,0,96.779,28.918ZM103.628,50l-2.659.477a102.185,102.185,0,0,1,1.318,10.7l2.694-.192A104.7,104.7,0,0,0,103.628,50Zm-1.058,21.972c-.055,3.5-.254,7.137-.587,10.809l2.69.243c.339-3.738.542-7.442.6-11.006Zm-1.922,21.563c-.547,3.492-1.215,7.079-1.989,10.663l2.64.57c.785-3.634,1.463-7.272,2.016-10.816ZM96.09,114.738c-.935,3.442-1.976,6.943-3.1,10.4l2.569.833c1.136-3.5,2.191-7.045,3.136-10.531Zm-6.57,20.774c-1.1,3.472-2.127,7.028-3.045,10.569l2.613.679c.908-3.495,1.919-7,3.008-10.43ZM84,156.8c-.727,3.583-1.367,7.228-1.9,10.836l2.673.394c.527-3.56,1.156-7.157,1.874-10.691ZM80.79,178.559c-.336,3.666-.57,7.363-.693,10.983l2.7.093c.122-3.571.351-7.214.682-10.829Zm1.964,21.919-2.7.072c.1,3.712.317,7.413.652,11l2.689-.25C83.067,207.771,82.851,204.131,82.754,200.478Zm2.031,21.554-2.664.446c.62,3.7,1.383,7.337,2.267,10.8L87,232.612C86.139,229.22,85.393,225.66,84.785,222.033Zm5.381,20.894-2.539.922A93.025,93.025,0,0,0,92,254.029l2.412-1.218A90.056,90.056,0,0,1,90.166,242.927ZM99.915,262l-2.2,1.561a59.705,59.705,0,0,0,7.247,8.482l1.874-1.945A57.079,57.079,0,0,1,99.915,262Zm66.277,12.945a87.061,87.061,0,0,1-9.934,4.113l.871,2.558a90.2,90.2,0,0,0,10.242-4.24Zm-50.973,1.6-1.384,2.32a44.283,44.283,0,0,0,10.285,4.488l.756-2.592A41.655,41.655,0,0,1,115.22,276.55Zm30.68,5.168a51.538,51.538,0,0,1-10.6.718l-.107,2.7a54.538,54.538,0,0,0,11.157-.752Z" transform="translate(0 118.35) rotate(-45)" stroke="#000" stroke-width="1" fill="url(#linear-gradient-7)"/>
              </g>
              <path id="Path_5372" data-name="Path 5372" d="M6.146-86.006a29.488,29.488,0,0,1,4.1-15.474L127.663-303.1a61.371,61.371,0,0,1,22.984-23.211,63.309,63.309,0,0,1,32.541-8.647q26.852,0,45.512,18.887t18.66,45.285v148.824h12.288a31.976,31.976,0,0,1,23.439,9.785,31.976,31.976,0,0,1,9.785,23.439,32.506,32.506,0,0,1-9.785,23.894,31.976,31.976,0,0,1-23.439,9.785H247.36v31.4a38.145,38.145,0,0,1-11.606,27.99,38.145,38.145,0,0,1-27.99,11.606A38.68,38.68,0,0,1,179.319,4.335a38.145,38.145,0,0,1-11.606-27.99v-31.4H37.094a29.794,29.794,0,0,1-21.846-9.1A29.794,29.794,0,0,1,6.146-86.006Zm86.018-35.955h76.915v-142H166.8a429.306,429.306,0,0,1-30.493,64.172Z" transform="translate(-6.146 586.674)" stroke="#000" stroke-width="1" fill="url(#linear-gradient-14)"/>
              <path id="Path_5373" data-name="Path 5373" d="M42.559,0C41,0,39.382.048,37.75.143l.143,2.5a76.306,76.306,0,0,1,9.944.054L48.022.2C46.261.066,44.422,0,42.559,0Zm-15,1.286a66.664,66.664,0,0,0-10,2.462l.8,2.373a64.1,64.1,0,0,1,9.62-2.368Zm30.646.494-.6,2.429a48.485,48.485,0,0,1,9.274,3.277L67.96,5.228A50.876,50.876,0,0,0,58.206,1.78ZM8.127,8.034A37.286,37.286,0,0,0,0,14.565l1.831,1.7A34.741,34.741,0,0,1,9.415,10.18ZM76.758,10.72,75.2,12.674a43.484,43.484,0,0,1,6.913,6.952L84.07,18.07A45.882,45.882,0,0,0,76.758,10.72ZM89.642,26.786l-2.228,1.137a61.153,61.153,0,0,1,3.739,9.168l2.384-.761A63.609,63.609,0,0,0,89.642,26.786ZM95.986,46.31l-2.463.442a94.647,94.647,0,0,1,1.221,9.907l2.5-.178A96.978,96.978,0,0,0,95.986,46.31Zm-.98,20.351c-.051,3.242-.235,6.611-.544,10.012l2.492.225c.314-3.462.5-6.893.554-10.194Zm-1.78,19.972c-.507,3.235-1.126,6.557-1.843,9.877l2.445.528c.727-3.366,1.355-6.736,1.868-10.018ZM89,106.276c-.866,3.188-1.83,6.431-2.87,9.637l2.379.772c1.052-3.243,2.029-6.526,2.9-9.754Zm-6.085,19.242c-1.021,3.216-1.97,6.51-2.821,9.789l2.42.629c.841-3.237,1.777-6.488,2.786-9.66ZM77.8,145.234c-.673,3.319-1.266,6.695-1.76,10.037l2.475.365c.488-3.3,1.071-6.63,1.736-9.9Zm-2.971,20.156c-.311,3.4-.528,6.82-.642,10.173l2.5.086c.113-3.307.325-6.682.632-10.031Zm1.819,20.3-2.5.066c.091,3.439.294,6.866.6,10.184l2.49-.231C76.941,192.448,76.741,189.077,76.651,185.693Z" transform="translate(228.537 401.258) rotate(-96)" stroke="#000" stroke-width="1" fill="url(#linear-gradient-7)"/>
              <path id="Path_5375" data-name="Path 5375" d="M42.559,0C41,0,39.382.048,37.75.143l.143,2.5a76.3,76.3,0,0,1,9.944.054L48.022.2C46.261.066,44.422,0,42.559,0Zm-15,1.286a66.665,66.665,0,0,0-10,2.462l.8,2.373a64.1,64.1,0,0,1,9.62-2.368Zm30.646.494-.6,2.429a48.485,48.485,0,0,1,9.274,3.277L67.96,5.228A50.875,50.875,0,0,0,58.206,1.78ZM8.127,8.034A37.286,37.286,0,0,0,0,14.565l1.831,1.7A34.741,34.741,0,0,1,9.415,10.18ZM76.758,10.72,75.2,12.674a43.484,43.484,0,0,1,6.913,6.952L84.07,18.07A45.881,45.881,0,0,0,76.758,10.72ZM89.642,26.786l-2.228,1.137a61.154,61.154,0,0,1,3.739,9.168l2.384-.761A63.61,63.61,0,0,0,89.642,26.786ZM95.986,46.31l-2.463.442a94.647,94.647,0,0,1,1.221,9.907l2.5-.178A96.973,96.973,0,0,0,95.986,46.31Zm-.98,20.351c-.051,3.242-.235,6.611-.544,10.012l2.492.225c.314-3.462.5-6.893.554-10.194Zm-1.78,19.972c-.507,3.235-1.126,6.557-1.843,9.877l2.445.528c.727-3.366,1.355-6.736,1.868-10.018ZM89,106.276c-.866,3.188,1.539,3.883,2.414.654Z" transform="matrix(0.105, 0.995, -0.995, 0.105, 389.531, 68.025)" stroke="#000" stroke-width="1" fill="url(#linear-gradient-7)"/>
              <path id="Path_5376" data-name="Path 5376" d="M0,2.552.887,0A44.281,44.281,0,0,1,10.936,4.994l-1.5,2.245A41.654,41.654,0,0,0,0,2.552Zm23.679,20.18a51.535,51.535,0,0,0-6.265-8.584l2-1.816a54.54,54.54,0,0,1,6.6,9.031Z" transform="translate(336.852 62.463) rotate(-34)" stroke="#000" stroke-width="1" fill="url(#linear-gradient-2)"/>
            </g>
            <g id="Group_250" data-name="Group 250" transform="translate(425.312 423.744) rotate(151)">
              <path id="Path_60" data-name="Path 60" d="M63.427,12.622,45.739.815a4.875,4.875,0,0,0-6.883,1.558L0,67.482,23.031,80.461,64.742,19.425A4.872,4.872,0,0,0,63.427,12.622Z" transform="translate(37.812 0)" stroke="#000" stroke-width="1" fill="url(#linear-gradient-15)"/>
              <g id="Group_249" data-name="Group 249" transform="translate(0 60.409)">
                <path id="Path_61" data-name="Path 61" d="M30.7,4.144,24.615,0,0,35.875,6.087,40.02c8.655,5.908,21.187,2.659,27.989-7.25h0C40.87,22.87,39.367,10.052,30.7,4.144Z" transform="translate(133.73 86.236)" stroke="#000" stroke-width="1" fill="url(#linear-gradient-27)"/>
                <path id="Path_62" data-name="Path 62" d="M139.093,17.191,25.864,0,0,37.69l57.139,98.927Z" transform="translate(47.848 29.466)" stroke="#000" stroke-width="1" fill="url(#linear-gradient-7)"/>
                <path id="Path_64" data-name="Path 64" d="M27.143,2.06h0C21.092-2.066,12.329.2,7.567,7.127l-4.592,6.7c-4.753,6.919-3.7,15.888,2.354,20.014h0c6.06,4.126,14.823,1.853,19.576-5.066l4.6-6.7C34.259,15.147,33.2,6.187,27.143,2.06Z" transform="translate(0 0)" stroke="#000" stroke-width="1" fill="url(#linear-gradient-17)"/>
                <path id="Path_66" data-name="Path 66" d="M90.915,1.211h0C87.353-1.215,82.206.119,79.422,4.183L1.746,117.368C-1.047,121.44-.42,126.7,3.133,129.129h0c3.554,2.426,8.7,1.092,11.493-2.981L92.3,12.964C95.086,8.9,94.468,3.637,90.915,1.211Z" transform="translate(99.717 41.729)" stroke="#000" stroke-width="1" fill="url(#linear-gradient-17)"/>
                <path id="Path_68" data-name="Path 68" d="M54.87,8.676,47.54,3.681C36.727-3.694,21.081.361,12.6,12.731L5.309,23.338c-8.486,12.37-6.6,28.375,4.216,35.741l7.331,4.995c10.813,7.376,26.459,3.321,34.944-9.049l7.286-10.607C67.572,32.047,65.683,16.043,54.87,8.676Z" transform="translate(8.837 0.975)" stroke="#000" stroke-width="1" fill="url(#linear-gradient-15)"/>
              </g>
            </g>
            <g id="Group_4261" data-name="Group 4261" transform="translate(315.146 405.972) rotate(-8)">
              <path id="Union_134" data-name="Union 134" d="M174.056,169.817c-8.033-4.8-15.423-9.394-22.228-13.8a26.488,26.488,0,0,1-4.085-1.995L37.85,79.508c-19.414-2.744-19.221-18.5-22.993-28.482-2-5.287-6.526-9.635-10.354-12.556A11.51,11.51,0,0,1,.378,26.406L7.316,0S30.85,7.687,41.036,19c7.875,8.74,9.985,19.034,10.477,25.408a10.875,10.875,0,0,0,6.245,9L171.646,107.1a28.136,28.136,0,0,1,10.222,8.2l16.089,7.586c12.583,5.931,19.27,20.519,14.358,33.528a26.372,26.372,0,0,1-38.259,13.4Z" transform="translate(0 0)" stroke="#000" stroke-width="1" fill="url(#linear-gradient-10)"/>
              <path id="Path_5369" data-name="Path 5369" d="M0,0S21.651,6.511,30.459,19.2" transform="translate(4.659 7.161)" fill="none" stroke="#000" stroke-miterlimit="10" stroke-width="1"/>
              <path id="Path_5370" data-name="Path 5370" d="M0,0S18.259,4.432,24.479,18.714" transform="translate(2.611 16.349)" fill="none" stroke="#000" stroke-miterlimit="10" stroke-width="1"/>
              <path id="Path_5371" data-name="Path 5371" d="M0,0S15.114,4.214,19.98,18.078" transform="translate(0.725 25.089)" fill="none" stroke="#000" stroke-miterlimit="10" stroke-width="1"/>
            </g>
          </g>
        </g>
        <path id="Path_5377" data-name="Path 5377" d="M43.244,0c-1.584,0-3.228.048-4.887.145L38.5,2.682a77.53,77.53,0,0,1,10.1.055L48.794.2C47,.067,45.136,0,43.244,0ZM28,1.307a67.735,67.735,0,0,0-10.159,2.5l.808,2.411a65.129,65.129,0,0,1,9.775-2.406Zm31.139.5-.606,2.468a49.264,49.264,0,0,1,9.423,3.33l1.094-2.294A51.693,51.693,0,0,0,59.142,1.809ZM8.258,8.164A37.886,37.886,0,0,0,0,14.8L1.861,16.53a35.3,35.3,0,0,1,7.706-6.187Zm69.735,2.728-1.585,1.985a44.182,44.182,0,0,1,7.025,7.064l1.99-1.581A46.62,46.62,0,0,0,77.992,10.892ZM91.083,27.216,88.82,28.372a62.138,62.138,0,0,1,3.8,9.315l2.423-.773A64.634,64.634,0,0,0,91.083,27.216ZM97.53,47.055l-2.5.449a96.169,96.169,0,0,1,1.24,10.066l2.536-.18A98.535,98.535,0,0,0,97.53,47.055Zm-1,20.679c-.052,3.294-.239,6.717-.553,10.173l2.532.229c.319-3.518.51-7,.563-10.358ZM94.726,88.027c-.515,3.287-1.144,6.662-1.872,10.036l2.485.536c.738-3.42,1.376-6.844,1.9-10.179Z" transform="matrix(0.719, -0.695, 0.695, 0.719, 909.852, 823.11)" stroke="#000" stroke-width="1" fill="url(#linear-gradient-7)"/>
        <g id="Group_4265" data-name="Group 4265" transform="translate(-14281 -615)">
          <g id="Rectangle_1069" data-name="Rectangle 1069" transform="translate(15414 1388)" stroke="#000" stroke-width="1" fill="url(#linear-gradient-10)">
            <rect width="70" height="33" stroke="none"/>
            <rect x="0.5" y="0.5" width="69" height="32" fill="none"/>
          </g>
          <circle id="Ellipse_199" data-name="Ellipse 199" cx="13" cy="13" r="13" transform="translate(15418 1391)" stroke="#000" stroke-width="1" fill="url(#linear-gradient-8)"/>
          <circle id="Ellipse_202" data-name="Ellipse 202" cx="13" cy="13" r="13" transform="translate(15451 1391)" stroke="#000" stroke-width="1" fill="url(#linear-gradient-8)"/>
          <circle id="Ellipse_203" data-name="Ellipse 203" cx="3" cy="3" r="3" transform="translate(15456 1401)" stroke="#000" stroke-width="1" fill="url(#linear-gradient-37)"/>
          <circle id="Ellipse_204" data-name="Ellipse 204" cx="3" cy="3" r="3" transform="translate(15466 1401)" stroke="#000" stroke-width="1" fill="url(#linear-gradient-37)"/>
          <path id="Path_5398" data-name="Path 5398" d="M17,4c-.338,0-.669.025-1,.051V7a1,1,0,0,0,2,0V4.051C17.669,4.025,17.338,4,17,4Z" transform="translate(15447 1387)" stroke="#000" stroke-width="1" fill="url(#linear-gradient)"/>
          <path id="Path_5399" data-name="Path 5399" d="M17,26a1,1,0,0,0-1,1v2.949c.331.026.662.051,1,.051s.669-.025,1-.051V27A1,1,0,0,0,17,26Z" transform="translate(15447 1387)" stroke="#000" stroke-width="1" fill="url(#linear-gradient)"/>
        </g>
        <path id="Path_5400" data-name="Path 5400" d="M43.244,0c-1.584,0-3.228.048-4.887.145L38.5,2.682a77.531,77.531,0,0,1,10.1.055L48.794.2C47,.067,45.136,0,43.244,0ZM28,1.307a67.737,67.737,0,0,0-10.159,2.5l.808,2.411a65.13,65.13,0,0,1,9.775-2.406Zm31.139.5-.606,2.468a49.265,49.265,0,0,1,9.423,3.33l1.094-2.294A51.693,51.693,0,0,0,59.142,1.809ZM8.258,8.164A37.886,37.886,0,0,0,0,14.8L1.861,16.53a35.3,35.3,0,0,1,7.706-6.187Zm69.735,2.729-1.585,1.985a44.182,44.182,0,0,1,7.025,7.064l1.99-1.581A46.62,46.62,0,0,0,77.992,10.892ZM91.083,27.216,88.82,28.372a62.138,62.138,0,0,1,3.8,9.315l2.423-.773A64.633,64.633,0,0,0,91.083,27.216ZM97.53,47.055l-2.5.449a96.169,96.169,0,0,1,1.24,10.066l2.536-.18A98.534,98.534,0,0,0,97.53,47.055Z" transform="matrix(-0.719, 0.695, -0.695, -0.719, 1161.082, 807.981)" stroke="#000" stroke-width="1" fill="url(#linear-gradient-7)"/>
        <path id="Path_5396" data-name="Path 5396" d="M109.462,165.555a6.421,6.421,0,0,0,9.105,0,106.119,106.119,0,0,1,0-22.421,6.422,6.422,0,0,0-9.105,0,106.117,106.117,0,0,1,0,22.421" transform="translate(1035.824 634.756)" stroke="#000" stroke-width="1" fill="url(#linear-gradient-37)"/>
        <path id="light" d="M114.527,6.271h-4.6L112.221,0l-7.005,9.6h4.6l-2.293,6.271Z" transform="translate(1039.784 781.053)" stroke="#000" stroke-width="1" fill="url(#linear-gradient)"/>
      </g>
    </g>
  </g>
</svg>
