<svg xmlns="http://www.w3.org/2000/svg" xmlns:xlink="http://www.w3.org/1999/xlink" width="251.803" height="377.719" viewBox="0 0 251.803 377.719">
  <defs>
    <filter id="Path_134" x="0" y="1.249" width="204.931" height="101.535" filterUnits="userSpaceOnUse">
      <feOffset dy="3" input="SourceAlpha"/>
      <feGaussianBlur stdDeviation="3" result="blur"/>
      <feFlood flood-opacity="0.161"/>
      <feComposite operator="in" in2="blur"/>
      <feComposite in="SourceGraphic"/>
    </filter>
    <filter id="Path_135" x="78.669" y="1.318" width="126.342" height="136.588" filterUnits="userSpaceOnUse">
      <feOffset dy="3" input="SourceAlpha"/>
      <feGaussianBlur stdDeviation="3" result="blur-2"/>
      <feFlood flood-opacity="0.161"/>
      <feComposite operator="in" in2="blur-2"/>
      <feComposite in="SourceGraphic"/>
    </filter>
    <filter id="Path_136" x="91.269" y="1.382" width="113.743" height="135.833" filterUnits="userSpaceOnUse">
      <feOffset dy="3" input="SourceAlpha"/>
      <feGaussianBlur stdDeviation="3" result="blur-3"/>
      <feFlood flood-opacity="0.161"/>
      <feComposite operator="in" in2="blur-3"/>
      <feComposite in="SourceGraphic"/>
    </filter>
    <filter id="Path_137" x="105.144" y="0" width="100.34" height="143.418" filterUnits="userSpaceOnUse">
      <feOffset dy="3" input="SourceAlpha"/>
      <feGaussianBlur stdDeviation="3" result="blur-4"/>
      <feFlood flood-opacity="0.161"/>
      <feComposite operator="in" in2="blur-4"/>
      <feComposite in="SourceGraphic"/>
    </filter>
  </defs>
  <g id="Group_613" data-name="Group 613" transform="translate(-77.259 -3727.285)">
    <g id="Group_338" data-name="Group 338" transform="translate(85.843 3845.289)">
      <g id="Group_113" data-name="Group 113">
        <g id="Group_110" data-name="Group 110" transform="translate(97.787)">
          <path id="Path_220" data-name="Path 220" d="M319.368,98.474l-1.788-1.508c1.943-2.3,3.028-3.569,3.028-3.569l1.776,1.519S321.3,96.18,319.368,98.474Z" transform="translate(-317.58 -93.396)"/>
        </g>
        <g id="Group_111" data-name="Group 111" transform="translate(0 10.734)">
          <path id="Path_221" data-name="Path 221" d="M360.255,351.559q-1.794,0-3.609-.03l.039-2.338c3.122.053,6.2.039,9.291-.049l.064,2.338C364.117,351.532,362.169,351.559,360.255,351.559Zm-13-.389c-2.727-.16-5.532-.374-8.342-.641l-1.021-.1.229-2.327,1.011.1c2.781.262,5.56.475,8.259.634Zm28.17-.178-.178-2.331c3.117-.239,6.222-.557,9.232-.945l.3,2.32C381.733,350.428,378.585,350.751,375.427,350.992Zm-46.857-1.673c-3.136-.441-6.255-.953-9.269-1.522l.434-2.3c2.98.562,6.061,1.069,9.161,1.5Zm65.5-.741-.427-2.3c3.053-.568,6.1-1.229,9.061-1.965l.564,2.269C400.267,347.33,397.174,348,394.072,348.578Zm-83.957-2.762c-3.088-.753-6.138-1.592-9.07-2.5l.69-2.235c2.885.891,5.894,1.719,8.935,2.46Zm102.216-1.8-.712-2.226c2.975-.952,5.905-2,8.714-3.126l.868,2.171C418.341,341.975,415.359,343.046,412.331,344.013Zm-120.187-3.767c-2.975-1.143-5.89-2.393-8.662-3.714l1.006-2.11c2.717,1.294,5.576,2.52,8.5,3.642ZM429.816,337l-1.032-2.1c2.8-1.377,5.528-2.864,8.115-4.421l1.205,2C435.461,334.077,432.673,335.6,429.816,337Zm-154.671-4.889c-2.752-1.619-5.412-3.362-7.9-5.179l1.376-1.889c2.431,1.772,5.024,3.472,7.709,5.053Zm170.824-4.86-1.387-1.883a90.876,90.876,0,0,0,7.148-5.826l1.568,1.734A92.928,92.928,0,0,1,445.969,327.252Zm-186.063-6.294a81.656,81.656,0,0,1-6.619-6.769l1.764-1.534a79.227,79.227,0,0,0,6.43,6.575Zm200.052-6.412L458.207,313a75.1,75.1,0,0,0,5.656-7.246l1.929,1.322A77.453,77.453,0,0,1,459.958,314.547ZM247.522,306.67a76.412,76.412,0,0,1-4.8-8.176l2.086-1.056a74.369,74.369,0,0,0,4.65,7.925Zm223.1-7.769-2.092-1.048a61.966,61.966,0,0,0,3.493-8.468l2.221.728A64.533,64.533,0,0,1,470.622,298.9Zm-231.654-9.109a81.879,81.879,0,0,1-2.695-9.081l2.276-.535A79.865,79.865,0,0,0,241.168,289Zm237.509-8.931-2.311-.36a54.135,54.135,0,0,0,.656-8.344l-.007-.767,2.338-.03.007.8A56.582,56.582,0,0,1,476.477,280.861ZM234.617,271.4c-.378-3.078-.607-6.253-.676-9.433l2.338-.051a92.009,92.009,0,0,0,.658,9.2Zm239.273-9.086a53.3,53.3,0,0,0-2.48-8.786l2.188-.825a55.8,55.8,0,0,1,2.59,9.172Zm-237.377-9.626-2.332-.166c.22-3.095.586-6.25,1.087-9.381l2.308.368C237.086,246.571,236.729,249.659,236.513,252.686Zm230.971-7.418a61.4,61.4,0,0,0-5.181-7.555l1.826-1.46a63.38,63.38,0,0,1,5.378,7.845Zm-228.069-10.82-2.272-.56c.748-3.036,1.631-6.085,2.622-9.062l2.219.739C241.012,228.482,240.146,231.47,239.415,234.447Zm5.849-17.53-2.15-.918c1.246-2.923,2.615-5.79,4.069-8.523l2.065,1.1C247.826,211.249,246.485,214.056,245.264,216.917Zm8.694-16.3-1.964-1.271c1.609-2.484,3.353-5.113,5.186-7.812l1.935,1.313C257.293,195.536,255.557,198.151,253.958,200.621Zm10.464-15.448-1.914-1.343q2.655-3.779,5.439-7.628l1.9,1.37Q267.075,181.4,264.422,185.173Zm10.933-15.139-1.879-1.39q2.774-3.751,5.6-7.5l1.867,1.408Q278.126,166.285,275.355,170.034Zm11.244-14.92-1.854-1.424q2.867-3.735,5.723-7.4l1.845,1.436Q289.469,151.376,286.6,155.114Zm11.478-14.748-1.836-1.447q2.952-3.744,5.815-7.332l1.827,1.458Q301.033,136.621,298.076,140.366Zm11.659-14.609-1.819-1.468c2.037-2.524,4.01-4.954,5.9-7.267l1.811,1.479Q312.795,121.966,309.735,125.758Zm11.818-14.486-1.8-1.486c2.183-2.65,4.188-5.067,5.973-7.209l1.8,1.5C325.736,106.213,323.733,108.626,321.553,111.272Z" transform="translate(-233.941 -102.577)"/>
        </g>
        <g id="Group_112" data-name="Group 112" transform="translate(218.571 134.122)">
          <path id="Path_222" data-name="Path 222" d="M424.327,212.967c-1.1-1.042-2.256-2.072-3.439-3.063l1.5-1.791c1.219,1.021,2.411,2.083,3.544,3.157Z" transform="translate(-420.889 -208.113)"/>
        </g>
      </g>
    </g>
    <g id="Group_535" data-name="Group 535" transform="translate(86.441 3735)">
      <g transform="matrix(1, 0, 0, 1, -9.18, -7.71)" filter="url(#Path_134)">
        <path id="Path_134-2" data-name="Path 134" d="M283.613,76.945,97.171,149.919l80.387,9.575Z" transform="translate(-87.99 -69.23)" fill="#fff" stroke="#000" stroke-width="1"/>
      </g>
      <g transform="matrix(1, 0, 0, 1, -9.18, -7.71)" filter="url(#Path_135)">
        <path id="Path_135-2" data-name="Path 135" d="M97.171,159.336l12.448,34.794L204.532,76.945Z" transform="translate(-8.91 -69.23)" fill="#97dfff" stroke="#000" stroke-width="1"/>
      </g>
      <g transform="matrix(1, 0, 0, 1, -9.18, -7.71)" filter="url(#Path_136)">
        <path id="Path_136-2" data-name="Path 136" d="M111.384,167.34,97.171,194.13,192.084,76.945Z" transform="translate(3.54 -69.23)" fill="#55c3fe" stroke="#000" stroke-width="1"/>
      </g>
      <g transform="matrix(1, 0, 0, 1, -9.18, -7.71)" filter="url(#Path_137)">
        <path id="Path_137-2" data-name="Path 137" d="M177.871,76.945l-25.1,122.919-55.6-32.524Z" transform="translate(17.75 -69.23)" fill="#fff" stroke="#000" stroke-width="1"/>
      </g>
    </g>
  </g>
</svg>
