<svg xmlns="http://www.w3.org/2000/svg" xmlns:xlink="http://www.w3.org/1999/xlink" width="120.919" height="109.029" viewBox="0 0 120.919 109.029">
  <defs>
    <linearGradient id="linear-gradient" x1="0.5" x2="0.5" y2="1" gradientUnits="objectBoundingBox">
      <stop offset="0.23" stop-color="#fadb5d"/>
      <stop offset="0.97" stop-color="#f08e28"/>
    </linearGradient>
    <linearGradient id="linear-gradient-2" x1="0.5" x2="0.5" y2="1" gradientUnits="objectBoundingBox">
      <stop offset="0.166" stop-color="#ff7878"/>
      <stop offset="0.78" stop-color="#eb5959"/>
    </linearGradient>
    <linearGradient id="linear-gradient-3" x1="0.5" x2="0.469" y2="1.609" gradientUnits="objectBoundingBox">
      <stop offset="0" stop-color="#ffbd8a"/>
      <stop offset="0.092" stop-color="#ffbd8a"/>
      <stop offset="0.844" stop-color="#f09a59"/>
      <stop offset="1" stop-color="#f09a59"/>
    </linearGradient>
    <linearGradient id="linear-gradient-6" x1="0.5" x2="0.5" y2="1" gradientUnits="objectBoundingBox">
      <stop offset="0" stop-color="#3e569c"/>
      <stop offset="1" stop-color="#3fb1e5"/>
    </linearGradient>
    <linearGradient id="linear-gradient-7" x1="0.5" x2="0.5" y2="1" gradientUnits="objectBoundingBox">
      <stop offset="0.092" stop-color="#ffbd8a"/>
      <stop offset="0.844" stop-color="#f09a59"/>
    </linearGradient>
    <linearGradient id="linear-gradient-10" x1="0.5" x2="0.5" y2="1" gradientUnits="objectBoundingBox">
      <stop offset="0" stop-color="#42444a"/>
      <stop offset="1" stop-color="#0d0e0f"/>
    </linearGradient>
  </defs>
  <g id="Group_4014" data-name="Group 4014" transform="translate(-438.484 -8821.034)">
    <g id="light-bulb_1_" data-name="light-bulb (1)" transform="translate(439 8821.534)">
      <path id="Path_2951" data-name="Path 2951" d="M185.379,370.759v10.7h14.268v-10.7Z" transform="translate(-175.552 -333.306)" fill="#e8edee" stroke="#000" stroke-width="1"/>
      <path id="Path_2952" data-name="Path 2952" d="M209.722,480.257h-2.675a2.659,2.659,0,0,1-2.14-1.07l-1.873-2.5h10.7l-1.873,2.5a2.659,2.659,0,0,1-2.14,1.07" transform="translate(-191.423 -428.537)" fill="#cbd4d8" stroke="#000" stroke-width="1"/>
      <path id="Path_2953" data-name="Path 2953" d="M121.91,15.427A17.437,17.437,0,0,0,106.572.089c-.535,0-.981-.089-1.516-.089a8.649,8.649,0,0,0-1.516.089A17.522,17.522,0,0,0,88.2,15.427a17.183,17.183,0,0,0,5.261,14.446,14.732,14.732,0,0,1,4.459,7.58H112.19a14.732,14.732,0,0,1,4.459-7.58,17.183,17.183,0,0,0,5.261-14.446" transform="translate(-88.095)" stroke="#000" stroke-width="1" fill="url(#linear-gradient)"/>
      <path id="Path_2954" data-name="Path 2954" d="M215.518,87.475h-5.35l4.459-8.026h-5.35l-6.242,11.592h4.459l-4.459,11.592Z" transform="translate(-191.423 -71.423)" stroke="#000" stroke-width="1" fill="url(#linear-gradient-2)"/>
      <g id="Group_474" data-name="Group 474" transform="translate(9.827 40.128)">
        <path id="Path_2955" data-name="Path 2955" d="M191.621,399.025a.892.892,0,1,0,0-1.784h-6.242v1.783h6.242Z" transform="translate(-185.379 -397.241)" fill="#cbd4d8" stroke="#000" stroke-width="1"/>
        <path id="Path_2956" data-name="Path 2956" d="M188.947,434.335a.892.892,0,1,0,0-1.783H185.38v1.783h3.567Z" transform="translate(-185.38 -428.984)" fill="#cbd4d8" stroke="#000" stroke-width="1"/>
        <path id="Path_2957" data-name="Path 2957" d="M286.942,397.241h-3.567a.892.892,0,0,0,0,1.784h3.567v-1.784Z" transform="translate(-272.674 -397.241)" fill="#cbd4d8" stroke="#000" stroke-width="1"/>
        <path id="Path_2958" data-name="Path 2958" d="M256.892,432.552a.892.892,0,1,0,0,1.784h6.242v-1.783h-6.242Z" transform="translate(-248.866 -428.985)" fill="#cbd4d8" stroke="#000" stroke-width="1"/>
      </g>
    </g>
    <g id="Group_475" data-name="Group 475" transform="translate(443.94 8812.617)">
      <g id="support_1_" data-name="support (1)" transform="translate(0 0)">
        <path id="Path_2924" data-name="Path 2924" d="M24.16,304.429,4.339,266.769H20.2l9.911,17.839V268.751A11.892,11.892,0,0,1,42,256.858H53.893a5.946,5.946,0,0,0,5.946-5.946v-7.929H75.7v7.929a5.946,5.946,0,0,0,5.946,5.946H93.535a11.892,11.892,0,0,1,11.893,11.893v35.678Z" transform="translate(9.536 -187.483)" stroke="#000" stroke-width="1" fill="url(#linear-gradient-3)"/>
        <g id="Group_468" data-name="Group 468" transform="translate(47.572 87.027)">
          <path id="Path_2925" data-name="Path 2925" d="M39.066,410.932h3.964v-5.271a19.757,19.757,0,0,0,.819-22.365L42.4,381.014l-3.348,2.125L40.5,385.42a15.791,15.791,0,0,1-1,18.327,1.981,1.981,0,0,0-.434,1.239v5.946Z" transform="translate(12.538 -381.014)" fill="#f5b789" stroke="#000" stroke-width="1"/>
          <path id="Path_2926" data-name="Path 2926" d="M268.814,410.932h3.964v-5.946a1.981,1.981,0,0,0-.434-1.239,15.788,15.788,0,0,1-1-18.325l1.449-2.283-3.348-2.125L268,383.3a19.757,19.757,0,0,0,.819,22.365v5.271Z" transform="translate(-264.92 -381.014)" fill="#f5b789" stroke="#000" stroke-width="1"/>
        </g>
        <path id="Path_2929" data-name="Path 2929" d="M389.384,306.944h17.839a11.892,11.892,0,0,0-11.893-11.893H377.491A11.892,11.892,0,0,0,389.384,306.944Z" transform="translate(-377.491 -227.658)" stroke="#000" stroke-width="1" fill="url(#linear-gradient-3)"/>
        <path id="Path_2930" data-name="Path 2930" d="M134.519,251.012v-8.03h15.867v8.03a17.7,17.7,0,0,1-15.877,0Z" transform="translate(-65.154 -187.482)" stroke="#000" stroke-width="1" fill="url(#linear-gradient-3)"/>
        <path id="Path_2932" data-name="Path 2932" d="M20.2,313.64l9.911,17.839V315.622A11.892,11.892,0,0,1,42,303.729h6.343s9.062,6.961,18.527,6.961S86.2,303.729,86.2,303.729h7.334a11.892,11.892,0,0,1,11.893,11.893V351.3H24.16L4.339,313.64Z" transform="translate(9.536 -234.354)" stroke="#000" stroke-width="1" fill="url(#linear-gradient-6)"/>
        <g id="Rectangle_192" data-name="Rectangle 192" transform="translate(54.06 33.946)" stroke="#000" stroke-width="1" fill="url(#linear-gradient-7)">
          <path d="M5,0H5A0,0,0,0,1,5,0V10a0,0,0,0,1,0,0H5A5,5,0,0,1,0,5V5A5,5,0,0,1,5,0Z" stroke="none"/>
          <path d="M4.4.5h0a.1.1,0,0,1,.1.1V9.4a.1.1,0,0,1-.1.1h0A3.9,3.9,0,0,1,.5,5.6V4.4A3.9,3.9,0,0,1,4.4.5Z" fill="none"/>
        </g>
        <g id="Rectangle_193" data-name="Rectangle 193" transform="translate(95.06 33.946)" stroke="#000" stroke-width="1" fill="url(#linear-gradient-7)">
          <path d="M0,0H0A5,5,0,0,1,5,5V5a5,5,0,0,1-5,5H0a0,0,0,0,1,0,0V0A0,0,0,0,1,0,0Z" stroke="none"/>
          <path d="M.6.5h0A3.9,3.9,0,0,1,4.5,4.4V5.6A3.9,3.9,0,0,1,.6,9.5h0a.1.1,0,0,1-.1-.1V.6A.1.1,0,0,1,.6.5Z" fill="none"/>
        </g>
        <g id="Rectangle_194" data-name="Rectangle 194" transform="translate(58.06 9.946)" stroke="#000" stroke-width="1" fill="url(#linear-gradient-7)">
          <rect width="38" height="50" rx="19" stroke="none"/>
          <rect x="0.5" y="0.5" width="37" height="49" rx="18.5" fill="none"/>
        </g>
        <g id="Path_3083" data-name="Path 3083" transform="translate(58.06 9.946)" fill="url(#linear-gradient-10)">
          <path d="M 40.04217910766602 28.27312088012695 C 35.07572555541992 28.27338981628418 24.32369422912598 22.29826354980469 16.47252464294434 17.93534088134766 C 10.77222442626953 14.76766967773438 7.744034290313721 13.11468982696533 6.592494487762451 13.11468982696533 C 6.382754325866699 13.11468982696533 6.206234455108643 13.16641044616699 6.067834377288818 13.26842021942139 C 4.104184150695801 14.7158203125 2.434624195098877 18.76099967956543 -0.8916056752204895 26.82010078430176 L -0.9238339066505432 26.8981876373291 L -1.982121825218201 28.18337249755859 L -4.068995952606201 17.17030715942383 C -4.059808254241943 14.783371925354 -3.345235824584961 12.49732112884521 -1.944735646247864 10.37516975402832 C -0.6430656909942627 8.40276050567627 1.206944346427917 6.625229835510254 3.553894281387329 5.091959953308105 C 7.955124378204346 2.216619968414307 13.7293643951416 0.5000000596046448 19.00000381469727 0.5000000596046448 C 21.52105522155762 0.5000000596046448 24.29240417480469 0.9799400568008423 27.01446342468262 1.887920022010803 C 29.7407341003418 2.797320127487183 32.37509536743164 4.122010231018066 34.63276290893555 5.718790054321289 C 37.03258514404297 7.416120052337646 38.93323516845703 9.342710494995117 40.28192520141602 11.44503021240234 C 41.73575592041016 13.7112398147583 42.47290420532227 16.0819206237793 42.47290420532227 18.4912109375 L 42.47290420532227 26.13866996765137 C 42.47290420532227 27.61450004577637 41.72362518310547 28.27277946472168 40.04342269897461 28.27312088012695 C 40.04312133789063 28.27312088012695 40.04248046875 28.27312088012695 40.04217910766602 28.27312088012695 Z" stroke="none"/>
          <path d="M 19.00000381469727 1 C 13.82257461547852 1 8.150554656982422 2.686191558837891 3.827354431152344 5.510549545288086 C 1.537975311279297 7.006210327148438 -0.2636375427246094 8.735570907592773 -1.527423858642578 10.65057945251465 C -2.864151000976563 12.67609596252441 -3.550697326660156 14.8537712097168 -3.568729400634766 17.12479782104492 L -1.689586639404297 27.04155158996582 L -1.357429504394531 26.63817977905273 L -1.353706359863281 26.62915992736816 C 2.113002777099609 18.22966957092285 3.695224761962891 14.39609909057617 5.771175384521484 12.86594009399414 C 5.997364044189453 12.69922065734863 6.273693084716797 12.61469078063965 6.592494964599609 12.61469078063965 C 7.870634078979492 12.61469078063965 10.78079414367676 14.20023918151855 16.71698379516602 17.49875068664551 C 20.77182388305664 19.75186920166016 25.36768341064453 22.30561065673828 29.65457534790039 24.33615875244141 C 34.46936416625977 26.61676025390625 37.96471405029297 27.77312088012695 40.04351425170898 27.77312088012695 C 41.6501350402832 27.77312088012695 41.97289276123047 27.14772987365723 41.97289276123047 26.13866996765137 L 41.97289276123047 18.4912109375 C 41.97289276123047 16.17918968200684 41.26237487792969 13.89934921264648 39.8610725402832 11.71500968933105 C 38.54728317260742 9.667089462280273 36.69108581542969 7.787010192871094 34.34403228759766 6.127010345458984 C 32.1258659362793 4.558158874511719 29.53662490844727 3.256320953369141 26.85624313354492 2.362228393554688 C 24.18458557128906 1.471050262451172 21.46793365478516 1 19.00000381469727 1 M 19.00000381469727 0 C 29.49340438842773 0 42.97289276123047 7.997800827026367 42.97289276123047 18.4912109375 L 42.97289276123047 26.13866996765137 C 42.97289276123047 28.00883483886719 41.86795043945313 28.77312088012695 40.04351806640625 28.77312088012695 C 31.91418075561523 28.77312088012695 9.474737167358398 13.61468696594238 6.592494964599609 13.61468696594238 C 6.492145538330078 13.61468696594238 6.416007995605469 13.63293647766113 6.364505767822266 13.67090034484863 C 4.501705169677734 15.04394912719727 2.823734283447266 19.12891006469727 -0.490234375 27.15819931030273 L -2.274654388427734 29.3251895904541 L -4.569095611572266 17.21680068969727 C -4.569095611572266 6.723390579223633 8.506593704223633 0 19.00000381469727 0 Z" stroke="none"/>
        </g>
      </g>
    </g>
  </g>
</svg>
