<svg xmlns="http://www.w3.org/2000/svg" xmlns:xlink="http://www.w3.org/1999/xlink" width="456.849" height="805.877" viewBox="0 0 456.849 805.877">
  <defs>
    <linearGradient id="linear-gradient" x1="0.5" x2="0.5" y2="1" gradientUnits="objectBoundingBox">
      <stop offset="0" stop-color="#3e569c"/>
      <stop offset="1" stop-color="#3fb1e5"/>
    </linearGradient>
    <linearGradient id="linear-gradient-2" x1="0.5" x2="0.5" y2="1" gradientUnits="objectBoundingBox">
      <stop offset="0.23" stop-color="#fadb5d"/>
      <stop offset="0.97" stop-color="#f08e28"/>
    </linearGradient>
    <linearGradient id="linear-gradient-4" x1="0.5" x2="0.5" y2="1" gradientUnits="objectBoundingBox">
      <stop offset="0.166" stop-color="#ff7878"/>
      <stop offset="0.78" stop-color="#eb5959"/>
    </linearGradient>
  </defs>
  <g id="Group_3988" data-name="Group 3988" transform="translate(-18263.373 -9345.229)">
    <g id="Group_3983" data-name="Group 3983" transform="translate(18264.004 9391.278) rotate(-18)">
      <g id="Group_3978" data-name="Group 3978" transform="translate(-0.001 0)">
        <g id="Group_153" data-name="Group 153" transform="translate(17.655 26.909)">
          <path id="Path_716" data-name="Path 716" d="M212.17,7.3V133.585c-.926-.339-1.855-.654-2.8-.969-1.619-.532-3.226-1.012-4.849-1.477-.945-.276-1.918-.528-2.872-.76-.611-.165-1.225-.315-1.851-.465-1.134-.276-2.277-.524-3.4-.756-.863-.189-1.749-.358-2.635-.528s-1.773-.339-2.639-.465c-.886-.15-1.769-.291-2.635-.4-.882-.15-1.769-.256-2.635-.362-1.812-.232-3.648-.421-5.46-.587-1.564-.13-3.1-.232-4.664-.323-1.895-.1-3.77-.162-5.645-.185-42.663-.7-85.338,15.248-128,14.551-4.68-.087-9.387-.358-14.062-.886-.886-.1-1.8-.213-2.7-.315-1.032-.15-2.064-.3-3.1-.449-.867-.142-1.729-.291-2.616-.437-.926-.169-1.855-.339-2.781-.528-.949-.189-1.875-.4-2.8-.611-.949-.213-1.918-.421-2.868-.678-.76-.189-1.52-.378-2.257-.591-1.623-.421-3.25-.906-4.869-1.434-1.351-.421-2.682-.863-4.03-1.347V7.3c1.347.484,2.679.93,4.03,1.351,1.284.425,2.568.8,3.856,1.162.339.079.674.189,1.012.272.737.213,1.5.4,2.257.591q3.007.756,6.007,1.327c.823.173,1.646.339,2.446.465.867.169,1.749.315,2.616.441,1.54.236,3.057.445,4.6.634.7.083,1.394.165,2.107.232q6.582.691,13.16.78c42.659.7,85.334-15.224,128-14.531,1.875.028,3.75.087,5.645.193,1.54.083,3.1.189,4.664.315,1.241.1,2.509.232,3.754.378.886.11,1.792.213,2.7.315,1.032.15,2.064.3,3.08.445.863.15,1.749.3,2.616.441.945.169,1.875.339,2.8.532,1.875.378,3.754.8,5.609,1.264.784.189,1.564.4,2.32.611C206.246,5.316,209.2,6.246,212.17,7.3Z" stroke="#000" stroke-width="1" fill="url(#linear-gradient)"/>
        </g>
        <g id="Group_154" data-name="Group 154" transform="translate(17.655 34.206)" opacity="0.2">
          <path id="Path_720" data-name="Path 720" d="M4.03,1.351V127.635c-1.351-.421-2.682-.863-4.03-1.347V0C1.347.484,2.679.93,4.03,1.351Z" stroke="#000" stroke-width="1"/>
        </g>
        <g id="Group_155" data-name="Group 155" transform="translate(6.788 12.347)">
          <rect id="Rectangle_281" data-name="Rectangle 281" width="11.178" height="601.664" stroke="#000" stroke-width="1" fill="url(#linear-gradient-2)"/>
        </g>
        <path id="Path_721" data-name="Path 721" d="M11.179,0V14.748A12.334,12.334,0,0,1,0,14.748V0Z" transform="translate(6.787 12.349)" stroke="#000" stroke-width="1" opacity="0.2"/>
        <path id="Path_722" data-name="Path 722" d="M24.725,12.361A12.363,12.363,0,1,1,12.365,0,12.364,12.364,0,0,1,24.725,12.361Z" transform="translate(0 0)" stroke="#000" stroke-width="1" fill="url(#linear-gradient-2)"/>
      </g>
      <path id="Path_4836" data-name="Path 4836" d="M0,.3C.093.2.182.1.272,0,.182.1.091.2,0,.3Z" transform="translate(92.586 93.301)" fill="#f0f0f0" stroke="#000" stroke-width="1"/>
      <path id="Path_4837" data-name="Path 4837" d="M83.405,3.287l1.54,8.413L69.958,20.028H84.945v19.7H65.334l19.611,10.9v7.571H76.092L51.706,44.644V58.191H33.239V42.074L4.229,58.191H0V48.053l14.987-8.328H0v-19.7H19.611L0,9.13V1.562L.317,0,33.239,15.109V6.423H51.706V17.679L78.652,3.958Z" transform="translate(18.46 35.415)" fill="#f0f0f0" stroke="#000" stroke-width="1"/>
      <path id="Path_4838" data-name="Path 4838" d="M48.248,0H37.585l-.421,18.234H0V28.852H37.163V51.859H47.782V28.852H84.945V18.234H47.782Z" transform="translate(18.46 41.747)" stroke="#000" stroke-width="1" fill="url(#linear-gradient-4)"/>
      <path id="Path_4839" data-name="Path 4839" d="M0,0,33.239,18.466V13.244L9.4,0Z" transform="translate(70.164 75.138)" fill="#0052b4" stroke="#000" stroke-width="1"/>
      <path id="Path_4840" data-name="Path 4840" d="M0,0,33.239,18.466V13.244L9.4,0Z" transform="translate(70.164 75.138)" fill="#f0f0f0" stroke="#000" stroke-width="1"/>
      <path id="Path_4841" data-name="Path 4841" d="M0,0,33.239,18.466V13.244L9.4,0Z" transform="translate(70.164 75.138)" stroke="#000" stroke-width="1" fill="url(#linear-gradient-4)"/>
      <path id="Path_4842" data-name="Path 4842" d="M23.84,0,0,13.244v5.222H0L33.239,0Z" transform="translate(18.46 75.138)" stroke="#000" stroke-width="1" fill="url(#linear-gradient-4)"/>
      <path id="Path_4843" data-name="Path 4843" d="M33.239,18.466,0,0V5.222L23.84,18.466Z" transform="translate(18.46 36.975)" fill="#0052b4" stroke="#000" stroke-width="1"/>
      <path id="Path_4844" data-name="Path 4844" d="M33.239,18.466,0,0V5.222L23.84,18.466Z" transform="translate(18.46 36.975)" fill="#f0f0f0" stroke="#000" stroke-width="1"/>
      <path id="Path_4845" data-name="Path 4845" d="M33.239,18.466,0,0V5.222L23.84,18.466Z" transform="translate(18.46 36.975)" stroke="#000" stroke-width="1" fill="url(#linear-gradient-4)"/>
      <path id="Path_4846" data-name="Path 4846" d="M9.4,16.676,32.5,3.989,31.7,0h-.317L0,16.676Z" transform="translate(70.164 38.765)" stroke="#000" stroke-width="1" fill="url(#linear-gradient-4)"/>
      <path id="Path_4847" data-name="Path 4847" d="M17.29,0l4.256,8.9,9.611-2.22-4.3,8.875,7.728,6.128L24.958,23.85l.027,9.863-7.7-6.171L9.6,33.713l.027-9.863L0,21.681l7.728-6.128-4.3-8.875,9.61,2.22Z" transform="translate(69.415 110.018)" fill="#f0f0f0" stroke="#000" stroke-width="1"/>
      <path id="Path_4848" data-name="Path 4848" d="M8.247,0l2.03,4.244L14.86,3.185,12.808,7.418l3.686,2.924L11.9,11.375l.012,4.7-3.67-2.943L4.577,16.08l.012-4.7L0,10.341,3.686,7.418,1.633,3.185,6.217,4.244Z" transform="translate(155.299 121.071)" fill="#f0f0f0" stroke="#000" stroke-width="1"/>
      <path id="Path_4849" data-name="Path 4849" d="M8.247,0l2.03,4.245,4.584-1.06L12.808,7.418l3.686,2.923L11.9,11.376l.012,4.7-3.67-2.944-3.67,2.944.013-4.7L0,10.342,3.686,7.418,1.634,3.185l4.583,1.06Z" transform="translate(136.414 76.045)" fill="#f0f0f0" stroke="#000" stroke-width="1"/>
      <path id="Path_4850" data-name="Path 4850" d="M8.247,0l2.03,4.245,4.584-1.06L12.808,7.418l3.686,2.923L11.9,11.376l.012,4.7-3.67-2.944L4.577,16.08l.012-4.7L0,10.341,3.686,7.418,1.633,3.184l4.584,1.06Z" transform="translate(155.299 50.318)" fill="#f0f0f0" stroke="#000" stroke-width="1"/>
      <path id="Path_4851" data-name="Path 4851" d="M8.247,0l2.03,4.244L14.86,3.185,12.808,7.418l3.686,2.923L11.9,11.375l.013,4.7-3.67-2.943L4.577,16.08l.012-4.7L0,10.341,3.686,7.418,1.633,3.185,6.217,4.244Z" transform="translate(171.793 69.614)" fill="#f0f0f0" stroke="#000" stroke-width="1"/>
      <path id="Path_4852" data-name="Path 4852" d="M6.764,0l1.6,4.913h5.167L9.346,7.95l1.6,4.913L6.764,9.827,2.583,12.864,4.18,7.95,0,4.913H5.167Z" transform="translate(161.478 92.127)" fill="#f0f0f0" stroke="#000" stroke-width="1"/>
    </g>
    <g id="Group_3987" data-name="Group 3987" transform="translate(18489.898 9459.706)">
      <g id="Group_3984" data-name="Group 3984">
        <g id="Group_3978-2" data-name="Group 3978" transform="translate(-0.001 0)">
          <g id="Group_153-2" data-name="Group 153" transform="translate(17.655 26.909)">
            <path id="Path_716-2" data-name="Path 716" d="M363.169,36.183V162.471c-.926-.339-1.855-.654-2.8-.969-1.619-.532-3.226-1.012-4.849-1.477-.945-.276-1.918-.528-2.872-.76-.611-.165-1.225-.315-1.851-.465-1.134-.276-2.277-.524-3.4-.756-.863-.189-1.749-.358-2.635-.528s-1.773-.339-2.639-.465c-.886-.15-1.769-.292-2.635-.4-.882-.15-1.769-.256-2.635-.362-1.812-.232-3.648-.421-5.46-.587-1.564-.13-3.1-.232-4.664-.323-1.895-.1-3.77-.162-5.645-.185-42.663-.7-85.338,15.248-128,14.551-4.68-.087-9.387-.358-14.062-.886-.886-.1-1.8-.213-2.7-.315-1.032-.15-2.064-.3-3.1-.449-.867-.142-1.729-.291-2.616-.437-.926-.169-1.855-.339-2.781-.528-.949-.189-1.875-.4-2.8-.611-.949-.213-1.918-.421-2.868-.678-.76-.189-1.52-.378-2.257-.591-1.623-.421-3.25-.906-4.869-1.434-1.351-.421-2.682-.863-4.03-1.347V36.183c1.347.484,2.679.93,4.03,1.351,1.284.425,2.568.8,3.856,1.162.339.079.674.189,1.012.272.737.213,1.5.4,2.257.591q3.007.756,6.007,1.327c.823.173,1.646.339,2.446.465.867.169,1.749.315,2.616.441,1.54.236,3.057.445,4.6.634.7.083,1.394.165,2.107.232q6.582.691,13.16.78c42.659.7,85.334-15.224,128-14.531,1.875.028,3.75.087,5.645.193,1.54.083,3.1.189,4.664.315,1.241.1,2.509.232,3.754.378.886.11,1.792.213,2.7.315,1.032.15,2.064.3,3.08.445.863.15,1.749.3,2.616.441.945.169,1.875.339,2.8.532,1.875.378,3.754.8,5.609,1.264.784.189,1.564.4,2.32.611C357.245,34.2,360.195,35.131,363.169,36.183Z" transform="translate(-150.999 -28.885)" stroke="#000" stroke-width="1" fill="url(#linear-gradient)"/>
          </g>
          <g id="Group_154-2" data-name="Group 154" transform="translate(17.655 34.206)" opacity="0.2">
            <path id="Path_720-2" data-name="Path 720" d="M155.029,32.089V158.373c-1.351-.421-2.682-.863-4.03-1.347V30.738C152.346,31.222,153.678,31.668,155.029,32.089Z" transform="translate(-150.999 -30.738)" stroke="#000" stroke-width="1"/>
          </g>
          <g id="Group_155-2" data-name="Group 155" transform="translate(6.788 12.347)">
            <rect id="Rectangle_281-2" data-name="Rectangle 281" width="11.178" height="601.664" stroke="#000" stroke-width="1" fill="url(#linear-gradient-2)"/>
          </g>
          <path id="Path_721-2" data-name="Path 721" d="M159.419,25.189V39.937a12.334,12.334,0,0,1-11.179,0V25.189Z" transform="translate(-141.453 -12.84)" stroke="#000" stroke-width="1" opacity="0.2"/>
          <path id="Path_722-2" data-name="Path 722" d="M171.242,34.415a12.363,12.363,0,1,1-12.361-12.361A12.364,12.364,0,0,1,171.242,34.415Z" transform="translate(-146.517 -22.054)" stroke="#000" stroke-width="1" fill="url(#linear-gradient-2)"/>
        </g>
        <path id="Path_4836-2" data-name="Path 4836" d="M223.392,255.384c.091-.1.18-.2.27-.3-.09.1-.181.2-.272.3Z" transform="translate(-130.804 -161.779)" fill="#f0f0f0" stroke="#000" stroke-width="1"/>
        <path id="Path_4837-2" data-name="Path 4837" d="M83.405,87.649l1.54,8.413L69.958,104.39H84.945v19.7H65.334l19.611,10.9v7.571H76.092L51.706,129.006v13.547H33.239V126.435L4.229,142.552H0V132.414l14.987-8.328H0v-19.7H19.611L0,93.491V85.923l.317-1.562L33.239,99.471V90.784H51.706v11.257L78.652,88.319Z" transform="translate(18.46 -48.946)" fill="#f0f0f0" stroke="#000" stroke-width="1"/>
        <path id="Path_4838-2" data-name="Path 4838" d="M48.248,88.3H37.585l-.421,18.234H0V117.15H37.163v23.006H47.782V117.15H84.945V106.532H47.782Z" transform="translate(18.46 -46.551)" stroke="#000" stroke-width="1" fill="url(#linear-gradient-4)"/>
        <path id="Path_4839-2" data-name="Path 4839" d="M155.826,200.344l33.239,18.466v-5.222l-23.84-13.244Z" transform="translate(-85.662 -125.206)" fill="#0052b4" stroke="#000" stroke-width="1"/>
        <path id="Path_4840-2" data-name="Path 4840" d="M155.826,200.344l33.239,18.466v-5.222l-23.84-13.244Z" transform="translate(-85.662 -125.206)" fill="#f0f0f0" stroke="#000" stroke-width="1"/>
        <path id="Path_4841-2" data-name="Path 4841" d="M155.826,200.344l33.239,18.466v-5.222l-23.84-13.244Z" transform="translate(-85.662 -125.206)" stroke="#000" stroke-width="1" fill="url(#linear-gradient-4)"/>
        <path id="Path_4842-2" data-name="Path 4842" d="M23.84,200.344,0,213.588v5.222H0l33.239-18.466Z" transform="translate(18.46 -125.206)" stroke="#000" stroke-width="1" fill="url(#linear-gradient-4)"/>
        <path id="Path_4843-2" data-name="Path 4843" d="M33.239,103.8,0,85.33v5.222L23.84,103.8Z" transform="translate(18.46 -48.355)" fill="#0052b4" stroke="#000" stroke-width="1"/>
        <path id="Path_4844-2" data-name="Path 4844" d="M33.239,103.8,0,85.33v5.222L23.84,103.8Z" transform="translate(18.46 -48.355)" fill="#f0f0f0" stroke="#000" stroke-width="1"/>
        <path id="Path_4845-2" data-name="Path 4845" d="M33.239,103.8,0,85.33v5.222L23.84,103.8Z" transform="translate(18.46 -48.355)" stroke="#000" stroke-width="1" fill="url(#linear-gradient-4)"/>
        <path id="Path_4846-2" data-name="Path 4846" d="M165.226,103.12l23.1-12.687-.8-3.989h-.317L155.826,103.12Z" transform="translate(-85.662 -47.678)" stroke="#000" stroke-width="1" fill="url(#linear-gradient-4)"/>
        <path id="Path_4870" data-name="Path 4870" d="M376.436,344.861a.721.721,0,0,1-.412-.132l-4.194-3-4.194,3a.721.721,0,0,1-.412.132.71.71,0,0,1-.676-.924l1.555-4.914-4.145-3.059a.709.709,0,0,1,.415-1.28l5.154-.042,1.63-4.889a.71.71,0,0,1,1.346,0l1.63,4.889,5.154.042a.709.709,0,0,1,.415,1.28l-4.145,3.059,1.555,4.914a.714.714,0,0,1-.26.789A.722.722,0,0,1,376.436,344.861Z" transform="translate(-210.198 -215.991)" stroke="#000" stroke-width="0.5" fill="url(#linear-gradient-4)"/>
        <path id="Path_4871" data-name="Path 4871" d="M370.774,328.921l1.791,5.37,5.66.044-4.554,3.363,1.707,5.4-4.6-3.291-4.605,3.292,1.708-5.4-4.554-3.363,5.66-.044,1.791-5.371m0-1.417a1.418,1.418,0,0,0-1.345.969l-1.47,4.409-4.647.036a1.418,1.418,0,0,0-.831,2.558l3.738,2.761-1.4,4.431a1.417,1.417,0,0,0,2.176,1.58l3.781-2.7,3.781,2.7a1.417,1.417,0,0,0,2.175-1.58l-1.4-4.431,3.739-2.761a1.418,1.418,0,0,0-.831-2.558l-4.647-.036-1.47-4.409a1.419,1.419,0,0,0-1.345-.969Z" transform="translate(-209.144 -214.933)" fill="#f5f5f5" stroke="#000" stroke-width="0.5"/>
        <path id="Path_4872" data-name="Path 4872" d="M376.436,202.542a.717.717,0,0,1-.412-.132l-4.194-3-4.194,3a.72.72,0,0,1-.412.132.71.71,0,0,1-.676-.924L368.1,196.7l-4.145-3.062a.709.709,0,0,1,.415-1.28l5.154-.038,1.63-4.889a.71.71,0,0,1,1.346,0l1.63,4.889,5.154.038a.709.709,0,0,1,.415,1.28l-4.145,3.062,1.555,4.914a.714.714,0,0,1-.26.789A.721.721,0,0,1,376.436,202.542Z" transform="translate(-210.198 -130.798)" stroke="#000" stroke-width="0.5" fill="url(#linear-gradient-4)"/>
        <path id="Path_4873" data-name="Path 4873" d="M370.774,186.6l1.791,5.37,5.66.044-4.554,3.363,1.707,5.4-4.6-3.292-4.605,3.292,1.708-5.4-4.554-3.363,5.66-.044,1.791-5.37m0-1.417a1.418,1.418,0,0,0-1.345.969l-1.47,4.409-4.647.036a1.418,1.418,0,0,0-.831,2.558l3.738,2.761-1.4,4.431a1.417,1.417,0,0,0,2.176,1.58l3.781-2.7,3.781,2.7a1.417,1.417,0,0,0,2.175-1.58l-1.4-4.431,3.739-2.761a1.418,1.418,0,0,0-.831-2.558l-4.647-.036-1.47-4.409a1.419,1.419,0,0,0-1.345-.969Z" transform="translate(-209.144 -129.741)" fill="#f5f5f5" stroke="#000" stroke-width="0.5"/>
        <path id="Path_4874" data-name="Path 4874" d="M438.229,246.679a.717.717,0,0,1-.412-.132l-4.193-3-4.194,3a.72.72,0,0,1-.412.132.71.71,0,0,1-.676-.924l1.555-4.914-4.145-3.062a.709.709,0,0,1,.415-1.28l5.154-.038,1.63-4.889a.71.71,0,0,1,1.346,0l1.63,4.889,5.154.038a.709.709,0,0,1,.415,1.28l-4.145,3.062,1.555,4.914a.714.714,0,0,1-.26.789A.724.724,0,0,1,438.229,246.679Z" transform="translate(-247.191 -157.219)" stroke="#000" stroke-width="0.5" fill="url(#linear-gradient-4)"/>
        <path id="Path_4875" data-name="Path 4875" d="M432.567,230.738l1.791,5.37,5.66.044-4.554,3.362,1.707,5.4-4.605-3.292-4.605,3.292,1.708-5.4-4.554-3.363,5.66-.044,1.791-5.37m0-1.417a1.418,1.418,0,0,0-1.345.969l-1.47,4.409-4.647.036a1.418,1.418,0,0,0-.831,2.558l3.739,2.761-1.4,4.431a1.417,1.417,0,0,0,2.176,1.58l3.781-2.7,3.781,2.7a1.417,1.417,0,0,0,2.176-1.58l-1.4-4.431,3.739-2.761a1.418,1.418,0,0,0-.831-2.558l-4.647-.036-1.47-4.409a1.418,1.418,0,0,0-1.345-.969Z" transform="translate(-246.132 -156.163)" fill="#f5f5f5" stroke="#000" stroke-width="0.5"/>
        <path id="Path_4876" data-name="Path 4876" d="M314.643,264.334a.717.717,0,0,1-.412-.132l-4.193-3-4.194,3a.72.72,0,0,1-.412.132.71.71,0,0,1-.676-.924l1.555-4.914-4.145-3.062a.709.709,0,0,1,.415-1.28l5.154-.038,1.63-4.889a.71.71,0,0,1,1.346,0l1.63,4.889,5.154.038a.709.709,0,0,1,.415,1.28l-4.145,3.062,1.555,4.914a.713.713,0,0,1-.26.789A.721.721,0,0,1,314.643,264.334Z" transform="translate(-173.212 -167.786)" stroke="#000" stroke-width="0.5" fill="url(#linear-gradient-4)"/>
        <path id="Path_4877" data-name="Path 4877" d="M308.981,248.393l1.791,5.37,5.66.044-4.554,3.363,1.707,5.4-4.605-3.292-4.605,3.292,1.708-5.4-4.554-3.363,5.66-.044,1.791-5.37m0-1.417a1.418,1.418,0,0,0-1.345.969l-1.47,4.409-4.647.036a1.418,1.418,0,0,0-.831,2.558l3.739,2.761-1.4,4.431a1.417,1.417,0,0,0,2.176,1.58l3.781-2.7,3.781,2.7a1.417,1.417,0,0,0,2.175-1.58l-1.4-4.431,3.739-2.761a1.418,1.418,0,0,0-.831-2.558l-4.647-.036-1.47-4.409a1.418,1.418,0,0,0-1.345-.969Z" transform="translate(-172.153 -166.73)" fill="#f5f5f5" stroke="#000" stroke-width="0.5"/>
      </g>
    </g>
    <g id="Group_3993" data-name="Group 3993" transform="matrix(0.985, -0.174, 0.174, 0.985, 18264.707, 9547.022)">
      <g id="Group_153-3" data-name="Group 153" transform="translate(17.655 26.909)">
        <path id="Path_716-3" data-name="Path 716" d="M212.17,7.3V133.585c-.926-.339-1.855-.654-2.8-.969-1.619-.532-3.226-1.012-4.849-1.477-.945-.276-1.918-.528-2.872-.76-.611-.165-1.225-.315-1.851-.465-1.134-.276-2.277-.524-3.4-.756-.863-.189-1.749-.358-2.635-.528s-1.773-.339-2.639-.465c-.886-.15-1.769-.291-2.635-.4-.882-.15-1.769-.256-2.635-.362-1.812-.232-3.648-.421-5.46-.587-1.564-.13-3.1-.232-4.664-.323-1.895-.1-3.77-.162-5.645-.185-42.663-.7-85.338,15.248-128,14.551-4.68-.087-9.387-.358-14.062-.886-.886-.1-1.8-.213-2.7-.315-1.032-.15-2.064-.3-3.1-.449-.867-.142-1.729-.291-2.616-.437-.926-.169-1.855-.339-2.781-.528-.949-.189-1.875-.4-2.8-.611-.949-.213-1.918-.421-2.868-.678-.76-.189-1.52-.378-2.257-.591-1.623-.421-3.25-.906-4.869-1.434-1.351-.421-2.682-.863-4.03-1.347V7.3c1.347.484,2.679.93,4.03,1.351,1.284.425,2.568.8,3.856,1.162.339.079.674.189,1.012.272.737.213,1.5.4,2.257.591q3.007.756,6.007,1.327c.823.173,1.646.339,2.446.465.867.169,1.749.315,2.616.441,1.54.236,3.057.445,4.6.634.7.083,1.394.165,2.107.232q6.582.691,13.16.78c42.659.7,85.334-15.224,128-14.531,1.875.028,3.75.087,5.645.193,1.54.083,3.1.189,4.664.315,1.241.1,2.509.232,3.754.378.886.11,1.792.213,2.7.315,1.032.15,2.064.3,3.08.445.863.15,1.749.3,2.616.441.945.169,1.875.339,2.8.532,1.875.378,3.754.8,5.609,1.264.784.189,1.564.4,2.32.611C206.246,5.316,209.2,6.246,212.17,7.3Z" fill="#f2f2f2" stroke="#000" stroke-width="1"/>
        <path id="Path_717" data-name="Path 717" d="M42.088,7.256V133.563c-4.68-.087-9.387-.358-14.062-.886-.886-.1-1.8-.213-2.7-.315-1.032-.15-2.064-.3-3.1-.449-.867-.142-1.729-.291-2.616-.437-.926-.169-1.855-.339-2.781-.528-.949-.189-1.875-.4-2.8-.611-.949-.213-1.918-.421-2.868-.678-.76-.189-1.52-.378-2.257-.591-1.623-.421-3.25-.906-4.869-1.434-1.351-.421-2.682-.863-4.03-1.347V0C1.347.484,2.679.93,4.03,1.351c1.284.425,2.568.8,3.856,1.162.339.079.674.189,1.012.272.76.213,1.5.4,2.257.591q3.007.756,6.007,1.327c.823.173,1.627.339,2.446.465.867.146,1.749.291,2.616.441,1.54.236,3.057.445,4.6.634.7.083,1.41.165,2.107.232Q35.51,7.167,42.088,7.256Z" transform="translate(0 7.297)" stroke="#000" stroke-width="1" fill="url(#linear-gradient-4)"/>
        <path id="Path_718" data-name="Path 718" d="M42.1,133.567A129.945,129.945,0,0,0,0,126.3V0A130.063,130.063,0,0,1,42.1,7.271Z" transform="translate(170.074 0.018)" stroke="#000" stroke-width="1" fill="url(#linear-gradient-4)"/>
        <path id="Path_719" data-name="Path 719" d="M93.988,45c-1.895-.473-2-2.036-1.367-4.518S96.3,26.706,96.3,26.71c0-.035-7.791,1.9-10.627,3.009-2.844,1.064-5.16,1.8-5.9-1.375C79.5,27.14,78.413,23.9,78.413,23.9c0-.024-8.315,10.36-10.946,13.444-2.635,3.061-4.739,2.9-3.474-2.9.6-2.745,4.526-24.118,4.526-24.115s-3.734,2.17-5.16,3.065c-1.985,1.237-4.522,3.931-6.629-.433C56.079,11.612,49.151,0,49.151,0s-6.925,14.082-7.579,15.661c-2.1,5.1-4.636,3.293-6.629,2.722-1.426-.4-5.156-1.355-5.156-1.359s3.927,20.085,4.53,22.618c1.26,5.365-.847,6.251-3.478,4.053C28.207,41.521,19.892,33.584,19.892,33.56c0,0-1.087,3.529-1.367,4.817-.737,3.36-3.053,3.246-5.9,2.84C9.788,40.851,2,40.26,2,40.225,2,40.233,5.054,51.038,5.684,53.4s.524,3.955-1.367,4.746-4.317,2-4.317,2c0,.236,20.073,14.692,21.361,15.3.953.607,3.793,2.71,3.21,5.322s-1.942,6.6-1.942,6.6c0,.11,19.262-5.7,21.468-6.59,2.214-.815,3.9-.906,3.9,2.147s-.847,23.933-.847,23.933c.67-.114,1.335-.236,2-.354l2-.355s-.839-20.585-.839-23.638,1.682-3.565,3.888-3.537c2.218-.039,21.475-.591,21.475-.484a61.192,61.192,0,0,1-1.95-6.027c-.575-2.442,2.265-5.392,3.214-6.259,1.288-1.4,21.365-20.093,21.365-19.849C98.305,46.362,95.883,45.464,93.988,45Z" transform="translate(56.934 19.079)" stroke="#000" stroke-width="1" fill="url(#linear-gradient-4)"/>
      </g>
      <g id="Group_154-3" data-name="Group 154" transform="translate(17.655 34.206)" opacity="0.2">
        <path id="Path_720-3" data-name="Path 720" d="M4.03,1.351V127.635c-1.351-.421-2.682-.863-4.03-1.347V0C1.347.484,2.679.93,4.03,1.351Z" stroke="#000" stroke-width="1"/>
      </g>
      <g id="Group_155-3" data-name="Group 155" transform="translate(6.788 12.347)">
        <rect id="Rectangle_281-3" data-name="Rectangle 281" width="11.178" height="601.664" stroke="#000" stroke-width="1" fill="url(#linear-gradient-2)"/>
      </g>
      <path id="Path_721-3" data-name="Path 721" d="M11.179,0V14.748A12.334,12.334,0,0,1,0,14.748V0Z" transform="translate(6.787 12.349)" stroke="#000" stroke-width="1" opacity="0.2"/>
      <path id="Path_722-3" data-name="Path 722" d="M24.725,12.361A12.363,12.363,0,1,1,12.365,0,12.364,12.364,0,0,1,24.725,12.361Z" stroke="#000" stroke-width="1" fill="url(#linear-gradient-2)"/>
    </g>
  </g>
</svg>
