<svg xmlns="http://www.w3.org/2000/svg" xmlns:xlink="http://www.w3.org/1999/xlink" width="241.574" height="247.326" viewBox="0 0 241.574 247.326">
  <defs>
    <linearGradient id="linear-gradient" x1="0.5" x2="0.5" y2="1" gradientUnits="objectBoundingBox">
      <stop offset="0.166" stop-color="#ff7878"/>
      <stop offset="0.78" stop-color="#eb5959"/>
    </linearGradient>
    <linearGradient id="linear-gradient-2" x1="0.5" x2="0.5" y2="1" gradientUnits="objectBoundingBox">
      <stop offset="0.106" stop-color="#00bacf"/>
      <stop offset="0.809" stop-color="#008db0"/>
    </linearGradient>
    <linearGradient id="linear-gradient-3" x1="0.5" x2="0.5" y2="1" gradientUnits="objectBoundingBox">
      <stop offset="0.126" stop-color="#007880"/>
      <stop offset="0.75" stop-color="#006269"/>
    </linearGradient>
    <linearGradient id="linear-gradient-4" x1="0.5" x2="0.5" y2="1" gradientUnits="objectBoundingBox">
      <stop offset="0.23" stop-color="#fadb5d"/>
      <stop offset="0.97" stop-color="#f08e28"/>
    </linearGradient>
    <linearGradient id="linear-gradient-5" x1="0.5" x2="0.5" y2="1" gradientUnits="objectBoundingBox">
      <stop offset="0" stop-color="#fff"/>
      <stop offset="1" stop-color="#e6e6e6"/>
    </linearGradient>
    <radialGradient id="radial-gradient" cx="0.5" cy="0.5" r="0.85" gradientTransform="matrix(0.867, -0.043, 0.033, 0.867, 0.05, 0.088)" gradientUnits="objectBoundingBox">
      <stop offset="0" stop-color="#fadb5d"/>
      <stop offset="0.23" stop-color="#fadb5d"/>
      <stop offset="0.97" stop-color="#f08e28"/>
      <stop offset="1" stop-color="#f08e28"/>
    </radialGradient>
  </defs>
  <g id="frying-pan" transform="translate(0.43 0.5)">
    <path id="Path_3035" data-name="Path 3035" d="M48.871,387.015C23.214,412.671,14.925,411.487,9.4,405.961c-5.921-5.921-6.71-14.21,18.946-39.471C54,340.833,87.552,316.361,93.473,322.282S74.527,361.358,48.871,387.015Z" transform="translate(-5.978 -162.818)" stroke="#000" stroke-width="1" fill="url(#linear-gradient)"/>
    <ellipse id="Ellipse_40" data-name="Ellipse 40" cx="104.993" cy="104.993" rx="104.993" ry="104.993" transform="translate(30.657 0)" stroke="#000" stroke-width="1" fill="url(#linear-gradient-2)"/>
    <ellipse id="Ellipse_41" data-name="Ellipse 41" cx="82.889" cy="82.89" rx="82.889" ry="82.89" transform="translate(52.761 22.104)" stroke="#000" stroke-width="1" fill="url(#linear-gradient-3)"/>
    <path id="Path_3042" data-name="Path 3042" d="M33.282,460.559c1.974,1.974.789,6.315-1.184,8.289a5.024,5.024,0,0,1-7.1-7.1C26.967,459.769,31.309,458.585,33.282,460.559Z" transform="translate(-14.861 -232.81)" stroke="#000" stroke-width="1" fill="url(#linear-gradient-4)"/>
    <path id="Path_3044" data-name="Path 3044" d="M289.127,113.465c21.709,21.709,18.157,60.391-7.894,86.047-26.051,26.051-64.733,29.6-86.047,7.894s-3.552-45.392,22.5-71.048S267.417,91.756,289.127,113.465Z" transform="translate(-97.033 -52.679)" stroke="#000" stroke-width="1" fill="url(#linear-gradient-5)"/>
    <path id="Path_3045" data-name="Path 3045" d="M286.266,111.2a25.534,25.534,0,0,0-3.552-3.158c-20.13-13.42-41.84,4.342-65.522,27.63-26.051,26.051-44.6,49.734-22.893,71.443a39.85,39.85,0,0,0,6.315,5.131c19.736,12.236,42.629,2.763,65.127-19.736C291.792,166.464,307.581,132.914,286.266,111.2Z" transform="translate(-96.54 -52.393)" fill="#fffef5" stroke="#000" stroke-width="1"/>
    <g id="Group_557" data-name="Group 557" transform="translate(125.937 80.208)">
      <path id="Path_3046" data-name="Path 3046" d="M265.414,165.641C278.834,154.984,251.2,176.3,265.414,165.641Z" transform="translate(-261.227 -162.565)" fill="#f4f3ea" stroke="#000" stroke-width="1"/>
    </g>
    <path id="Path_3047" data-name="Path 3047" d="M291.056,157.4c7.1,9.473.79,19.341-13.42,30-13.815,10.657-30.393,18.157-37.5,8.684s-1.579-25.656,12.631-36.314C266.584,149.116,283.952,147.931,291.056,157.4Z" transform="translate(-123.04 -76.489)" stroke="#000" stroke-width="1" fill="url(#radial-gradient)"/>
  </g>
</svg>
