<svg xmlns="http://www.w3.org/2000/svg" xmlns:xlink="http://www.w3.org/1999/xlink" width="33.679" height="33.679" viewBox="0 0 33.679 33.679">
  <defs>
    <linearGradient id="linear-gradient" x1="1" y1="-0.052" x2="0.419" y2="0.864" gradientUnits="objectBoundingBox">
      <stop offset="0" stop-color="#ffe978"/>
      <stop offset="0.166" stop-color="#b335df"/>
      <stop offset="0.78" stop-color="#eb5959"/>
      <stop offset="1" stop-color="#ebd359"/>
    </linearGradient>
  </defs>
  <g id="instagram" transform="translate(0.5 0.5)">
    <path id="Path_2979" data-name="Path 2979" d="M22.467,0H10.212A10.213,10.213,0,0,0,0,10.212V22.467A10.213,10.213,0,0,0,10.212,32.679H22.467A10.213,10.213,0,0,0,32.679,22.467V10.212A10.213,10.213,0,0,0,22.467,0Zm7.148,22.467a7.156,7.156,0,0,1-7.148,7.148H10.212a7.156,7.156,0,0,1-7.148-7.148V10.212a7.156,7.156,0,0,1,7.148-7.148H22.467a7.156,7.156,0,0,1,7.148,7.148Z" stroke="#000" stroke-width="1" fill="url(#linear-gradient)"/>
    <path id="Path_2980" data-name="Path 2980" d="M136.17,128a8.17,8.17,0,1,0,8.17,8.17A8.17,8.17,0,0,0,136.17,128Zm0,13.276a5.106,5.106,0,1,1,5.106-5.106A5.113,5.113,0,0,1,136.17,141.276Z" transform="translate(-119.83 -119.83)" stroke="#000" stroke-width="1" fill="url(#linear-gradient)"/>
    <ellipse id="Ellipse_31" data-name="Ellipse 31" cx="1.089" cy="1.089" rx="1.089" ry="1.089" transform="translate(24.033 6.468)" stroke="#000" stroke-width="1" fill="url(#linear-gradient)"/>
  </g>
</svg>
