<svg xmlns="http://www.w3.org/2000/svg" xmlns:xlink="http://www.w3.org/1999/xlink" width="717.318" height="737.413" viewBox="0 0 717.318 737.413">
  <defs>
    <linearGradient id="linear-gradient" x1="0.521" y1="0.896" x2="0.517" y2="0.03" gradientUnits="objectBoundingBox">
      <stop offset="0" stop-color="#fff"/>
      <stop offset="1" stop-color="#e6e6e6"/>
    </linearGradient>
    <linearGradient id="linear-gradient-2" x1="0.5" y1="0" x2="0.5" y2="1" xlink:href="#linear-gradient"/>
    <linearGradient id="linear-gradient-4" x1="0.5" y1="1" x2="0.5" y2="0" xlink:href="#linear-gradient"/>
    <linearGradient id="linear-gradient-8" x1="0.5" x2="0.5" y2="1" gradientUnits="objectBoundingBox">
      <stop offset="0" stop-color="#f9a654"/>
      <stop offset="1" stop-color="#f24a00"/>
    </linearGradient>
    <linearGradient id="linear-gradient-9" x1="0.5" x2="0.5" y2="1" gradientUnits="objectBoundingBox">
      <stop offset="0.092" stop-color="#ffbd8a"/>
      <stop offset="0.844" stop-color="#f09a59"/>
    </linearGradient>
    <linearGradient id="linear-gradient-12" x1="0.435" y1="-2.768" x2="0.5" y2="1" gradientUnits="objectBoundingBox">
      <stop offset="0" stop-color="#ffbd8a"/>
      <stop offset="0.5" stop-color="#ffbd8a"/>
      <stop offset="0.844" stop-color="#f09a59"/>
      <stop offset="1" stop-color="#f09a59"/>
    </linearGradient>
    <linearGradient id="linear-gradient-14" x1="0.5" x2="0.5" y2="1" gradientUnits="objectBoundingBox">
      <stop offset="0.166" stop-color="#ff7878"/>
      <stop offset="0.78" stop-color="#eb5959"/>
    </linearGradient>
    <linearGradient id="linear-gradient-18" x1="0.5" x2="0.5" y2="1" gradientUnits="objectBoundingBox">
      <stop offset="0.23" stop-color="#fadb5d"/>
      <stop offset="0.97" stop-color="#f08e28"/>
    </linearGradient>
    <linearGradient id="linear-gradient-19" x1="0.5" x2="0.5" y2="1" gradientUnits="objectBoundingBox">
      <stop offset="0.106" stop-color="#00bacf"/>
      <stop offset="0.809" stop-color="#008db0"/>
    </linearGradient>
    <linearGradient id="linear-gradient-20" y1="1" y2="0" xlink:href="#linear-gradient-19"/>
    <linearGradient id="linear-gradient-25" y1="1" y2="0" xlink:href="#linear-gradient-14"/>
  </defs>
  <g id="Group_4342" data-name="Group 4342" transform="translate(-603.264 -113.464)">
    <g id="Group_4341" data-name="Group 4341">
      <path id="Path_2807" data-name="Path 2807" d="M358.659,0C556.741,0,717.318,160.577,717.318,358.659S556.741,717.318,358.659,717.318,0,556.741,0,358.659,160.577,0,358.659,0Z" transform="translate(603.263 128.961)" fill="url(#linear-gradient)"/>
      <g id="Group_4340" data-name="Group 4340" transform="translate(-66 -49)">
        <path id="Path_5378" data-name="Path 5378" d="M0,2.552.887,0A44.281,44.281,0,0,1,10.936,4.994l-1.5,2.245A41.654,41.654,0,0,0,0,2.552Zm23.679,20.18a51.535,51.535,0,0,0-6.265-8.584l2-1.816a54.54,54.54,0,0,1,6.6,9.031Z" transform="matrix(-0.921, 0.391, -0.391, -0.921, 967.677, 888.86)" stroke="#000" stroke-width="1" fill="url(#linear-gradient-2)"/>
        <path id="Path_5379" data-name="Path 5379" d="M0,2.552.887,0A44.281,44.281,0,0,1,10.936,4.994l-1.5,2.245A41.654,41.654,0,0,0,0,2.552Zm23.679,20.18a51.535,51.535,0,0,0-6.265-8.584l2-1.816a54.54,54.54,0,0,1,6.6,9.031Z" transform="translate(931.559 872.92) rotate(-149)" stroke="#000" stroke-width="1" fill="url(#linear-gradient-2)"/>
        <path id="Path_5377" data-name="Path 5377" d="M43.244,0c-1.584,0-3.228.048-4.887.145L38.5,2.682a77.53,77.53,0,0,1,10.1.055L48.794.2C47,.067,45.136,0,43.244,0ZM28,1.307a67.735,67.735,0,0,0-10.159,2.5l.808,2.411a65.129,65.129,0,0,1,9.775-2.406Zm31.139.5-.606,2.468a49.264,49.264,0,0,1,9.423,3.33l1.094-2.294A51.693,51.693,0,0,0,59.142,1.809ZM8.258,8.164A37.886,37.886,0,0,0,0,14.8L1.861,16.53a35.3,35.3,0,0,1,7.706-6.187Zm69.735,2.728-1.585,1.985a44.182,44.182,0,0,1,7.025,7.064l1.99-1.581A46.62,46.62,0,0,0,77.992,10.892ZM91.083,27.216,88.82,28.372a62.138,62.138,0,0,1,3.8,9.315l2.423-.773A64.634,64.634,0,0,0,91.083,27.216ZM97.53,47.055l-2.5.449a96.169,96.169,0,0,1,1.24,10.066l2.536-.18A98.535,98.535,0,0,0,97.53,47.055Zm-1,20.679c-.052,3.294-.239,6.717-.553,10.173l2.532.229c.319-3.518.51-7,.563-10.358ZM94.726,88.027c-.515,3.287-1.144,6.662-1.872,10.036l2.485.536c.738-3.42,1.376-6.844,1.9-10.179Z" transform="matrix(0.719, -0.695, 0.695, 0.719, 909.852, 823.11)" stroke="#000" stroke-width="1" fill="url(#linear-gradient-4)"/>
        <path id="Path_5400" data-name="Path 5400" d="M43.244,0c-1.584,0-3.228.048-4.887.145L38.5,2.682a77.531,77.531,0,0,1,10.1.055L48.794.2C47,.067,45.136,0,43.244,0ZM28,1.307a67.737,67.737,0,0,0-10.159,2.5l.808,2.411a65.13,65.13,0,0,1,9.775-2.406Zm31.139.5-.606,2.468a49.265,49.265,0,0,1,9.423,3.33l1.094-2.294A51.693,51.693,0,0,0,59.142,1.809ZM8.258,8.164A37.886,37.886,0,0,0,0,14.8L1.861,16.53a35.3,35.3,0,0,1,7.706-6.187Zm69.735,2.729-1.585,1.985a44.182,44.182,0,0,1,7.025,7.064l1.99-1.581A46.62,46.62,0,0,0,77.992,10.892ZM91.083,27.216,88.82,28.372a62.138,62.138,0,0,1,3.8,9.315l2.423-.773A64.633,64.633,0,0,0,91.083,27.216ZM97.53,47.055l-2.5.449a96.169,96.169,0,0,1,1.24,10.066l2.536-.18A98.534,98.534,0,0,0,97.53,47.055Z" transform="matrix(-0.719, 0.695, -0.695, -0.719, 1161.082, 807.981)" stroke="#000" stroke-width="1" fill="url(#linear-gradient-4)"/>
      </g>
      <g id="Group_4339" data-name="Group 4339" transform="translate(-18925 -801)">
        <path id="Path_5501" data-name="Path 5501" d="M42.559,195.945c-1.559,0-3.177-.048-4.81-.143l.143-2.5a76.306,76.306,0,0,0,9.944-.054l.185,2.494C46.261,195.878,44.422,195.945,42.559,195.945Zm-15-1.286a66.665,66.665,0,0,1-10-2.462l.8-2.373a64.1,64.1,0,0,0,9.62,2.368Zm30.646-.494-.6-2.429a48.484,48.484,0,0,0,9.274-3.277l1.077,2.258A50.874,50.874,0,0,1,58.206,194.165ZM8.127,187.91A37.287,37.287,0,0,1,0,181.379l1.831-1.7a34.741,34.741,0,0,0,7.584,6.089Zm68.631-2.685-1.56-1.954a43.484,43.484,0,0,0,6.913-6.952l1.959,1.556A45.882,45.882,0,0,1,76.758,185.225Zm12.884-16.066-2.228-1.137a61.153,61.153,0,0,0,3.739-9.168l2.384.761A63.61,63.61,0,0,1,89.641,169.159Zm6.344-19.525-2.463-.442a94.648,94.648,0,0,0,1.221-9.907l2.5.178A96.983,96.983,0,0,1,95.986,149.634Zm-.98-20.351c-.051-3.242-.235-6.611-.544-10.012l2.492-.225c.314,3.462.5,6.893.554,10.194Zm-1.78-19.972c-.507-3.235-1.126-6.557-1.843-9.877l2.445-.528c.727,3.366,1.355,6.736,1.868,10.018ZM89,89.668c-.866-3.188-1.83-6.431-2.87-9.637l2.379-.772c1.052,3.243,2.029,6.526,2.9,9.754ZM82.918,70.426c-1.021-3.216-1.97-6.51-2.821-9.789l2.42-.629c.841,3.237,1.777,6.488,2.786,9.66ZM77.8,50.71c-.673-3.319-1.266-6.695-1.76-10.037l2.475-.365c.488,3.3,1.071,6.63,1.736,9.9ZM74.832,30.554c-.311-3.4-.528-6.82-.642-10.173l2.5-.086c.113,3.307.325,6.682.632,10.031Zm1.819-20.3-2.5-.066c.091-3.439.294-6.866.6-10.184l2.49.231C76.941,3.5,76.741,6.867,76.651,10.251Z" transform="matrix(0.07, 0.998, -0.998, 0.07, 19978.891, 1161.435)" stroke="#000" stroke-width="1" fill="url(#linear-gradient-2)"/>
        <g id="Group_4329" data-name="Group 4329" transform="translate(19779.084 1333.422) rotate(-21)">
          <g id="Group_4320" data-name="Group 4320" transform="translate(131.891 0) rotate(45)">
            <rect id="Rectangle_38" data-name="Rectangle 38" width="30.991" height="44.02" transform="translate(23.099 44.514) rotate(-45)" stroke="#000" stroke-width="1" fill="url(#linear-gradient-2)"/>
            <path id="Path_545" data-name="Path 545" d="M43.359,11.892,31.468,0A50.23,50.23,0,0,1,0,30.477L12.387,42.864A21.9,21.9,0,1,0,43.359,11.892Z" transform="translate(0 0)" stroke="#000" stroke-width="1" fill="url(#linear-gradient-8)"/>
          </g>
          <g id="research" transform="translate(0 84.072)">
            <path id="Path_5466" data-name="Path 5466" d="M145.067,54.239a16.088,16.088,0,0,0-4.855,11.607,16.514,16.514,0,0,0,16.461,16.461,16.462,16.462,0,0,0,0,32.923,16.461,16.461,0,0,0,0,32.923s-59.983,17.424-98.769,0S-6.7,115.5,1.532,78.457,90.827,0,90.827,0H164.9a16.514,16.514,0,0,1,16.461,16.461A16.587,16.587,0,0,1,164.9,32.923H140.212a16.514,16.514,0,0,0,16.461,16.461,16.088,16.088,0,0,0-11.607,4.855Zm0,0" transform="translate(0 34.157)" stroke="#000" stroke-width="1" fill="url(#linear-gradient-9)"/>
            <path id="Path_5467" data-name="Path 5467" d="M82.307,0V32.923H16.461A16.514,16.514,0,0,1,0,16.461,16.587,16.587,0,0,1,16.461,0Zm0,0" transform="translate(140.212 83.541)" stroke="#000" stroke-width="1" fill="url(#linear-gradient-9)"/>
            <path id="Path_5468" data-name="Path 5468" d="M82.307,0V16.461A16.514,16.514,0,0,1,65.846,32.923H16.461A16.514,16.514,0,0,1,0,16.461,16.587,16.587,0,0,1,16.461,0Zm0,0" transform="translate(140.212 149.387)" stroke="#000" stroke-width="1" fill="url(#linear-gradient-9)"/>
            <path id="Path_5469" data-name="Path 5469" d="M82.307,0V32.923H16.461A16.514,16.514,0,0,1,0,16.461,16.587,16.587,0,0,1,16.461,0Zm0,0" transform="translate(140.212 116.464)" stroke="#000" stroke-width="1" fill="url(#linear-gradient-12)"/>
            <path id="Path_5470" data-name="Path 5470" d="M24.692,16.462A16.587,16.587,0,0,0,41.154,0H65.846A16.514,16.514,0,0,1,82.307,16.462V32.923H16.461A16.514,16.514,0,0,1,0,16.462Zm0,0" transform="translate(140.212 50.618)" stroke="#000" stroke-width="1" fill="url(#linear-gradient-12)"/>
            <path id="Path_5475" data-name="Path 5475" d="M24.692,98.769a16.456,16.456,0,0,0,8.231,14.239v2.222H0V36.709a45.343,45.343,0,0,0,8.231-9.465A48.573,48.573,0,0,0,16.461,0h8.231a16.457,16.457,0,0,0,8.231,14.239v4.445a15,15,0,0,0-3.376,2.632,16.088,16.088,0,0,0-4.855,11.607,16.456,16.456,0,0,0,8.231,14.239v4.445a15,15,0,0,0-3.376,2.632,16.088,16.088,0,0,0-4.855,11.607,16.456,16.456,0,0,0,8.231,14.239V84.53a15,15,0,0,0-3.376,2.632,16.088,16.088,0,0,0-4.855,11.607Zm0,0" transform="translate(115.519 67.079)" stroke="#000" stroke-width="1" fill="url(#linear-gradient-14)"/>
            <path id="Path_5476" data-name="Path 5476" d="M32.923,0V16.461A16.514,16.514,0,0,1,16.461,32.923,16.587,16.587,0,0,1,0,16.461V0Zm0,0" transform="translate(115.519 182.31)" stroke="#000" stroke-width="1" fill="url(#linear-gradient-14)"/>
            <path id="Path_5477" data-name="Path 5477" d="M32.923,0V34.157H0V0A110.521,110.521,0,0,0,32.923,0Zm0,0" transform="translate(115.519 0)" stroke="#000" stroke-width="1" fill="url(#linear-gradient-14)"/>
          </g>
        </g>
        <g id="Group_4331" data-name="Group 4331" transform="matrix(0.259, -0.966, 0.966, 0.259, 19745.234, 1264.118)">
          <path id="Path_224" data-name="Path 224" d="M16.725,17.345,14.32,18.573a66.026,66.026,0,0,1,4.037,9.9l2.574-.821A68.675,68.675,0,0,0,16.725,17.345Zm6.849,21.079-2.659.477a102.185,102.185,0,0,1,1.318,10.7l2.694-.192A104.693,104.693,0,0,0,23.574,38.424ZM22.517,60.4c-.055,3.5-.254,7.137-.587,10.809l2.69.243c.339-3.738.542-7.442.6-11.006ZM20.595,81.959c-.547,3.492-1.215,7.079-1.989,10.663l2.64.57c.785-3.634,1.463-7.272,2.016-10.816Zm-4.559,21.206c-.935,3.442-1.976,6.943-3.1,10.4l2.569.833c1.136-3.5,2.191-7.045,3.136-10.531Zm-6.57,20.774c-1.1,3.472-2.127,7.028-3.045,10.569l2.613.679c.908-3.495,1.919-7,3.008-10.43ZM3.944,145.224c-.727,3.583-1.367,7.228-1.9,10.836l2.673.394c.527-3.56,1.156-7.157,1.874-10.691ZM.736,166.986c-.336,3.666-.57,7.363-.693,10.983l2.7.093c.122-3.571.351-7.214.682-10.829ZM2.7,188.9l-2.7.072c.1,3.712.317,7.413.652,11l2.689-.25C3.013,196.2,2.8,192.558,2.7,188.9Zm2.031,21.554-2.664.446c.62,3.7,1.383,7.337,2.267,10.8l2.616-.668C6.085,217.646,5.338,214.086,4.731,210.459Zm5.381,20.894-2.539.922a93.024,93.024,0,0,0,4.374,10.18l2.412-1.218A90.051,90.051,0,0,1,10.112,231.353Zm9.749,19.076-2.2,1.561a59.7,59.7,0,0,0,7.247,8.482l1.874-1.945A57.076,57.076,0,0,1,19.861,250.43Zm66.277,12.945a87.069,87.069,0,0,1-9.934,4.113l.871,2.558a90.2,90.2,0,0,0,10.242-4.24Zm-50.973,1.6-1.384,2.32a44.283,44.283,0,0,0,10.285,4.488l.756-2.592A41.656,41.656,0,0,1,35.165,264.977Zm30.679,5.168a51.538,51.538,0,0,1-10.6.718l-.107,2.7a54.54,54.54,0,0,0,11.157-.752Z" transform="translate(0 61.743) rotate(-45)" stroke="#000" stroke-width="1" fill="url(#linear-gradient-4)"/>
        </g>
        <g id="Group_4333" data-name="Group 4333" transform="translate(19794.084 984.687) rotate(24)">
          <path id="Path_550" data-name="Path 550" d="M250.754,43.025a146.887,146.887,0,1,0,0,207.731A146.882,146.882,0,0,0,250.754,43.025Zm-16.534,191.2a123.5,123.5,0,1,1,0-174.662A123.5,123.5,0,0,1,234.22,234.221Z" transform="translate(0 0)" stroke="#000" stroke-width="1" fill="url(#linear-gradient-18)"/>
          <ellipse id="Ellipse_1" data-name="Ellipse 1" cx="123.504" cy="123.504" rx="123.504" ry="123.504" transform="translate(23.386 23.386)" stroke="#000" stroke-width="1" fill="url(#linear-gradient-19)"/>
        </g>
        <path id="Path_5502" data-name="Path 5502" d="M4.194,5.983c0,70.97,54.107,131.177,122.693,141.068A116.029,116.029,0,0,1,4.349,0C4.264,1.987,4.194,3.977,4.194,5.983Z" transform="translate(19778.623 1101.637) rotate(24)" stroke="#000" stroke-width="1" fill="url(#linear-gradient-20)"/>
        <path id="Path_5503" data-name="Path 5503" d="M25.415,7.021,0,35.337l15.516-6.464-8.4,20.042,17.455-25.86s.036,11.6-.465,12.75S32,27.9,32,27.9l9.374,55.276,18.748,1.293L42.346,149.447l32.971,27.8L56.569,158.5l13.9-19.072,10.343,22.628L71.438,133.93,53.659,155.589l-7.757-8.4L66.912,78.978,45.256,77.361l1.615-53.337L71.116,61.2l2.908-14.547,42.994,29.416L110.875,112.6l43.639.969-38.79-5.171L120.9,76.713l20.363-.321-8.081,18.424h35.558L140.5,91.15l5.929-21.224,10.343,10.344L144.17,60.552l-3.232,11.637-20.366-1.615L65.619,35.661,67.56,46,54.63,18.851l31.354,19.72L77.9,16.912l41.621,13.822L103.763,18.851l22.3-.969-13.5-9.017S70.666-9.788,25.415,7.021Z" transform="translate(19857.986 1038.714) rotate(24)" stroke="#000" stroke-width="1" fill="url(#linear-gradient-2)"/>
        <g id="Group_4335" data-name="Group 4335" transform="translate(19871.098 1186.916) rotate(51)">
          <path id="Path_224-2" data-name="Path 224" d="M45.948,211.545c-1.683,0-3.43-.051-5.192-.154l.154-2.7a82.382,82.382,0,0,0,10.736-.058l.2,2.693C49.944,211.473,47.959,211.545,45.948,211.545Zm-16.193-1.388A71.969,71.969,0,0,1,18.96,207.5l.859-2.562a69.2,69.2,0,0,0,10.386,2.556Zm33.086-.533L62.2,207a52.348,52.348,0,0,0,10.012-3.538l1.163,2.438A54.928,54.928,0,0,1,62.841,209.623ZM8.774,202.87A40.255,40.255,0,0,1,0,195.82l1.977-1.839a37.507,37.507,0,0,0,8.188,6.574Zm74.1-2.9-1.684-2.109a46.946,46.946,0,0,0,7.464-7.506l2.115,1.68A49.536,49.536,0,0,1,82.869,199.971Zm13.91-17.345L94.374,181.4a66.027,66.027,0,0,0,4.036-9.9l2.574.821A68.671,68.671,0,0,1,96.779,182.626Zm6.849-21.079-2.659-.477a102.18,102.18,0,0,0,1.318-10.7l2.694.192A104.69,104.69,0,0,1,103.628,161.547Zm-1.058-21.972c-.055-3.5-.254-7.137-.587-10.809l2.69-.243c.339,3.738.542,7.442.6,11.006Zm-1.922-21.563c-.547-3.492-1.215-7.079-1.989-10.663l2.64-.57c.785,3.634,1.463,7.272,2.016,10.816ZM96.09,96.807c-.935-3.442-1.976-6.943-3.1-10.4l2.569-.833c1.136,3.5,2.19,7.045,3.136,10.531ZM89.52,76.033c-1.1-3.472-2.127-7.028-3.045-10.569l2.613-.679c.908,3.495,1.919,7,3.007,10.43ZM84,54.747c-.727-3.583-1.367-7.228.772-11.23.527,3.56,1.156,7.157,1.874,10.691ZM80.79,32.986C80.454,29.32,80.22,25.623,80.1,22l2.7-.093c.122,3.571.351,7.214.682,10.829Zm1.964-21.919L80.054,11c.1-3.712.317-7.413.652-11L83.4.25C83.067,3.775,82.851,7.414,82.754,11.067Z" transform="translate(149.585 0) rotate(45)" stroke="#000" stroke-width="1" fill="url(#linear-gradient-2)"/>
        </g>
        <g id="Group_4337" data-name="Group 4337" transform="translate(3754 -1276)">
          <path id="Path_5374" data-name="Path 5374" d="M1.344,142.024,0,139.681a102.177,102.177,0,0,0,9.04-5.865L10.625,136A104.708,104.708,0,0,1,1.344,142.024ZM17.5,127.091c2.646-2.292,5.3-4.782,7.9-7.4l1.915,1.9c-2.646,2.662-5.353,5.2-8.047,7.533Zm15.283-15.332c2.324-2.664,4.642-5.481,6.89-8.378l2.134,1.656c-2.28,2.937-4.631,5.795-6.989,8.5ZM46.093,94.635c2.036-2.929,4.048-5.976,5.979-9.061l2.289,1.432c-1.952,3.121-3.989,6.207-6.051,9.171ZM57.783,76.249c1.951-3.076,4.016-6.147,6.139-9.126l2.2,1.565c-2.094,2.942-4.132,5.973-6.056,9.008ZM70.54,58.336c2.278-2.86,4.658-5.693,7.079-8.421l2.02,1.794C77.251,54.4,74.9,57.2,72.654,60.017ZM85.148,41.891c2.593-2.614,5.274-5.169,7.968-7.591l1.807,2.008c-2.657,2.388-5.3,4.906-7.857,7.483ZM103.2,29.306l-1.68-2.114c2.907-2.311,5.882-4.522,8.842-6.568l1.537,2.22C108.989,24.859,106.062,27.032,103.2,29.306Zm17.817-12.3-1.371-2.328c3.234-1.9,6.509-3.657,9.732-5.207l1.169,2.434C127.395,13.425,124.188,15.141,121.018,17.007ZM140.483,7.7l-.925-2.538a93.024,93.024,0,0,1,10.61-3.193l.617,2.631A90.053,90.053,0,0,0,140.483,7.7ZM161.363,2.9,161.142.213a59.7,59.7,0,0,1,11.156.1L172.013,3A57.078,57.078,0,0,0,161.363,2.9Zm52.519,42.45A87.054,87.054,0,0,0,210.648,35.1l2.519-.977A90.2,90.2,0,0,1,216.5,44.7ZM182.344,5.278l.887-2.552a44.281,44.281,0,0,1,10.049,4.994l-1.5,2.245A41.655,41.655,0,0,0,182.344,5.278Zm23.679,20.18a51.534,51.534,0,0,0-6.265-8.584l2-1.816a54.54,54.54,0,0,1,6.6,9.031Z" transform="matrix(-0.695, -0.719, 0.719, -0.695, 16128.289, 2445.771)" stroke="#000" stroke-width="1" fill="url(#linear-gradient-2)"/>
          <path id="Path_5376" data-name="Path 5376" d="M0,2.552.887,0A44.281,44.281,0,0,1,10.936,4.994l-1.5,2.245A41.654,41.654,0,0,0,0,2.552Zm23.679,20.18a51.535,51.535,0,0,0-6.265-8.584l2-1.816a54.54,54.54,0,0,1,6.6,9.031Z" transform="translate(16014.534 2253.837) rotate(-34)" stroke="#000" stroke-width="1" fill="url(#linear-gradient-2)"/>
        </g>
        <g id="Group_4338" data-name="Group 4338" transform="translate(4557 -1989)">
          <g id="Group_4326" data-name="Group 4326" transform="translate(14976.083 2994.65) rotate(-21)">
            <g id="Group_416" data-name="Group 416" transform="translate(183.869 190.859) rotate(-172)">
              <g id="Group_24" data-name="Group 24" transform="translate(0 0)">
                <path id="Path_79" data-name="Path 79" d="M70.381,39.545S23.86,46.413,0,0C0,0,31.479,23.685,59.6,15.264Z" transform="translate(0 59.71)" stroke="#000" stroke-width="1" fill="url(#linear-gradient-25)"/>
                <path id="Path_80" data-name="Path 80" d="M50.078,63.32S49.578,16.3,0,0C0,0,28.321,27.382,24.407,56.473Z" transform="translate(50.991 0)" stroke="#000" stroke-width="1" fill="url(#linear-gradient-25)"/>
                <path id="Union_135" data-name="Union 135" d="M135.414,118.756C89.774,109.92,24.142,86.784,0,23.044L9.84,11.523h0L19.677,0C86.414,13.862,119.54,75.066,135.414,118.756Z" transform="translate(50.262 47.883)" fill="#fff" stroke="#000" stroke-width="1"/>
                <path id="Path_83" data-name="Path 83" d="M17.492,16.8,7.654,28.321,0,13.746,5.869,6.873,11.739,0,27.331,5.278Z" transform="translate(42.609 42.608)" stroke="#000" stroke-width="1" fill="url(#linear-gradient-20)"/>
                <path id="Path_84" data-name="Path 84" d="M25.172,3.657a15.261,15.261,0,1,0,1.7,21.517A15.259,15.259,0,0,0,25.172,3.657Z" transform="translate(120.805 109.016)" stroke="#000" stroke-width="1" fill="url(#linear-gradient-8)"/>
                <path id="Path_85" data-name="Path 85" d="M17.8,2.586A10.792,10.792,0,1,0,19,17.8,10.791,10.791,0,0,0,17.8,2.586Z" transform="translate(125.275 113.486)" stroke="#000" stroke-width="1" fill="url(#linear-gradient-18)"/>
                <path id="Path_86" data-name="Path 86" d="M6.361.923A3.856,3.856,0,1,0,6.789,6.36,3.859,3.859,0,0,0,6.361.923Z" transform="translate(136.432 119.171)" stroke="#000" stroke-width="1" fill="url(#linear-gradient-8)"/>
              </g>
            </g>
          </g>
          <path id="Path_5498" data-name="Path 5498" d="M42.559,0C41,0,39.382.048,37.75.143l.143,2.5a76.3,76.3,0,0,1,9.944.054L48.022.2C46.261.066,44.422,0,42.559,0Zm-15,1.286a66.665,66.665,0,0,0-10,2.462l.8,2.373a64.1,64.1,0,0,1,9.62-2.368Zm30.646.494-.6,2.429a48.485,48.485,0,0,1,9.274,3.277L67.96,5.228A50.875,50.875,0,0,0,58.206,1.78ZM8.127,8.034A37.286,37.286,0,0,0,0,14.565l1.831,1.7A34.741,34.741,0,0,1,9.415,10.18ZM76.758,10.72,75.2,12.674a43.484,43.484,0,0,1,6.913,6.952L84.07,18.07A45.881,45.881,0,0,0,76.758,10.72ZM89.642,26.786l-2.228,1.137a61.154,61.154,0,0,1,3.739,9.168l2.384-.761A63.61,63.61,0,0,0,89.642,26.786ZM95.986,46.31l-2.463.442a94.647,94.647,0,0,1,1.221,9.907l2.5-.178A96.973,96.973,0,0,0,95.986,46.31Zm-.98,20.351c-.051,3.242-.235,6.611-.544,10.012l2.492.225c.314-3.462.5-6.893.554-10.194Zm-1.78,19.972c-.507,3.235-1.126,6.557-1.843,9.877l2.445.528c.727-3.366,1.355-6.736,1.868-10.018ZM89,106.276c-.866,3.188,1.539,3.883,2.414.654Z" transform="matrix(0.105, 0.995, -0.995, 0.105, 15268.214, 2972.399)" stroke="#000" stroke-width="1" fill="url(#linear-gradient-4)"/>
        </g>
      </g>
    </g>
  </g>
</svg>
