<svg xmlns="http://www.w3.org/2000/svg" xmlns:xlink="http://www.w3.org/1999/xlink" width="106.922" height="109.973" viewBox="0 0 106.922 109.973">
  <defs>
    <linearGradient id="linear-gradient" x1="0.5" x2="0.5" y2="1" gradientUnits="objectBoundingBox">
      <stop offset="0" stop-color="#3bcd8f"/>
      <stop offset="0.277" stop-color="#3bcd8f"/>
      <stop offset="0.5" stop-color="#25ac73"/>
      <stop offset="0.821" stop-color="#0a834f"/>
      <stop offset="0.986" stop-color="#007442"/>
      <stop offset="1" stop-color="#007442"/>
    </linearGradient>
    <linearGradient id="linear-gradient-2" x1="0.5" x2="0.5" y2="1" gradientUnits="objectBoundingBox">
      <stop offset="0" stop-color="#64ffbd"/>
      <stop offset="1" stop-color="#08b96e"/>
    </linearGradient>
    <linearGradient id="linear-gradient-4" x1="0.5" x2="0.5" y2="1" gradientUnits="objectBoundingBox">
      <stop offset="0" stop-color="#3ea69b"/>
      <stop offset="1" stop-color="#1f534e"/>
    </linearGradient>
    <linearGradient id="linear-gradient-12" x1="0.5" x2="0.5" y2="1" gradientUnits="objectBoundingBox">
      <stop offset="0.092" stop-color="#ffbd8a"/>
      <stop offset="0.844" stop-color="#f09a59"/>
    </linearGradient>
    <linearGradient id="linear-gradient-13" x1="0.5" x2="0.5" y2="1" gradientUnits="objectBoundingBox">
      <stop offset="0" stop-color="#0081a1"/>
      <stop offset="1" stop-color="#007491"/>
    </linearGradient>
    <linearGradient id="linear-gradient-14" x1="0.5" x2="0.5" y2="1" gradientUnits="objectBoundingBox">
      <stop offset="0.106" stop-color="#00bacf"/>
      <stop offset="0.809" stop-color="#008db0"/>
    </linearGradient>
  </defs>
  <g id="Group_4016" data-name="Group 4016" transform="translate(-59.5 -8791.539)">
    <path id="Path_2939" data-name="Path 2939" d="M295.248,7.26c-7.317,18.027-10.994,35.455-13.9,54.823a214.484,214.484,0,0,1-24.549-3c1.767-19.507,2.326-37.317-.512-56.585C273.11-1.721,279.913-.89,295.248,7.26Z" transform="translate(-141.073 8792)" stroke="#000" stroke-width="1" fill="url(#linear-gradient)"/>
    <path id="Path_2940" data-name="Path 2940" d="M286.788,68.72c-5.868-.628-8.724-.977-14.572-1.781.237-2.181-1.035-4.121-2.845-4.356a304.572,304.572,0,0,0,.568-44.735c2.66-.758,4.766-2.823,4.639-4.937,9.309-1.809,14.1-1.223,22.711,2.776-.623,2.023.934,4.535,3.337,5.912a304.365,304.365,0,0,0-10.044,43.577C288.769,64.967,287.075,66.545,286.788,68.72Z" transform="translate(-151.253 8782.713)" stroke="#000" stroke-width="1" fill="url(#linear-gradient-2)"/>
    <g id="Group_471" data-name="Group 471" transform="translate(122.049 8797.783)">
      <path id="Path_2941" data-name="Path 2941" d="M297.607,101.991c5.628.688,9.212,5.783,8.358,10.075s-5.4,6.925-10.328,6.322-8.718-4.254-8.532-8.627S291.979,101.3,297.607,101.991Z" transform="translate(-287.098 -85.095)" stroke="#000" stroke-width="1" fill="url(#linear-gradient)"/>
      <path id="Path_2942" data-name="Path 2942" d="M335.092,26.1a2.078,2.078,0,0,1,1.964,2.191,2.257,2.257,0,0,1-4.388-.536A2.067,2.067,0,0,1,335.092,26.1Z" transform="translate(-322.556 -26.076)" stroke="#000" stroke-width="1" fill="url(#linear-gradient-4)"/>
      <ellipse id="Ellipse_25" data-name="Ellipse 25" cx="1.515" cy="1.868" rx="1.515" ry="1.868" transform="matrix(-0.993, -0.119, 0.119, -0.993, 8.01, 50.362)" stroke="#000" stroke-width="1" fill="url(#linear-gradient-4)"/>
    </g>
    <path id="Path_2943" data-name="Path 2943" d="M310.553,122.074c-.525-.129-.788-.191-1.314-.309a9.466,9.466,0,0,1-2.709,4.49c-.525-.689-.789-1.033-1.325-1.717a7.518,7.518,0,0,0,2.065-3.185c-1.406-.271-2.112-.388-3.529-.578a9.209,9.209,0,0,1-1.684,3.179,2.822,2.822,0,0,1-2.44.829,3.151,3.151,0,0,1-2.422-1.379,5.166,5.166,0,0,1-.861-3.173c-.37-.006-.554-.008-.925-.008.03-.505.045-.758.073-1.263.382,0,.572,0,.953,0a8.837,8.837,0,0,1,1.7-4.129c.678.528,1.012.8,1.67,1.359a6.821,6.821,0,0,0-1.332,2.821c1.4.058,2.1.106,3.493.246,0-.024,0-.037.006-.061a8.15,8.15,0,0,1,1.764-3.254,2.925,2.925,0,0,1,2.693-.7,3.453,3.453,0,0,1,2.5,1.785,5.521,5.521,0,0,1,.55,3.486c.524.122.786.185,1.307.318C310.689,121.328,310.644,121.577,310.553,122.074Zm-11.88-.343a1.236,1.236,0,0,0,.97.58,1.256,1.256,0,0,0,1-.325,4.465,4.465,0,0,0,.846-1.47c-1.27-.122-1.906-.167-3.181-.225A2.516,2.516,0,0,0,298.673,121.732Zm8.57-3.255a1.362,1.362,0,0,0-1-.76,1.266,1.266,0,0,0-1.1.269,4.374,4.374,0,0,0-.932,1.545c1.327.186,1.989.3,3.306.561A3.03,3.03,0,0,0,307.242,118.477Z" transform="translate(-171.517 8702.635)" fill="#44c4a1"/>
    <path id="Path_2944" data-name="Path 2944" d="M304.967,37.986C292.884,52.555,284.39,67.865,276.058,85.3A223.421,223.421,0,0,1,253.89,73.591c7.3-17.983,12.982-34.78,15.9-54.194C286.792,21.433,292.935,24.68,304.967,37.986Z" transform="translate(-139.206 8776.905)" stroke="#000" stroke-width="1" fill="url(#linear-gradient)"/>
    <path id="Path_2945" data-name="Path 2945" d="M286.121,95.087c-5.325-2.714-7.9-4.077-13.159-6.952a4.07,4.07,0,0,0-1.409-5.184,301.37,301.37,0,0,0,13.48-42.495c2.715.235,5.289-.977,5.782-3.04,9.259,1.629,13.585,3.915,20.509,10.836-1.17,1.706-.436,4.665,1.42,6.846a288.078,288.078,0,0,0-22.037,37.973C289.067,92.22,287.02,93.115,286.121,95.087Z" transform="translate(-152.952 8762.882)" stroke="#000" stroke-width="1" fill="url(#linear-gradient-2)"/>
    <g id="Group_472" data-name="Group 472" transform="translate(126.829 8806.146)">
      <path id="Path_2946" data-name="Path 2946" d="M328.7,130.31c5.083,2.686,6.971,8.84,4.927,12.629s-7.07,4.664-11.521,2.311-6.95-7.2-5.509-11.31S323.62,127.625,328.7,130.31Z" transform="translate(-314.518 -114.641)" stroke="#000" stroke-width="1" fill="url(#linear-gradient)"/>
      <path id="Path_2947" data-name="Path 2947" d="M393.126,64.077a2.266,2.266,0,0,1,1.209,2.8,1.9,1.9,0,0,1-2.7.582,2.249,2.249,0,0,1-1.262-2.675A1.913,1.913,0,0,1,393.126,64.077Z" transform="translate(-372.156 -63.786)" stroke="#000" stroke-width="1" fill="url(#linear-gradient)"/>
      <path id="Path_2948" data-name="Path 2948" d="M310.947,255.38a1.86,1.86,0,0,1,.611,2.408,1.579,1.579,0,0,1-2.1.972,1.869,1.869,0,0,1-.612-2.407A1.571,1.571,0,0,1,310.947,255.38Z" transform="translate(-308.653 -212.773)" stroke="#000" stroke-width="1" fill="url(#linear-gradient)"/>
    </g>
    <path id="Path_2949" data-name="Path 2949" d="M338.939,148.167c-.455-.312-.684-.466-1.144-.769a8.58,8.58,0,0,1-3.841,3.309c-.293-.847-.441-1.271-.747-2.117a6.793,6.793,0,0,0,2.859-2.3c-1.241-.766-1.87-1.132-3.145-1.824a8.369,8.369,0,0,1-2.5,2.427,2.681,2.681,0,0,1-2.529-.088,3.461,3.461,0,0,1-1.873-2.189,5.418,5.418,0,0,1,.111-3.339c-.345-.139-.518-.207-.865-.341.175-.472.261-.707.434-1.179.359.135.537.2.894.345a8.148,8.148,0,0,1,2.786-3.33c.484.749.718,1.129,1.174,1.9a6.241,6.241,0,0,0-2.067,2.212c1.3.56,1.94.858,3.207,1.494l.024-.056a7.4,7.4,0,0,1,2.6-2.47,2.816,2.816,0,0,1,2.73.3,3.815,3.815,0,0,1,1.829,2.6,5.668,5.668,0,0,1-.493,3.525c.456.3.683.46,1.135.775C339.282,147.5,339.168,147.725,338.939,148.167Zm-11.049-4.609a1.359,1.359,0,0,0,.742.9,1.2,1.2,0,0,0,1.033.05,4.043,4.043,0,0,0,1.219-1.1c-1.156-.574-1.74-.846-2.92-1.361A2.633,2.633,0,0,0,327.889,143.558Zm8.984-.018a1.507,1.507,0,0,0-.714-1.084,1.221,1.221,0,0,0-1.109-.139,3.953,3.953,0,0,0-1.322,1.138c1.191.656,1.78,1,2.94,1.727A3.121,3.121,0,0,0,336.873,143.54Z" transform="translate(-194.75 8685.558)" stroke="#000" stroke-width="1" fill="url(#linear-gradient-2)"/>
    <path id="Path_2950" data-name="Path 2950" d="M148.762,177.863h0a7.457,7.457,0,0,0-7.373-7.538h-.5a83.058,83.058,0,0,0-16.522,0h-.98v.113a38.571,38.571,0,0,0-5.487,1l-.392-11.366-5.17,1.093a14.83,14.83,0,0,0-7.669,4.424L93.385,177.84a14.829,14.829,0,0,1-10.906,4.782H81.051L75.476,223.1l14.123.124c20.07,7.929,44.228,5.14,44.228,5.14H135.9a7.457,7.457,0,0,0,7.373-7.538h0a7.544,7.544,0,0,0-4.282-6.836h.51a7.457,7.457,0,0,0,7.373-7.538h0a7.546,7.546,0,0,0-4.18-6.786,7.49,7.49,0,0,0,6.066-7.412h0a7.523,7.523,0,0,0-5.172-7.2A7.524,7.524,0,0,0,148.762,177.863Z" transform="translate(-0.362 8667.428)" stroke="#000" stroke-width="1" fill="url(#linear-gradient-12)"/>
    <rect id="Rectangle_133" data-name="Rectangle 133" width="23.662" height="57.435" transform="translate(60 8843.576)" stroke="#000" stroke-width="1" fill="url(#linear-gradient-13)"/>
    <circle id="Ellipse_26" data-name="Ellipse 26" cx="4.15" cy="4.15" r="4.15" transform="translate(67.681 8887.8)" stroke="#000" stroke-width="1" fill="url(#linear-gradient-14)"/>
  </g>
</svg>
