<svg xmlns="http://www.w3.org/2000/svg" xmlns:xlink="http://www.w3.org/1999/xlink" width="35.78" height="31.36" viewBox="0 0 35.78 31.36">
  <defs>
    <linearGradient id="linear-gradient" x1="0.5" x2="0.5" y2="1" gradientUnits="objectBoundingBox">
      <stop offset="0" stop-color="#a7d9ff"/>
      <stop offset="1" stop-color="#3fb1e5"/>
    </linearGradient>
  </defs>
  <path id="skype" d="M33.376,43.3a4.468,4.468,0,0,1-.806-2.635c0-.005,0-.011,0-.016a15.185,15.185,0,0,0-20.4-14.257,4.476,4.476,0,0,1-2.747.13A7.413,7.413,0,0,0,1.4,38a4.467,4.467,0,0,1,.806,2.635v.016a15.185,15.185,0,0,0,20.4,14.257,4.476,4.476,0,0,1,2.747-.13A7.413,7.413,0,0,0,33.376,43.3ZM17.945,37.927c3.061.728,7.686,1.828,7.686,6.923a5.551,5.551,0,0,1-3.481,5.391,12.648,12.648,0,0,1-4.976.783,10.981,10.981,0,0,1-7.958-3.891,2.283,2.283,0,0,1,3.57-2.847,6.772,6.772,0,0,0,4.388,2.172c3.092.1,3.8-.822,3.89-1.607.112-.959-.742-1.663-4.176-2.48-2.911-.692-7.311-1.739-7.311-6.431,0-1.461.594-6.229,8.242-6.229a10.339,10.339,0,0,1,7.8,3.964,2.283,2.283,0,0,1-3.669,2.719,6.859,6.859,0,0,0-4.129-2.116c-1.849-.176-3.675.491-3.675,1.476C14.144,36.8,14.668,37.147,17.945,37.927Z" transform="translate(0.501 -24.968)" stroke="#000" stroke-width="1" fill="url(#linear-gradient)"/>
</svg>
