<svg xmlns="http://www.w3.org/2000/svg" xmlns:xlink="http://www.w3.org/1999/xlink" width="268.987" height="407.215" viewBox="0 0 268.987 407.215">
  <defs>
    <linearGradient id="linear-gradient" x1="0.5" x2="0.5" y2="1" gradientUnits="objectBoundingBox">
      <stop offset="0" stop-color="#fff"/>
      <stop offset="1" stop-color="#e6e6e6"/>
    </linearGradient>
    <linearGradient id="linear-gradient-2" x1="0.5" x2="0.5" y2="1" gradientUnits="objectBoundingBox">
      <stop offset="0.166" stop-color="#ff7878"/>
      <stop offset="0.78" stop-color="#eb5959"/>
    </linearGradient>
    <linearGradient id="linear-gradient-4" x1="0.5" x2="0.5" y2="1" gradientUnits="objectBoundingBox">
      <stop offset="0.106" stop-color="#00bacf"/>
      <stop offset="0.809" stop-color="#008db0"/>
    </linearGradient>
    <linearGradient id="linear-gradient-5" x1="0.5" x2="0.5" y2="1" gradientUnits="objectBoundingBox">
      <stop offset="0" stop-color="#0081a1"/>
      <stop offset="1" stop-color="#007491"/>
    </linearGradient>
    <linearGradient id="linear-gradient-8" x1="0.5" x2="0.5" y2="1" gradientUnits="objectBoundingBox">
      <stop offset="0" stop-color="#42444a"/>
      <stop offset="1" stop-color="#8c969f"/>
    </linearGradient>
  </defs>
  <g id="stethoscope" transform="translate(64.79 -9.1) rotate(19)">
    <path id="Path_3049" data-name="Path 3049" d="M75.076,185.673A75.16,75.16,0,0,1,0,110.6V51.423a8.649,8.649,0,0,1,17.3,0V110.6a57.777,57.777,0,1,0,115.555,0V8.651a8.648,8.648,0,1,1,17.3,0V110.6a75.156,75.156,0,0,1-75.074,75.076Zm0,0" transform="translate(78.572 175.204)" stroke="#000" stroke-width="1" fill="url(#linear-gradient)"/>
    <path id="Path_3050" data-name="Path 3050" d="M16.759,23.5H6.743A6.743,6.743,0,0,1,0,16.756V0H23.5V16.756A6.742,6.742,0,0,1,16.759,23.5Zm0,0" transform="translate(75.472 200.361)" stroke="#000" stroke-width="1" fill="url(#linear-gradient-2)"/>
    <path id="Path_3051" data-name="Path 3051" d="M87.235,186.754a86.055,86.055,0,0,1-60.971-25.363A87.932,87.932,0,0,1,0,98.6V24.81A24.837,24.837,0,0,1,24.81,0H35.867a8.649,8.649,0,0,1,0,17.3H24.81A7.518,7.518,0,0,0,17.3,24.807V98.6a70.745,70.745,0,0,0,21.153,50.514A68.909,68.909,0,0,0,87.24,169.456c.168,0,.33,0,.5,0a69.927,69.927,0,0,0,69.407-69.922V24.81a7.518,7.518,0,0,0-7.508-7.511h-11.06a8.649,8.649,0,0,1,0-17.3h11.06a24.836,24.836,0,0,1,24.807,24.81V99.534a87.229,87.229,0,0,1-86.579,87.221h-.63Zm0,0" transform="translate(0 10.297)" stroke="#000" stroke-width="1" fill="url(#linear-gradient-2)"/>
    <path id="Path_3052" data-name="Path 3052" d="M37.893,18.948A18.947,18.947,0,1,1,18.945,0,18.947,18.947,0,0,1,37.893,18.948Zm0,0" transform="translate(34.729 0)" stroke="#000" stroke-width="1" fill="url(#linear-gradient-4)"/>
    <path id="Path_3053" data-name="Path 3053" d="M25.52,18.945A18.943,18.943,0,0,1,0,36.712,18.943,18.943,0,0,0,12.373,18.945,18.944,18.944,0,0,0,0,1.176a18.949,18.949,0,0,1,25.52,17.77Zm0,0" transform="translate(47.102 0.003)" stroke="#000" stroke-width="1" fill="url(#linear-gradient-5)"/>
    <path id="Path_3054" data-name="Path 3054" d="M37.893,18.948A18.947,18.947,0,1,1,18.945,0,18.947,18.947,0,0,1,37.893,18.948Zm0,0" transform="translate(102.54 0)" stroke="#000" stroke-width="1" fill="url(#linear-gradient-4)"/>
    <path id="Path_3055" data-name="Path 3055" d="M25.52,18.945A18.943,18.943,0,0,1,0,36.712,18.943,18.943,0,0,0,12.373,18.945,18.944,18.944,0,0,0,0,1.176a18.949,18.949,0,0,1,25.52,17.77Zm0,0" transform="translate(114.913 0.003)" stroke="#000" stroke-width="1" fill="url(#linear-gradient-5)"/>
    <path id="Path_3056" data-name="Path 3056" d="M32.522,31.517H6.919A6.919,6.919,0,0,1,0,24.6V6.922A6.919,6.919,0,0,1,6.919,0h25.6a6.919,6.919,0,0,1,6.919,6.922V24.6A6.919,6.919,0,0,1,32.522,31.517Zm0,0" transform="translate(67.501 171.611)" stroke="#000" stroke-width="1" fill="url(#linear-gradient-8)"/>
    <path id="Path_3057" data-name="Path 3057" d="M20.052,6.919V24.6a6.922,6.922,0,0,1-6.919,6.919H0A6.922,6.922,0,0,0,6.919,24.6V6.919A6.922,6.922,0,0,0,0,0H13.133A6.922,6.922,0,0,1,20.052,6.919Zm0,0" transform="translate(86.89 171.609)" stroke="#000" stroke-width="1" fill="url(#linear-gradient-8)"/>
    <path id="Path_3058" data-name="Path 3058" d="M79.311,39.655A39.655,39.655,0,1,1,39.655,0,39.657,39.657,0,0,1,79.311,39.655Zm0,0" transform="translate(180.391 128.977)" stroke="#000" stroke-width="1" fill="url(#linear-gradient-4)"/>
    <path id="Path_3059" data-name="Path 3059" d="M47.4,39.655A39.658,39.658,0,0,1,0,78.548,39.665,39.665,0,0,0,31.913,39.655,39.672,39.672,0,0,0,0,.754,40.078,40.078,0,0,1,7.742,0,39.652,39.652,0,0,1,47.4,39.655Zm0,0" transform="translate(212.304 128.98)" stroke="#000" stroke-width="1" fill="url(#linear-gradient-5)"/>
    <path id="Path_3060" data-name="Path 3060" d="M30.963,15.484A15.482,15.482,0,1,1,15.482,0,15.482,15.482,0,0,1,30.963,15.484Zm0,0" transform="translate(204.565 153.148)" stroke="#000" stroke-width="1" fill="url(#linear-gradient-8)"/>
  </g>
</svg>
