<svg xmlns="http://www.w3.org/2000/svg" xmlns:xlink="http://www.w3.org/1999/xlink" width="401.103" height="725.962" viewBox="0 0 401.103 725.962">
  <defs>
    <linearGradient id="linear-gradient" x1="0.5" x2="0.5" y2="1" gradientUnits="objectBoundingBox">
      <stop offset="0.106" stop-color="#00bacf"/>
      <stop offset="0.809" stop-color="#008db0"/>
    </linearGradient>
    <linearGradient id="linear-gradient-2" x1="-0.096" y1="0.475" x2="1.412" y2="0.544" gradientUnits="objectBoundingBox">
      <stop offset="0.092" stop-color="#ffbd8a"/>
      <stop offset="0.844" stop-color="#f09a59"/>
    </linearGradient>
    <linearGradient id="linear-gradient-3" x1="0.5" x2="0.5" y2="1" gradientUnits="objectBoundingBox">
      <stop offset="0" stop-color="#42444a"/>
      <stop offset="1" stop-color="#0d0e0f"/>
    </linearGradient>
    <linearGradient id="linear-gradient-4" x1="0.345" y1="0.5" x2="1.092" y2="0.465" xlink:href="#linear-gradient-3"/>
    <linearGradient id="linear-gradient-6" x1="-0.043" y1="0.113" x2="0.814" y2="0.621" xlink:href="#linear-gradient-3"/>
    <linearGradient id="linear-gradient-8" x1="0.063" y1="0.558" x2="0.829" y2="0.456" xlink:href="#linear-gradient-2"/>
    <linearGradient id="linear-gradient-9" x1="0.5" y1="0" x2="0.5" y2="1" xlink:href="#linear-gradient-2"/>
    <linearGradient id="linear-gradient-10" x1="0.436" y1="-0.073" x2="0.629" y2="1" gradientUnits="objectBoundingBox">
      <stop offset="0" stop-color="#fadb5d"/>
      <stop offset="0.23" stop-color="#fadb5d"/>
      <stop offset="1" stop-color="#f08e28"/>
    </linearGradient>
    <linearGradient id="linear-gradient-12" x1="0.007" y1="-0.069" x2="1.116" y2="1.064" xlink:href="#linear-gradient-2"/>
    <linearGradient id="linear-gradient-13" x1="0.5" x2="0.5" y2="1" gradientUnits="objectBoundingBox">
      <stop offset="0" stop-color="#3bcd8f"/>
      <stop offset="0.277" stop-color="#3bcd8f"/>
      <stop offset="0.5" stop-color="#25ac73"/>
      <stop offset="0.821" stop-color="#0a834f"/>
      <stop offset="0.986" stop-color="#007442"/>
      <stop offset="1" stop-color="#007442"/>
    </linearGradient>
  </defs>
  <g id="Group_622" data-name="Group 622" transform="translate(-109.846 -2121.545)">
    <g id="Group_550" data-name="Group 550" transform="translate(68 1934.015)">
      <g id="Group_75" data-name="Group 75" transform="translate(146.609 263.792)">
        <path id="Path_98" data-name="Path 98" d="M175.239,248.855,80.663,214.168a4.913,4.913,0,0,0-6.509,5.579l8.751,43.659,85.19,31.117C171.814,284.157,178.333,257.363,175.239,248.855Z" transform="translate(-74.054 -143.154)" stroke="#000" stroke-width="1" fill="url(#linear-gradient)"/>
        <path id="Path_99" data-name="Path 99" d="M161.948,186.344c-8.106,2.027-14.636,22.777-14.636,22.777.225,19.59,6.3,29.5,6.3,29.5l-41.484,60.695-3.432-1.259c.1.237-1.325,22.056-5.559,35.522,8.995-.9,30.65,0,34.943-13.206l28.54-83.275c14.2-14.723-9.353-27.021-9.353-27.021C164.546,195.438,161.948,186.344,161.948,186.344Z" transform="translate(-7.515 -192.353)" stroke="#000" stroke-width="1" fill="url(#linear-gradient-2)"/>
        <path id="Path_100" data-name="Path 100" d="M108.254,225.753,104.83,224.5l.008.026,3.427,1.257Z" transform="translate(-3.652 -118.822)" fill="#322b6f" stroke="#000" stroke-width="1"/>
      </g>
      <path id="Path_101" data-name="Path 101" d="M204.1,249.757s-84.845,101.27-120.551,90.385l-7.6-11.286,111.03-80.982Z" transform="translate(76.903 198.444)" fill="#001c43" stroke="#000" stroke-width="1"/>
      <g id="Group_76" data-name="Group 76" transform="translate(207.7 454.943)">
        <path id="Path_102" data-name="Path 102" d="M116.8,393.438c-.273-.467-.549-.934-.8-1.41A27.4,27.4,0,0,1,117.646,364a15.493,15.493,0,0,0,2.186-12.621l-.395-1.43a17.855,17.855,0,0,1,16.724-22.339s.707-.306,2-.977c.707-.368,1.552-.838,2.584-1.44l4.852,22.812c-.677.48-1.371.937-2.074,1.433l-17.371,43.267A5.229,5.229,0,0,1,116.8,393.438Z" transform="translate(-46.243 -79.615)" stroke="#000" stroke-width="1" fill="url(#linear-gradient-3)"/>
        <path id="Path_103" data-name="Path 103" d="M190.506,519.57c11.664-12.687,22.217-24.735,31.781-36.156,14.13-16.868,26.054-32.346,36.107-46.486,53.232-74.548,54.833-111.02,54.833-111.02.694-43.659-101.944-66.014-162.73-75.41a259.375,259.375,0,0,0-28.776,14.738c-7.44,4.363-14.314,8.922-20.593,13.492L92.636,329.7l93.36.145,79.378.148-32.182,62.759-31.35,61.208-22.418,43.728Z" transform="translate(-92.636 -250.497)" stroke="#000" stroke-width="1" fill="url(#linear-gradient-4)"/>
      </g>
      <g id="Group_78" data-name="Group 78" transform="translate(168.91 469.681)">
        <path id="Path_104" data-name="Path 104" d="M195.352,434.184c-.572-.059-1.147-.118-1.719-.207a29.242,29.242,0,0,1-23.052-19.144,16.538,16.538,0,0,0-9.465-9.866l-1.479-.565a19.064,19.064,0,0,1-8.623-28.516s.187-.8.424-2.331c.132-.842.26-1.864.4-3.136l22.684,10.267c-.016.888-.062,1.772-.082,2.689L200.641,425.7A5.581,5.581,0,0,1,195.352,434.184Z" transform="translate(71.979 9.092)" stroke="#000" stroke-width="1" fill="url(#linear-gradient-3)"/>
        <g id="Group_77" data-name="Group 77">
          <path id="Path_105" data-name="Path 105" d="M253.525,480.059c-1.4-2.331-2.8-4.612-4.248-6.9q-9.562-15.213-20.445-29.456c-30.019-39.342-67.115-72.961-108.555-100.51A369.7,369.7,0,0,1,80.837,313.2a244.7,244.7,0,0,1,47.282-44.727c6.279-4.57,13.153-9.13,20.593-13.492,9.037,10.832,13.226,12.756,13.226,12.756a601.422,601.422,0,0,1,51.049,51.851,534.014,534.014,0,0,1,47.2,62.907,490.815,490.815,0,0,1,25.2,44.178,448.427,448.427,0,0,1,36.834,101.543c6,26.31,4.862,64.643,8.087,104.357a60.742,60.742,0,0,1-.717,16.293l-27.382-14.633C303.4,581.476,281.548,526.8,253.525,480.059Z" transform="translate(-80.837 -254.98)" stroke="#000" stroke-width="1" fill="url(#linear-gradient-6)"/>
        </g>
      </g>
      <path id="Path_106" data-name="Path 106" d="M259.361,327.617l-15.455,6.776A250.529,250.529,0,0,0,215.153,349.1c-7.446,4.34-14.324,8.926-20.606,13.476a244.22,244.22,0,0,0-47.275,44.737L138.8,418.008c-9.386-6.174-21.662-25.544-34.046-48.228-1.447-2.646-2.86-5.329-4.271-8.045-18.591-35.318-36.446-75.643-43.642-87.11A32.8,32.8,0,0,1,81.084,224.6l47.771-10.76s27.343,6.631,32.846,25.156c6.881,22.862,20.922,48.3,20.922,48.3C190.49,308.424,242.108,323.208,259.361,327.617Z" transform="translate(21.642 120.58)" stroke="#000" stroke-width="1" fill="url(#linear-gradient)"/>
      <g id="Group_79" data-name="Group 79" transform="translate(91.745 290.572)">
        <path id="Path_109" data-name="Path 109" d="M57.365,200.5a441.68,441.68,0,0,0,12.092,48.728c.671,2.081,1.361,4.146,2.078,6.167,4.073,11.539,46.966,23.654,47.9,22.651,1.108-1.19-7.242-16.257-8.193-17.917-6.325-11.02-15.987-31.35-14.9-51.2Z" transform="translate(-57.365 -200.499)" stroke="#000" stroke-width="1" fill="url(#linear-gradient-8)"/>
      </g>
      <g id="Group_89" data-name="Group 89" transform="translate(67.26 215.303)">
        <g id="Group_88" data-name="Group 88">
          <path id="Path_110" data-name="Path 110" d="M60.673,255.006c-8.965-14.347-12.828-31.544-9.665-48.166,2.051-10.777,6.43-19.886,13.206-23.9,16.06-9.5,34.315-9.241,56.832,25.492.039.01,23.4,4.879,9.517,17.036,7.154,17.881,3.156,40.565-12,51.43-8.124,5.819-20.675,4.892-32.57.27a50.687,50.687,0,0,1-24.354-20.62Z" transform="translate(-49.917 -177.604)" stroke="#000" stroke-width="1" fill="url(#linear-gradient-9)"/>
        </g>
      </g>
      <path id="Path_114" data-name="Path 114" d="M128.233,215.248c-1.236-3.883-11.786-12.667-15.208-15.277-.21,16.333-3.034,29.072-8.4,44.628a2.243,2.243,0,0,1-.141.46c-.105-.247-.21-.529-.316-.776-.141-.247-.283-.529-.424-.743V244c-3.915-2.436-8.5-2.893-12.174-.776-5.786,3.35-7.091,11.855-2.926,19.015,4.126,7.127,15.169,7.515,20.922,4.165l.066-.039c3.067-1.811,7.164-.671,8.1,2.768a16.258,16.258,0,0,1,.3,7.183.131.131,0,0,1-.033.105c-4.448,24.38-20.748,26.461-30.7,24.946a12.8,12.8,0,0,1-4.691-1.059c-.109-.036-.214-.105-.319-.141a11.178,11.178,0,0,1-2.505-1.095l-.036-.033A58.57,58.57,0,0,1,59.5,282.491c-6.138-7.69-10.655-16.546-14.36-25.649a36.858,36.858,0,0,1-2.61-8.607,31.441,31.441,0,0,1,.776-10.869,22.811,22.811,0,0,1,2.505-7.055l.214.178a13.89,13.89,0,0,1,1.621-3.422,31.505,31.505,0,0,1,6.812-6.529c2.469-1.94,20.11-15.734,23.25-18.2a70.877,70.877,0,0,0,17.6-24.38C105.336,154.421,134.864,182.964,128.233,215.248Z" transform="translate(0 18.723)" stroke="#000" stroke-width="1" fill="url(#linear-gradient-10)"/>
      <path id="Path_115" data-name="Path 115" d="M61.6,192.43a2.244,2.244,0,0,1-.141.46c-.105-.247-.21-.529-.316-.776A5.522,5.522,0,0,0,61.6,192.43Z" transform="translate(43.027 70.892)" fill="#ff9380" stroke="#000" stroke-width="1"/>
      <g id="Group_90" data-name="Group 90" transform="translate(53.337 354.752)">
        <path id="Path_116" data-name="Path 116" d="M48.972,343.015c7.009-7.055,31.028-5.208,45.6-2.275-8.156-32.29-10.165-62.516,3.57-87.455,5.365-9.738,3.531-22.319-5.319-29.046-9.041-6.874-21.652-5.773-31.1,6.48l-.141.187a56.078,56.078,0,0,0-9.636,19.778C41.845,288.954,46.378,327.435,48.972,343.015Z" transform="translate(-45.682 -220.021)" stroke="#000" stroke-width="1" fill="url(#linear-gradient)"/>
        <path id="Path_117" data-name="Path 117" d="M53.794,278c20.393,26.6,82.327,77.175,82.327,77.175,4.165,48.117,10.034,31.863,10.034,31.863-1.71-7.548.25-14.965,1.729-19.078a1.519,1.519,0,0,1,2.788-.138l.026.053a62.141,62.141,0,0,1,5.546,25.3l.033,3.255c2.785,6.089,6.1-2.758,6.1-2.758,7.565,18.262,11.631,9.412,11.631,9.412-6.407-48.182-26.876-60.954-26.876-60.954l-64.627-84.5c-14.574-2.929-28.819-3.235-35.828,3.82A37.464,37.464,0,0,0,53.794,278Z" transform="translate(-43.393 -138.457)" stroke="#000" stroke-width="1" fill="url(#linear-gradient-12)"/>
      </g>
    </g>
    <path id="Path_3019" data-name="Path 3019" d="M602.235,260.162s1.966,91.165,5.678,146.623L594.5,425.27l-9.213-23.153s-3.894-66.885,8.716-141.32Z" transform="translate(-394.168 2043.4)" stroke="#000" stroke-width="1" fill="url(#linear-gradient-13)"/>
    <path id="Path_3020" data-name="Path 3020" d="M602.877,263.416l-.315,1.254a25.494,25.494,0,0,1-2.773,6.755h0l-8.229.635s-5.59-2.933-6.33-6.081,9.179-8.307,9.179-8.307l1.2.469a17.953,17.953,0,0,1,7.164,5.153Z" transform="translate(-391.723 2032.137)" stroke="#000" stroke-width="1" fill="url(#linear-gradient-13)"/>
    <path id="Path_3021" data-name="Path 3021" d="M596.108,253.446a34.349,34.349,0,0,0-9.384,9.511c4.231,9.677,13.791,26.87,24.324,34.7,4.921-13.2,16.7-20.872,16.7-20.872S599.052,271.678,596.108,253.446Z" transform="translate(-425.057 2013.023)" fill="#fff" stroke="#000" stroke-width="1"/>
    <path id="Path_3022" data-name="Path 3022" d="M583.678,275.778a35.317,35.317,0,0,1,16.36,15.548s1.971-15.531-2.22-28.858c0,0-6.738-8.621-9.069-8.8C589.71,264.649,583.678,275.778,583.678,275.778Z" transform="translate(-380.991 2014.031)" fill="#fff" stroke="#000" stroke-width="1"/>
  </g>
</svg>
