<svg xmlns="http://www.w3.org/2000/svg" xmlns:xlink="http://www.w3.org/1999/xlink" width="268.33" height="270.983" viewBox="0 0 268.33 270.983">
  <defs>
    <linearGradient id="linear-gradient" x1="0.5" x2="0.5" y2="1" gradientUnits="objectBoundingBox">
      <stop offset="0" stop-color="#fff"/>
      <stop offset="1" stop-color="#e6e6e6"/>
    </linearGradient>
  </defs>
  <g id="Group_896" data-name="Group 896" transform="translate(-3011.62 -4835.236) rotate(-16)">
    <path id="Path_3596" data-name="Path 3596" d="M36.452,149.659a237.127,237.127,0,0,0,27.824,10.013,77.749,77.749,0,0,1,26.345,15.386,185.424,185.424,0,0,0,25.3,20.973,31.638,31.638,0,0,0,19.275,7.485,113.846,113.846,0,0,1-3.6-11.687c-1.119-3.871-2.108-7.77-2.994-11.711a125.264,125.264,0,0,1-2.994-23.967,102.285,102.285,0,0,1,2.4-29.372,4.488,4.488,0,0,1,5.037-3.7,22.293,22.293,0,0,1,10.806,6.553c17.494,15.39,41.838,33.621,49.641,27.087,8.008-6.744,2.947-18.338-.424-25.716a185.88,185.88,0,0,0-16.332-28.458,78.664,78.664,0,0,1-10.755-28.663,251.065,251.065,0,0,0-5.163-29.092C154.173,23.4,137.734.844,112.965,0A59.018,59.018,0,0,0,57.107,47.216.689.689,0,0,1,57,47.85,51.946,51.946,0,0,0,34.87,52.8,57.386,57.386,0,0,0,.405,94.958c-3.479,24.559,16.02,44.478,36.046,54.7Zm0,0" transform="translate(1648.422 5503.472) rotate(42)" stroke="#000" stroke-width="1" fill="url(#linear-gradient)"/>
    <path id="Path_3597" data-name="Path 3597" d="M4.491,45.952a10.535,10.535,0,0,0,9.7,6.427,11.406,11.406,0,0,0,4.109-.844,10.621,10.621,0,0,0,5.587-13.8A73.257,73.257,0,0,1,23.458.42c0-.107.107-.317,0-.42A51.946,51.946,0,0,0,1.329,4.953a80.2,80.2,0,0,0,3.162,41Zm0,0" transform="translate(1641.33 5561.475) rotate(42)" stroke="#000" stroke-width="1" fill="url(#linear-gradient)"/>
    <path id="Path_3598" data-name="Path 3598" d="M42.194,43.81A10.534,10.534,0,0,0,52.73,33.27,31.882,31.882,0,0,0,40.641,5.544a40.049,40.049,0,0,0-33.4-3.353,10.544,10.544,0,1,0,6.609,20.026,19.86,19.86,0,0,1,14.49.452,13.7,13.7,0,0,1,3.311,10.6,10.535,10.535,0,0,0,10.54,10.54Zm0,0" transform="translate(1691.533 5582.468) rotate(42)" fill="#fff" stroke="#000" stroke-width="1"/>
  </g>
</svg>
