<svg xmlns="http://www.w3.org/2000/svg" xmlns:xlink="http://www.w3.org/1999/xlink" width="139.373" height="119.035" viewBox="0 0 139.373 119.035">
  <defs>
    <linearGradient id="linear-gradient" x1="0.5" x2="0.5" y2="1" gradientUnits="objectBoundingBox">
      <stop offset="0.092" stop-color="#ffbd8a"/>
      <stop offset="0.844" stop-color="#f09a59"/>
    </linearGradient>
    <linearGradient id="linear-gradient-2" x1="0.5" x2="0.5" y2="1" gradientUnits="objectBoundingBox">
      <stop offset="0" stop-color="#0081a1"/>
      <stop offset="1" stop-color="#007491"/>
    </linearGradient>
    <linearGradient id="linear-gradient-3" x1="0.5" x2="0.5" y2="1" gradientUnits="objectBoundingBox">
      <stop offset="0.23" stop-color="#fadb5d"/>
      <stop offset="0.97" stop-color="#f08e28"/>
    </linearGradient>
    <linearGradient id="linear-gradient-5" x1="0.5" x2="0.5" y2="1" gradientUnits="objectBoundingBox">
      <stop offset="0.166" stop-color="#ff7878"/>
      <stop offset="0.78" stop-color="#eb5959"/>
    </linearGradient>
    <linearGradient id="linear-gradient-7" x1="0.5" x2="0.5" y2="1" gradientUnits="objectBoundingBox">
      <stop offset="0" stop-color="#42444a"/>
      <stop offset="1" stop-color="#0d0e0f"/>
    </linearGradient>
    <linearGradient id="linear-gradient-8" x1="0.5" x2="0.5" y2="1" gradientUnits="objectBoundingBox">
      <stop offset="0.106" stop-color="#00bacf"/>
      <stop offset="0.809" stop-color="#008db0"/>
    </linearGradient>
  </defs>
  <g id="mother" transform="translate(0.523 0.5)">
    <path id="Path_5251" data-name="Path 5251" d="M198.941,238.834l-12.794-.627H171s-6.857.271-15.5.626a2.857,2.857,0,0,0,.117,5.711c.04,0,.08,0,.121,0l14.916-.625V288.5a3.379,3.379,0,0,0,3.542,3.375,3.443,3.443,0,0,0,3.216-3.471V267.212a1.126,1.126,0,0,1,1.2-1.124,1.152,1.152,0,0,1,1.051,1.163V288.5a3.379,3.379,0,0,0,3.543,3.375,3.441,3.441,0,0,0,3.215-3.47V243.917l12.223.624c.051,0,.1,0,.149,0a2.857,2.857,0,0,0,.144-5.71Zm0,0" transform="translate(-111.489 -173.845)" stroke="#000" stroke-width="1" fill="url(#linear-gradient)"/>
    <path id="Path_5252" data-name="Path 5252" d="M218.988,324.3V351.33a3.38,3.38,0,0,0,3.543,3.375,3.442,3.442,0,0,0,3.215-3.471V330.042a1.127,1.127,0,0,1,1.2-1.124A1.152,1.152,0,0,1,228,330.081V351.33a3.379,3.379,0,0,0,3.542,3.375,3.442,3.442,0,0,0,3.216-3.47V324.3Zm0,0" transform="translate(-159.82 -236.675)" stroke="#000" stroke-width="1" fill="url(#linear-gradient-2)"/>
    <path id="Path_5253" data-name="Path 5253" d="M222.953,238.506l-6.116-.3H212.11a3.034,3.034,0,1,1-6.066,0h-4.355l-6.873.274.474,5.689,6.057-.253v19.6h15.769v-19.6l5.567.284.291-5.662c-.006-.011-.016-.021-.022-.032Zm0,0" transform="translate(-142.179 -173.845)" stroke="#000" stroke-width="1" fill="url(#linear-gradient-3)"/>
    <path id="Path_5254" data-name="Path 5254" d="M236.465,184.033a6.809,6.809,0,1,1-6.809-6.81A6.809,6.809,0,0,1,236.465,184.033Zm0,0" transform="translate(-162.636 -129.339)" stroke="#000" stroke-width="1" fill="url(#linear-gradient)"/>
    <path id="Path_5255" data-name="Path 5255" d="M240.826,179.456h-5.718a6.806,6.806,0,0,0-11.694,3.141h17.413a1.571,1.571,0,0,0,0-3.141Zm0,0" transform="translate(-163.05 -129.338)" stroke="#000" stroke-width="1" fill="url(#linear-gradient-5)"/>
    <path id="Path_5256" data-name="Path 5256" d="M50.7,136.821,47.967,97.228a4.879,4.879,0,0,0-5.011-4.534H7.754a4.878,4.878,0,0,0-5.011,4.534L.01,136.821a4.964,4.964,0,0,0,4.7,5.21,4.969,4.969,0,0,0,5.032-4.537l1.95-26.846v69.18a5.855,5.855,0,0,0,11.709,0V143.013a1.952,1.952,0,1,1,3.9,0v36.815a5.855,5.855,0,0,0,11.709,0v-69.18l1.95,26.845a4.878,4.878,0,0,0,9.733-.671Zm0,0" transform="translate(0 -67.647)" stroke="#000" stroke-width="1" fill="url(#linear-gradient)"/>
    <path id="Path_5257" data-name="Path 5257" d="M17.354,275.293C17.241,275.293,17.468,275.3,17.354,275.293Zm0,0" transform="translate(-12.642 -200.911)" stroke="#000" stroke-width="1"/>
    <path id="Path_5258" data-name="Path 5258" d="M17.354,275.293C17.241,275.293,17.468,275.3,17.354,275.293Zm0,0" transform="translate(-12.642 -200.911)" fill="#414b82" stroke="#000" stroke-width="1"/>
    <path id="Path_5259" data-name="Path 5259" d="M43.285,243.285v46.281a5.962,5.962,0,0,0,5.572,6.013,5.854,5.854,0,0,0,6.137-5.847V252.917a2,2,0,0,1,1.822-2.015,1.952,1.952,0,0,1,2.08,1.947v36.717a5.963,5.963,0,0,0,5.572,6.012,5.855,5.855,0,0,0,6.137-5.847V243.285Zm0,0" transform="translate(-31.59 -177.551)" stroke="#000" stroke-width="1" fill="url(#linear-gradient-7)"/>
    <path id="Path_5260" data-name="Path 5260" d="M17.354,275.293C17.241,275.293,17.468,275.3,17.354,275.293Zm0,0" transform="translate(-12.642 -200.911)" fill="#64afff" stroke="#000" stroke-width="1"/>
    <path id="Union_125" data-name="Union 125" d="M39,17.955V43.895H11.685V17.955L9.734,44.8,0,44.129,2.732,4.536A4.878,4.878,0,0,1,7.744,0h35.2a4.871,4.871,0,0,1,5.012,4.534l2.731,39.592-9.734.672Z" transform="translate(0.01 25.045)" stroke="#000" stroke-width="1" fill="url(#linear-gradient-8)"/>
    <path id="Path_5263" data-name="Path 5263" d="M68.972,110.115,59.766,92.692H78.18Zm0,0" transform="translate(-43.618 -67.647)" fill="#fff" stroke="#000" stroke-width="1"/>
    <path id="Path_5264" data-name="Path 5264" d="M87.109,116.571l-2.545,4a1.293,1.293,0,0,1-2.184,0l-2.545-4a1.294,1.294,0,0,1-.17-.983l2.289-12.133-1.5-1.5a1.282,1.282,0,0,1,0-1.812l2.114-2.115a1.282,1.282,0,0,1,1.812,0l2.114,2.115a1.282,1.282,0,0,1,0,1.812l-1.5,1.5,2.288,12.133a1.294,1.294,0,0,1-.17.983Zm0,0" transform="translate(-58.118 -71.266)" stroke="#000" stroke-width="1" fill="url(#linear-gradient-5)"/>
    <g id="Group_4123" data-name="Group 4123" transform="translate(14.778)">
      <path id="Path_5265" data-name="Path 5265" d="M75.849,10.578A10.577,10.577,0,1,1,65.272,0,10.578,10.578,0,0,1,75.849,10.578Zm0,0" transform="translate(-54.695)" stroke="#000" stroke-width="1" fill="url(#linear-gradient)"/>
      <path id="Path_5266" data-name="Path 5266" d="M359.836,157.038l-11.193-31.947a4.938,4.938,0,0,0-4.839-3.149H320.2a4.939,4.939,0,0,0-4.84,3.149l-11.192,31.947a4.827,4.827,0,0,0,2.445,6,4.734,4.734,0,0,0,6.442-2.737l5.537-15.8v3.263L311.546,171.7A3.429,3.429,0,0,0,315,175.6h3.679v25.59a5.786,5.786,0,0,0,5.406,5.834,5.68,5.68,0,0,0,5.955-5.674V177.553a1.956,1.956,0,1,1,3.911,0v23.634a5.785,5.785,0,0,0,5.4,5.833,5.681,5.681,0,0,0,5.956-5.674V175.6H349a3.43,3.43,0,0,0,3.459-3.9l-7.043-23.938V144.5l5.536,15.8a4.735,4.735,0,0,0,6.442,2.737,4.826,4.826,0,0,0,2.446-6Zm0,0" transform="translate(-236.556 -88.994)" stroke="#000" stroke-width="1" fill="url(#linear-gradient)"/>
      <path id="Path_5267" data-name="Path 5267" d="M390.711,42.5A10.293,10.293,0,1,1,380.418,32.2,10.292,10.292,0,0,1,390.711,42.5Zm0,0" transform="translate(-284.899 -23.502)" stroke="#000" stroke-width="1" fill="url(#linear-gradient)"/>
    </g>
    <path id="Path_5268" data-name="Path 5268" d="M358.017,121.941c0,.008,0,.017,0,.026a5.315,5.315,0,1,1-10.63,0v-.026h-6.58a5.915,5.915,0,0,0-1.606.222v25.6L332.158,171.7a3.429,3.429,0,0,0,3.459,3.9h33.991a3.429,3.429,0,0,0,3.459-3.895l-7.043-23.939v-25.6a5.928,5.928,0,0,0-1.607-.222Zm0,0" transform="translate(-242.389 -88.994)" stroke="#000" stroke-width="1" fill="url(#linear-gradient-5)"/>
  </g>
</svg>
