<svg xmlns="http://www.w3.org/2000/svg" xmlns:xlink="http://www.w3.org/1999/xlink" width="107.891" height="120.832" viewBox="0 0 107.891 120.832">
  <defs>
    <linearGradient id="linear-gradient" x1="0.5" x2="0.5" y2="1" gradientUnits="objectBoundingBox">
      <stop offset="0.166" stop-color="#ff7878"/>
      <stop offset="0.78" stop-color="#eb5959"/>
    </linearGradient>
    <linearGradient id="linear-gradient-2" x1="0.5" x2="0.5" y2="1" gradientUnits="objectBoundingBox">
      <stop offset="0.092" stop-color="#ffbd8a"/>
      <stop offset="0.844" stop-color="#f09a59"/>
    </linearGradient>
    <linearGradient id="linear-gradient-3" x1="0.5" x2="0.5" y2="1" gradientUnits="objectBoundingBox">
      <stop offset="0" stop-color="#3e569c"/>
      <stop offset="1" stop-color="#3fb1e5"/>
    </linearGradient>
    <linearGradient id="linear-gradient-4" x1="0.5" x2="0.5" y2="1" gradientUnits="objectBoundingBox">
      <stop offset="0.23" stop-color="#fadb5d"/>
      <stop offset="0.97" stop-color="#f08e28"/>
    </linearGradient>
    <linearGradient id="linear-gradient-9" x1="0.5" x2="0.5" y2="1" gradientUnits="objectBoundingBox">
      <stop offset="0" stop-color="#f9a654"/>
      <stop offset="1" stop-color="#f24a00"/>
    </linearGradient>
    <linearGradient id="linear-gradient-11" x1="0.5" x2="0.5" y2="1" gradientUnits="objectBoundingBox">
      <stop offset="0" stop-color="#64ffbd"/>
      <stop offset="1" stop-color="#08b96e"/>
    </linearGradient>
  </defs>
  <g id="Group_4093" data-name="Group 4093" transform="translate(-5875.5 7574.018)">
    <path id="Path_5044" data-name="Path 5044" d="M109.088,218.492l-14.26.1a21.685,21.685,0,0,0-14.406,20.424v18.066h43.357V239.012a21.682,21.682,0,0,0-14.691-20.52Zm0,0" transform="translate(5807.069 -7753.923)" stroke="#000" stroke-width="1" fill="url(#linear-gradient)"/>
    <path id="Path_5045" data-name="Path 5045" d="M121.23,177.45a10.839,10.839,0,0,1-10.84-10.84v-5.419a10.839,10.839,0,1,1,21.678,0v5.419A10.839,10.839,0,0,1,121.23,177.45Zm0,0" transform="translate(5787.94 -7710.426)" stroke="#000" stroke-width="1" fill="url(#linear-gradient-2)"/>
    <path id="Path_5046" data-name="Path 5046" d="M345.445,0h-15.31a4.711,4.711,0,0,0-4.711,4.711V16.488a4.711,4.711,0,0,0,4.711,4.711h3.533v5.889l5.889-5.889h5.889a4.711,4.711,0,0,0,4.711-4.711V4.711A4.711,4.711,0,0,0,345.445,0Z" transform="translate(5600.679 -7573.518)" stroke="#000" stroke-width="1" fill="url(#linear-gradient-3)"/>
    <g id="Group_4092" data-name="Group 4092" transform="translate(5930.814 -7568.807)">
      <rect id="Rectangle_128" data-name="Rectangle 128" width="8.244" height="2.355" stroke="#000" stroke-width="1" fill="url(#linear-gradient-4)"/>
      <rect id="Rectangle_129" data-name="Rectangle 129" width="4.711" height="2.355" transform="translate(10.599)" stroke="#000" stroke-width="1" fill="url(#linear-gradient-4)"/>
      <rect id="Rectangle_130" data-name="Rectangle 130" width="15.31" height="2.355" transform="translate(0 4.711)" stroke="#000" stroke-width="1" fill="url(#linear-gradient-4)"/>
      <rect id="Rectangle_131" data-name="Rectangle 131" width="8.244" height="2.355" transform="translate(0 9.422)" stroke="#000" stroke-width="1" fill="url(#linear-gradient-4)"/>
    </g>
    <path id="Union_118" data-name="Union 118" d="M54.583,40.937l-4.548-9.1H13.646L9.1,40.937H0V0H63.68V40.937Z" transform="translate(5880.549 -7494.624)" stroke="#000" stroke-width="1" fill="url(#linear-gradient-3)"/>
    <path id="Path_5036" data-name="Path 5036" d="M139.052,312v9.1H64V312Zm0,0" transform="translate(5812 -7815.721)" stroke="#000" stroke-width="1" fill="url(#linear-gradient-9)"/>
    <path id="Path_5037" data-name="Path 5037" d="M152.937,456l4.549,9.1H112l4.549-9.1Zm0,0" transform="translate(5777.646 -7918.783)" stroke="#000" stroke-width="1" fill="url(#linear-gradient-9)"/>
    <path id="Path_5038" data-name="Path 5038" d="M369.1,408l2.274,22.743h-9.1L360,408Zm0,0" transform="translate(5600.149 -7884.429)" stroke="#000" stroke-width="1" fill="url(#linear-gradient-11)"/>
    <path id="Path_5039" data-name="Path 5039" d="M342.663,264v27.291a13.656,13.656,0,0,1-13.646,13.646H304v-9.1h20.469a9.1,9.1,0,0,0,9.1-9.1V264Zm0,0" transform="translate(5640.229 -7781.366)" stroke="#000" stroke-width="1" fill="url(#linear-gradient-9)"/>
    <path id="Path_5040" data-name="Path 5040" d="M327.607,232.233a4.831,4.831,0,0,0,0-6.823,5.121,5.121,0,0,0-3.138-1.388V224h3.138a5.668,5.668,0,0,1,2.661.636,5.939,5.939,0,0,1,3.3,5.323v28.155a9.1,9.1,0,0,1-9.1,9.1H304v-9.1h6.823v-9.1h-.933a2.293,2.293,0,0,0,1.592-.66Zm0,0" transform="translate(5640.229 -7752.738)" stroke="#000" stroke-width="1" fill="url(#linear-gradient-4)"/>
    <path id="Path_5042" data-name="Path 5042" d="M267.211,224.022a5.121,5.121,0,0,1,3.138,1.388,4.831,4.831,0,0,1,0,6.823l-16.124,16.124a2.293,2.293,0,0,1-1.592.66H228.548A4.562,4.562,0,0,1,224,244.468a4.58,4.58,0,0,1,4.549-4.549h20.469l14.51-14.51a4.82,4.82,0,0,1,3.411-1.41,1.136,1.136,0,0,1,.273.022Zm0,0" transform="translate(5697.486 -7752.738)" stroke="#000" stroke-width="1" fill="url(#linear-gradient-2)"/>
    <path id="Path_5043" data-name="Path 5043" d="M350.743,139.371v4.549a11.371,11.371,0,1,1-22.743,0v-4.549a11.371,11.371,0,1,1,22.743,0Zm0,0" transform="translate(5623.052 -7684.029)" stroke="#000" stroke-width="1" fill="url(#linear-gradient-2)"/>
  </g>
</svg>
