<svg xmlns="http://www.w3.org/2000/svg" xmlns:xlink="http://www.w3.org/1999/xlink" width="434.39" height="567.245" viewBox="0 0 434.39 567.245">
  <defs>
    <linearGradient id="linear-gradient" x1="0.5" x2="0.5" y2="1" gradientUnits="objectBoundingBox">
      <stop offset="0" stop-color="#3e569c"/>
      <stop offset="1" stop-color="#3fb1e5"/>
    </linearGradient>
    <linearGradient id="linear-gradient-2" x1="0.5" x2="0.5" y2="1" gradientUnits="objectBoundingBox">
      <stop offset="0.092" stop-color="#ffbd8a"/>
      <stop offset="0.844" stop-color="#f09a59"/>
    </linearGradient>
    <linearGradient id="linear-gradient-4" x1="0.5" x2="0.5" y2="1" gradientUnits="objectBoundingBox">
      <stop offset="0.166" stop-color="#ff7878"/>
      <stop offset="0.78" stop-color="#eb5959"/>
    </linearGradient>
    <linearGradient id="linear-gradient-5" x1="0.5" x2="0.5" y2="1" gradientUnits="objectBoundingBox">
      <stop offset="0.23" stop-color="#fadb5d"/>
      <stop offset="0.97" stop-color="#f08e28"/>
    </linearGradient>
  </defs>
  <g id="Group_4149" data-name="Group 4149" transform="translate(-398.284 -212.458) rotate(-13)">
    <g id="Group_4122" data-name="Group 4122" transform="translate(331.249 338.404)">
      <g id="Group_3978" data-name="Group 3978" transform="translate(0 0)">
        <g id="Group_153" data-name="Group 153" transform="translate(29.211 44.524)">
          <path id="Path_716" data-name="Path 716" d="M351.059,12.074V221.032c-1.532-.561-3.07-1.082-4.641-1.6-2.679-.88-5.338-1.675-8.023-2.444-1.564-.456-3.174-.873-4.751-1.258-1.01-.274-2.027-.521-3.063-.769-1.877-.456-3.767-.867-5.618-1.251-1.427-.313-2.894-.593-4.36-.873s-2.933-.561-4.367-.769c-1.467-.248-2.926-.482-4.36-.658-1.46-.248-2.926-.424-4.36-.6-3-.385-6.035-.7-9.033-.971-2.587-.215-5.129-.385-7.717-.534-3.135-.163-6.237-.267-9.34-.306-70.591-1.154-141.2,25.229-211.786,24.076-7.743-.143-15.531-.593-23.268-1.466-1.466-.169-2.972-.352-4.471-.521-1.708-.248-3.415-.489-5.129-.743-1.434-.235-2.861-.482-4.328-.723-1.532-.28-3.07-.56-4.6-.873-1.571-.313-3.1-.665-4.64-1.01-1.571-.352-3.174-.7-4.745-1.121-1.258-.313-2.516-.626-3.735-.978-2.685-.7-5.377-1.5-8.056-2.372-2.235-.7-4.438-1.427-6.667-2.229V12.074c2.229.8,4.432,1.538,6.667,2.235,2.125.7,4.249,1.33,6.381,1.923.561.13,1.114.313,1.675.45,1.219.352,2.477.658,3.735.978q4.976,1.251,9.939,2.2c1.362.287,2.724.561,4.047.769,1.434.28,2.894.521,4.328.73,2.548.391,5.058.736,7.606,1.049,1.154.137,2.307.274,3.487.385q10.891,1.144,21.775,1.29c70.585,1.154,141.2-25.19,211.786-24.043,3.1.046,6.2.143,9.34.319,2.548.137,5.129.313,7.717.521,2.053.169,4.152.385,6.211.626,1.466.182,2.965.352,4.465.521,1.707.248,3.415.489,5.1.736,1.427.248,2.894.489,4.328.73,1.564.28,3.1.561,4.634.88,3.1.626,6.211,1.317,9.281,2.092,1.3.313,2.587.658,3.839,1.01C341.256,8.8,346.138,10.334,351.059,12.074Z" transform="translate(0 0)" stroke="#000" stroke-width="1" fill="url(#linear-gradient)"/>
        </g>
        <g id="Group_155" data-name="Group 155" transform="translate(11.231 20.429)">
          <path id="Path_5333" data-name="Path 5333" d="M0,0H18.5l.989,519.591L-.874,518.086Z" stroke="#000" stroke-width="1" fill="url(#linear-gradient-2)"/>
        </g>
        <path id="Path_721" data-name="Path 721" d="M18.5,0V24.4A20.407,20.407,0,0,1,0,24.4V0Z" transform="translate(11.23 20.432)" stroke="#000" stroke-width="1" opacity="0.2"/>
        <path id="Path_722" data-name="Path 722" d="M40.91,20.452A20.455,20.455,0,1,1,20.458,0,20.458,20.458,0,0,1,40.91,20.452Z" transform="translate(0 0)" stroke="#000" stroke-width="1" fill="url(#linear-gradient-2)"/>
        <g id="Group_4125" data-name="Group 4125" transform="translate(30.186 155.104)">
          <path id="Path_716-2" data-name="Path 716" d="M350.252,6.358V116.393c-1.528-.3-3.063-.57-4.63-.844-2.672-.463-5.326-.882-8-1.287-1.561-.24-3.167-.46-4.74-.662-1.008-.144-2.022-.275-3.056-.405-1.873-.24-3.758-.456-5.605-.659-1.424-.165-2.887-.312-4.35-.46s-2.926-.3-4.357-.4c-1.463-.13-2.92-.254-4.35-.347-1.456-.13-2.92-.223-4.35-.316-2.991-.2-6.021-.367-9.013-.511-2.581-.113-5.117-.2-7.7-.281-3.128-.086-6.223-.141-9.318-.161-70.429-.607-140.877,13.285-211.3,12.678-7.725-.076-15.5-.312-23.214-.772-1.463-.089-2.965-.185-4.461-.275-1.7-.13-3.407-.257-5.117-.391-1.431-.124-2.855-.254-4.318-.381-1.528-.148-3.063-.3-4.591-.46-1.567-.165-3.1-.35-4.63-.532-1.567-.185-3.167-.367-4.734-.59-1.255-.165-2.51-.329-3.726-.515-2.679-.367-5.365-.789-8.037-1.249-2.23-.367-4.428-.752-6.652-1.174V6.358c2.224.422,4.422.81,6.652,1.177,2.12.371,4.24.7,6.366,1.012.559.069,1.112.165,1.671.237,1.216.185,2.471.347,3.726.515q4.965.659,9.916,1.157c1.359.151,2.718.3,4.038.4,1.431.148,2.887.275,4.318.384,2.542.206,5.046.388,7.588.553,1.151.072,2.3.144,3.479.2q10.866.6,21.725.68C139.9,13.288,210.35-.585,280.779.019c3.1.024,6.19.076,9.318.168,2.543.072,5.117.165,7.7.275,2.048.089,4.142.2,6.2.329,1.463.1,2.959.185,4.454.275,1.7.13,3.407.257,5.085.388,1.424.13,2.887.257,4.318.384,1.56.148,3.1.3,4.623.463,3.1.329,6.2.693,9.26,1.1,1.294.165,2.582.347,3.83.532C340.472,4.632,345.343,5.442,350.252,6.358Z" transform="translate(0 0)" stroke="#000" stroke-width="1" fill="url(#linear-gradient-4)"/>
        </g>
      </g>
      <path id="Path_4836" data-name="Path 4836" d="M0,.5C.154.336.3.169.45,0,.3.169.15.335,0,.5Z" transform="translate(153.195 154.376)" fill="#f0f0f0" stroke="#000" stroke-width="1"/>
    </g>
    <path id="Path_5285" data-name="Path 5285" d="M29.5,269.4l160.8-105.35L29.5,58.7a5.525,5.525,0,0,0-2.072,4.259V265.138A5.523,5.523,0,0,0,29.5,269.4Z" transform="translate(333.688 336.792)" fill="#f5f5f5" stroke="#000" stroke-width="1"/>
    <g id="Group_4126" data-name="Group 4126" transform="translate(371.162 433.553)">
      <path id="Union_126" data-name="Union 126" d="M25.058,53.969,27.1,45.8a15.282,15.282,0,0,1-4.187-1.748l-4.338,7.229L9.034,52.647,10.4,43.106l7.228-4.337a15.3,15.3,0,0,1-1.748-4.188L7.71,36.622,0,30.84l7.71-5.782L15.878,27.1a15.322,15.322,0,0,1,1.738-4.194L10.4,18.573,9.034,9.033,18.574,10.4l4.332,7.22A15.357,15.357,0,0,1,27.1,15.878L25.058,7.711,30.841,0l5.782,7.711-2.042,8.166a15.293,15.293,0,0,1,4.189,1.748L43.108,10.4l9.541-1.364-1.363,9.541-7.229,4.338A15.3,15.3,0,0,1,45.8,27.1l8.167-2.042,7.709,5.782-7.709,5.782L45.8,34.581a15.338,15.338,0,0,1-1.738,4.194l7.22,4.332,1.363,9.541-9.541-1.363-4.332-7.221A15.329,15.329,0,0,1,34.581,45.8l2.042,8.167-5.782,7.71Z" transform="translate(11.548 36.897)" stroke="#000" stroke-width="1" fill="url(#linear-gradient-5)"/>
      <path id="Path_5281" data-name="Path 5281" d="M45.968,97.065l.8,6-5.415,2.7a.816.816,0,0,0,.218,1.532l5.954,1.089.9,5.985a.816.816,0,0,0,1.524.266l2.875-5.325,5.969,1a.816.816,0,0,0,.725-1.367l-4.176-4.38,2.792-5.369a.815.815,0,0,0-1.076-1.111L51.6,100.7l-4.244-4.315A.817.817,0,0,0,45.968,97.065Z" transform="translate(-40.682 -96.138)" stroke="#000" stroke-width="1" fill="url(#linear-gradient-5)"/>
      <path id="Path_5282" data-name="Path 5282" d="M48.187,302.828l-1.015,5.966-5.974.971a.816.816,0,0,0-.248,1.527l5.36,2.81-.923,5.981a.815.815,0,0,0,1.375.708l4.328-4.23,5.4,2.726a.816.816,0,0,0,1.1-1.09l-2.686-5.424,4.262-4.3a.816.816,0,0,0-.7-1.381l-5.988.878-2.769-5.381A.814.814,0,0,0,48.187,302.828Z" transform="translate(-40.513 -185.157)" stroke="#000" stroke-width="1" fill="url(#linear-gradient-5)"/>
      <path id="Path_5283" data-name="Path 5283" d="M211.436,199.587l-3.483,4.949-5.81-1.693a.816.816,0,0,0-.881,1.272l3.631,4.842-3.406,5a.816.816,0,0,0,.938,1.231l5.727-1.957,3.706,4.785a.815.815,0,0,0,1.46-.512l-.091-6.051,5.7-2.046a.815.815,0,0,0-.035-1.547l-5.783-1.783-.185-6.049A.816.816,0,0,0,211.436,199.587Z" transform="translate(-109.902 -140.689)" stroke="#000" stroke-width="1" fill="url(#linear-gradient-5)"/>
    </g>
  </g>
</svg>
