<svg xmlns="http://www.w3.org/2000/svg" xmlns:xlink="http://www.w3.org/1999/xlink" width="97.814" height="85.511" viewBox="0 0 97.814 85.511">
  <defs>
    <linearGradient id="linear-gradient" x1="0.5" x2="0.5" y2="1" gradientUnits="objectBoundingBox">
      <stop offset="0" stop-color="#a7d9ff"/>
      <stop offset="1" stop-color="#3fb1e5"/>
    </linearGradient>
  </defs>
  <path id="skype" d="M92.905,75.106a12.436,12.436,0,0,1-2.245-7.336c0-.015,0-.03,0-.046A42.27,42.27,0,0,0,33.878,28.037a12.459,12.459,0,0,1-7.648.363A20.635,20.635,0,0,0,3.9,60.341,12.434,12.434,0,0,1,6.15,67.677v.046A42.27,42.27,0,0,0,62.932,107.41a12.459,12.459,0,0,1,7.648-.363A20.635,20.635,0,0,0,92.905,75.106ZM49.952,60.148c8.52,2.026,21.4,5.088,21.4,19.27,0,6.986-3.441,12.316-9.688,15.007-4.458,1.92-9.5,2.179-13.852,2.179-13.361,0-21.8-10.39-22.153-10.832a6.356,6.356,0,0,1,9.939-7.926c.02.023,5.066,5.819,12.215,6.046,8.608.273,10.575-2.288,10.829-4.474.311-2.67-2.064-4.63-11.625-6.9-8.1-1.927-20.352-4.84-20.352-17.9,0-4.067,1.654-17.339,22.942-17.339,13.442,0,21.376,10.583,21.707,11.034A6.356,6.356,0,0,1,61.1,55.877,19.092,19.092,0,0,0,49.6,49.986C44.452,49.5,39.37,51.353,39.37,54.1,39.37,57,40.829,57.978,49.952,60.148Z" transform="translate(0.502 -24.968)" stroke="#000" stroke-width="1" fill="url(#linear-gradient)"/>
</svg>
