<svg xmlns="http://www.w3.org/2000/svg" xmlns:xlink="http://www.w3.org/1999/xlink" width="106.474" height="75.636" viewBox="0 0 106.474 75.636">
  <defs>
    <linearGradient id="linear-gradient" x1="0.5" x2="0.5" y2="1" gradientUnits="objectBoundingBox">
      <stop offset="0.166" stop-color="#ff7878"/>
      <stop offset="0.78" stop-color="#eb5959"/>
    </linearGradient>
  </defs>
  <g id="Group_4352" data-name="Group 4352" transform="translate(-1138.5 -2804.536)">
    <g id="Group_4351" data-name="Group 4351" transform="translate(1139 2805.036)">
      <path id="youtube" d="M83.568,67.393H21.906A21.905,21.905,0,0,0,0,89.3v30.825a21.905,21.905,0,0,0,21.906,21.906H83.568a21.906,21.906,0,0,0,21.906-21.906V89.3A21.906,21.906,0,0,0,83.568,67.393ZM68.754,106.211,39.912,119.966a1.158,1.158,0,0,1-1.656-1.045V90.55a1.158,1.158,0,0,1,1.681-1.033l28.842,14.616A1.158,1.158,0,0,1,68.754,106.211Z" transform="translate(0 -67.393)" stroke="#000" stroke-width="1" fill="url(#linear-gradient)"/>
    </g>
  </g>
</svg>
