<svg xmlns="http://www.w3.org/2000/svg" xmlns:xlink="http://www.w3.org/1999/xlink" width="191.736" height="149.625" viewBox="0 0 191.736 149.625">
  <defs>
    <linearGradient id="linear-gradient" x1="0.5" x2="0.5" y2="1" gradientUnits="objectBoundingBox">
      <stop offset="0.23" stop-color="#fadb5d"/>
      <stop offset="0.97" stop-color="#f08e28"/>
    </linearGradient>
  </defs>
  <g id="australia" transform="translate(0.545 -56.465)">
    <path id="Path_5249" data-name="Path 5249" d="M138.341,83.852l8.591-25.442,3.486,17.816a4.23,4.23,0,0,0,4.886,3.353h0a4.23,4.23,0,0,1,4.868,3.264l4.845,22.2,19.028,27.677a37.758,37.758,0,0,1,6.61,23h0a37.761,37.761,0,0,1-5.515,18.1l-12.238,20a24.6,24.6,0,0,1-21.6,11.756l-11.265-.282a19.148,19.148,0,0,1-17.3-12.03l-4.5-11.25a3.776,3.776,0,0,0-6.295-1.144l-2.666,2.919a3.532,3.532,0,0,1-5.675-.629l-3.967-6.942a17.03,17.03,0,0,0-20.23-7.687l-22.538,7.6a73.167,73.167,0,0,0-7.214,2.868l-19.711,9.074a16.983,16.983,0,0,1-13.594.266h0a6.478,6.478,0,0,1-3.078-9.32l.582-.969a10.308,10.308,0,0,0,.663-9.3L1.287,137.314a16.407,16.407,0,0,1,8.294-21.278l25.04-11.464L57.207,76.438a8.84,8.84,0,0,1,10.972-2.309h0a9.277,9.277,0,0,0,10.2-1.092l14.465-12a7.082,7.082,0,0,1,7.009-1.181l8.051,3.019a7.081,7.081,0,0,1,3.943,9.6h0A7.082,7.082,0,0,0,114.3,81.3l10.476,7.115A8.986,8.986,0,0,0,138.341,83.852Z" transform="translate(0 0)" stroke="#000" stroke-width="1" fill="url(#linear-gradient)"/>
  </g>
</svg>
