<svg xmlns="http://www.w3.org/2000/svg" xmlns:xlink="http://www.w3.org/1999/xlink" width="54.205" height="48.728" viewBox="0 0 54.205 48.728">
  <defs>
    <linearGradient id="linear-gradient" x1="0.5" x2="0.5" y2="1" gradientUnits="objectBoundingBox">
      <stop offset="0.166" stop-color="#ff7878"/>
      <stop offset="0.78" stop-color="#eb5959"/>
    </linearGradient>
    <linearGradient id="linear-gradient-4" x1="0.5" x2="0.5" y2="1" gradientUnits="objectBoundingBox">
      <stop offset="0.23" stop-color="#fadb5d"/>
      <stop offset="0.97" stop-color="#f08e28"/>
    </linearGradient>
  </defs>
  <g id="Group_4313" data-name="Group 4313" transform="translate(0 0)">
    <g id="Group_153" data-name="Group 153" transform="translate(4.164 6.346)">
      <path id="Path_716" data-name="Path 716" d="M50.039,1.721V31.505c-.218-.08-.438-.154-.661-.229-.382-.125-.761-.239-1.144-.348-.223-.065-.452-.124-.677-.179-.144-.039-.289-.074-.437-.11-.268-.065-.537-.124-.8-.178-.2-.045-.412-.085-.621-.124s-.418-.08-.622-.11-.417-.069-.622-.094-.417-.06-.621-.085c-.427-.055-.86-.1-1.288-.138-.369-.031-.731-.055-1.1-.076-.447-.023-.889-.038-1.331-.044-10.062-.164-20.126,3.6-30.187,3.432-1.1-.02-2.214-.085-3.316-.209l-.637-.074-.731-.106-.617-.1c-.218-.04-.438-.08-.656-.124s-.442-.095-.661-.144-.452-.1-.676-.16c-.179-.045-.359-.089-.532-.139-.383-.1-.766-.214-1.148-.338-.319-.1-.633-.2-.95-.318V1.721c.318.114.632.219.95.319.3.1.606.19.909.274.08.019.159.045.239.064.174.05.353.094.532.139q.709.178,1.417.313c.194.041.388.08.577.11.2.04.412.074.617.1.363.056.721.1,1.084.15.164.02.329.039.5.055q1.552.163,3.1.184C19.987,3.6,30.052-.158,40.114.005c.442.007.884.02,1.331.046.363.02.731.045,1.1.074.293.024.592.055.885.089.209.026.423.05.636.074l.726.1.617.1c.223.04.442.08.66.125.442.089.885.188,1.323.3.185.045.369.094.547.144C48.642,1.254,49.337,1.473,50.039,1.721Z" fill="#f2f2f2"/>
      <path id="Path_717" data-name="Path 717" d="M9.926,1.711V31.5c-1.1-.02-2.214-.085-3.316-.209l-.637-.074-.731-.106-.617-.1c-.218-.04-.438-.08-.656-.124s-.442-.095-.661-.144-.452-.1-.676-.16c-.179-.045-.359-.089-.532-.139-.383-.1-.766-.214-1.148-.338-.319-.1-.633-.2-.95-.318V0C.318.114.632.219.95.319c.3.1.606.19.909.274.08.019.159.045.239.064.179.05.353.094.532.139q.709.178,1.417.313c.194.041.384.08.577.11l.617.1c.363.056.721.1,1.084.15.164.02.333.039.5.055Q8.375,1.69,9.926,1.711Z" transform="translate(0 1.721)" fill="url(#linear-gradient)"/>
      <path id="Path_718" data-name="Path 718" d="M9.929,31.5A30.647,30.647,0,0,0,0,29.788V0A30.674,30.674,0,0,1,9.929,1.715Z" transform="translate(40.111 0.004)" fill="url(#linear-gradient)"/>
      <path id="Path_719" data-name="Path 719" d="M22.167,10.612c-.447-.111-.472-.48-.322-1.066s.869-3.248.869-3.247-1.838.449-2.506.71-1.217.424-1.391-.324c-.066-.284-.322-1.048-.322-1.048S16.532,8.08,15.912,8.808s-1.118.683-.819-.683c.141-.648,1.067-5.688,1.067-5.687s-.881.512-1.217.723c-.468.292-1.066.927-1.563-.1C13.226,2.739,11.592,0,11.592,0S9.959,3.321,9.8,3.694c-.5,1.2-1.093.777-1.563.642-.336-.095-1.216-.32-1.216-.321s.926,4.737,1.068,5.334c.3,1.265-.2,1.474-.82.956S4.691,7.921,4.691,7.915s-.256.832-.322,1.136c-.174.792-.72.765-1.391.67S.472,9.5.472,9.487s.72,2.55.869,3.107.124.933-.322,1.119S0,14.187,0,14.187c0,.056,4.734,3.465,5.038,3.608.225.143.895.639.757,1.255s-.458,1.557-.458,1.557c0,.026,4.543-1.345,5.063-1.554.522-.192.92-.214.92.506s-.2,5.645-.2,5.645c.158-.027.315-.056.472-.084l.472-.084s-.2-4.855-.2-5.575.4-.841.917-.834c.523-.009,5.065-.139,5.065-.114a14.432,14.432,0,0,1-.46-1.421c-.136-.576.534-1.272.758-1.476.3-.331,5.039-4.739,5.039-4.681C23.185,10.934,22.613,10.722,22.167,10.612Z" transform="translate(13.428 4.5)" fill="url(#linear-gradient)"/>
    </g>
    <g id="Group_154" data-name="Group 154" transform="translate(4.164 8.067)" opacity="0.2">
      <path id="Path_720" data-name="Path 720" d="M.95.319V30.1c-.319-.1-.633-.2-.95-.318V0C.318.114.632.219.95.319Z"/>
    </g>
    <g id="Group_155" data-name="Group 155" transform="translate(1.601 2.912)">
      <rect id="Rectangle_281" data-name="Rectangle 281" width="2.636" height="45.815" fill="url(#linear-gradient-4)"/>
    </g>
    <path id="Path_721" data-name="Path 721" d="M2.636,0V3.478A2.909,2.909,0,0,1,0,3.478V0Z" transform="translate(1.601 2.912)" opacity="0.2"/>
    <path id="Path_722" data-name="Path 722" d="M5.831,2.915A2.916,2.916,0,1,1,2.916,0,2.916,2.916,0,0,1,5.831,2.915Z" transform="translate(0)" fill="url(#linear-gradient-4)"/>
  </g>
</svg>
