<svg xmlns="http://www.w3.org/2000/svg" xmlns:xlink="http://www.w3.org/1999/xlink" width="53.334" height="49.035" viewBox="0 0 53.334 49.035">
  <defs>
    <linearGradient id="linear-gradient" x1="0.5" x2="0.5" y2="1" gradientUnits="objectBoundingBox">
      <stop offset="0" stop-color="#3e569c"/>
      <stop offset="1" stop-color="#3fb1e5"/>
    </linearGradient>
    <linearGradient id="linear-gradient-2" x1="0.5" x2="0.5" y2="1" gradientUnits="objectBoundingBox">
      <stop offset="0.23" stop-color="#fadb5d"/>
      <stop offset="0.97" stop-color="#f08e28"/>
    </linearGradient>
    <linearGradient id="linear-gradient-4" x1="0.5" x2="0.5" y2="1" gradientUnits="objectBoundingBox">
      <stop offset="0.166" stop-color="#ff7878"/>
      <stop offset="0.78" stop-color="#eb5959"/>
    </linearGradient>
  </defs>
  <g id="Group_4314" data-name="Group 4314" transform="translate(0.001 0)">
    <g id="Group_3978" data-name="Group 3978" transform="translate(0 0)">
      <g id="Group_153" data-name="Group 153" transform="translate(4.097 6.245)">
        <path id="Path_716" data-name="Path 716" d="M200.236,30.579V59.886c-.215-.079-.431-.152-.651-.225-.376-.123-.749-.235-1.125-.343-.219-.064-.445-.122-.666-.176-.142-.038-.284-.073-.43-.108-.263-.064-.528-.122-.788-.176-.2-.044-.406-.083-.612-.122s-.411-.079-.612-.108-.41-.068-.612-.092-.41-.059-.611-.084c-.421-.054-.846-.1-1.267-.136-.363-.03-.719-.054-1.082-.075-.44-.023-.875-.037-1.31-.043-9.9-.162-19.8,3.539-29.7,3.377-1.086-.02-2.178-.083-3.263-.206l-.627-.073-.719-.1-.607-.1c-.215-.039-.431-.079-.645-.122s-.435-.093-.651-.142-.445-.1-.665-.157c-.176-.044-.353-.088-.524-.137-.377-.1-.754-.21-1.13-.333-.314-.1-.622-.2-.935-.313V30.579c.313.112.622.216.935.314.3.1.6.186.895.27.079.018.156.044.235.063.171.049.347.092.524.137q.7.176,1.394.308c.191.04.382.079.568.108.2.039.406.073.607.1.357.055.709.1,1.067.147.162.019.324.038.489.054q1.528.16,3.054.181c9.9.162,19.8-3.533,29.7-3.372.435.006.87.02,1.31.045.357.019.719.044,1.082.073.288.024.582.054.871.088.206.026.416.049.626.073l.715.1.607.1c.219.039.435.079.65.123.435.088.871.185,1.3.293.182.044.363.092.538.142C198.862,30.119,199.546,30.335,200.236,30.579Z" transform="translate(-150.999 -28.885)" fill="url(#linear-gradient)"/>
      </g>
      <g id="Group_154" data-name="Group 154" transform="translate(4.097 7.938)" opacity="0.2">
        <path id="Path_720" data-name="Path 720" d="M151.934,31.052V60.358c-.314-.1-.622-.2-.935-.313V30.738C151.312,30.85,151.621,30.954,151.934,31.052Z" transform="translate(-150.999 -30.738)"/>
      </g>
      <g id="Group_155" data-name="Group 155" transform="translate(1.575 2.865)">
        <rect id="Rectangle_281" data-name="Rectangle 281" width="2.594" height="46.17" fill="url(#linear-gradient-2)"/>
      </g>
      <path id="Path_721" data-name="Path 721" d="M150.834,25.189v3.422a2.862,2.862,0,0,1-2.594,0V25.189Z" transform="translate(-146.665 -22.323)" opacity="0.2"/>
      <path id="Path_722" data-name="Path 722" d="M152.255,24.922a2.869,2.869,0,1,1-2.868-2.868A2.869,2.869,0,0,1,152.255,24.922Z" transform="translate(-146.517 -22.054)" fill="url(#linear-gradient-2)"/>
    </g>
    <path id="Path_4836" data-name="Path 4836" d="M223.391,255.15l.063-.071-.063.071Z" transform="translate(-201.904 -233.428)" fill="#f0f0f0"/>
    <path id="Path_4837" data-name="Path 4837" d="M19.356,85.124l.357,1.952-3.478,1.933h3.478V93.58H15.162l4.551,2.528v1.757H17.658L12,94.722v3.144H7.714v-3.74L.981,97.866H0V95.513L3.478,93.58H0V89.009H4.551L0,86.48V84.724l.074-.363,7.64,3.506V85.852H12v2.612l6.253-3.184Z" transform="translate(4.284 -76.143)" fill="#f0f0f0"/>
    <path id="Path_4838" data-name="Path 4838" d="M11.2,88.3H8.722l-.1,4.232H0v2.464H8.624v5.339h2.464V94.994h8.624V92.529H11.088Z" transform="translate(4.284 -78.61)" fill="url(#linear-gradient-4)"/>
    <path id="Path_4839" data-name="Path 4839" d="M155.826,200.344l7.714,4.285v-1.212l-5.532-3.074Z" transform="translate(-139.543 -182.907)" fill="#0052b4"/>
    <path id="Path_4840" data-name="Path 4840" d="M155.826,200.344l7.714,4.285v-1.212l-5.532-3.074Z" transform="translate(-139.543 -182.907)" fill="#f0f0f0"/>
    <path id="Path_4841" data-name="Path 4841" d="M155.826,200.344l7.714,4.285v-1.212l-5.532-3.074Z" transform="translate(-139.543 -182.907)" fill="url(#linear-gradient-4)"/>
    <path id="Path_4842" data-name="Path 4842" d="M5.532,200.344,0,203.418v1.212H0l7.714-4.285Z" transform="translate(4.284 -182.907)" fill="url(#linear-gradient-4)"/>
    <path id="Path_4843" data-name="Path 4843" d="M7.714,89.615,0,85.33v1.212l5.532,3.074Z" transform="translate(4.284 -76.749)" fill="#0052b4"/>
    <path id="Path_4844" data-name="Path 4844" d="M7.714,89.615,0,85.33v1.212l5.532,3.074Z" transform="translate(4.284 -76.749)" fill="#f0f0f0"/>
    <path id="Path_4845" data-name="Path 4845" d="M7.714,89.615,0,85.33v1.212l5.532,3.074Z" transform="translate(4.284 -76.749)" fill="url(#linear-gradient-4)"/>
    <path id="Path_4846" data-name="Path 4846" d="M158.007,90.313l5.361-2.944-.186-.926h-.074l-7.283,3.87Z" transform="translate(-139.543 -77.447)" fill="url(#linear-gradient-4)"/>
    <path id="Path_4870" data-name="Path 4870" d="M366.632,332.887a.167.167,0,0,1-.1-.031l-.973-.7-.973.7a.167.167,0,0,1-.1.031.165.165,0,0,1-.157-.214l.361-1.14-.962-.71a.165.165,0,0,1,.1-.3l1.2-.01.378-1.135a.165.165,0,0,1,.312,0l.378,1.135,1.2.01a.165.165,0,0,1,.1.3l-.962.71.361,1.14a.166.166,0,0,1-.06.183A.168.168,0,0,1,366.632,332.887Z" transform="translate(-328.054 -302.981)" fill="url(#linear-gradient-4)"/>
    <path id="Path_4871" data-name="Path 4871" d="M363.963,327.833l.416,1.246,1.314.01-1.057.78.4,1.252-1.069-.764-1.069.764.4-1.252-1.057-.78,1.314-.01.416-1.246m0-.329a.329.329,0,0,0-.312.225l-.341,1.023-1.078.008a.329.329,0,0,0-.193.594l.868.641-.325,1.028a.329.329,0,0,0,.505.367l.877-.627.878.627a.329.329,0,0,0,.5-.367l-.325-1.028.868-.641a.329.329,0,0,0-.193-.594l-1.078-.008-.341-1.023a.329.329,0,0,0-.312-.225Z" transform="translate(-326.454 -301.38)" fill="#f5f5f5"/>
    <path id="Path_4872" data-name="Path 4872" d="M366.632,190.568a.166.166,0,0,1-.1-.031l-.973-.7-.973.7a.167.167,0,0,1-.1.031.165.165,0,0,1-.157-.214l.361-1.14-.962-.711a.165.165,0,0,1,.1-.3l1.2-.009.378-1.135a.165.165,0,0,1,.312,0l.378,1.135,1.2.009a.165.165,0,0,1,.1.3l-.962.711.361,1.14a.166.166,0,0,1-.06.183A.168.168,0,0,1,366.632,190.568Z" transform="translate(-328.054 -173.919)" fill="url(#linear-gradient-4)"/>
    <path id="Path_4873" data-name="Path 4873" d="M363.963,185.512l.416,1.246,1.314.01-1.057.78.4,1.252-1.069-.764-1.069.764.4-1.252-1.057-.78,1.314-.01.416-1.246m0-.329a.329.329,0,0,0-.312.225l-.341,1.023-1.078.008a.329.329,0,0,0-.193.594l.868.641-.325,1.028a.329.329,0,0,0,.505.367l.877-.627.878.627a.329.329,0,0,0,.5-.367l-.325-1.028.868-.641a.329.329,0,0,0-.193-.594l-1.078-.008-.341-1.023a.329.329,0,0,0-.312-.225Z" transform="translate(-326.454 -172.317)" fill="#f5f5f5"/>
    <path id="Path_4874" data-name="Path 4874" d="M428.426,234.705a.166.166,0,0,1-.1-.031l-.973-.7-.973.7a.167.167,0,0,1-.1.031.165.165,0,0,1-.157-.214l.361-1.14-.962-.711a.165.165,0,0,1,.1-.3l1.2-.009.378-1.135a.165.165,0,0,1,.312,0l.378,1.135,1.2.009a.165.165,0,0,1,.1.3l-.962.711.361,1.14a.165.165,0,0,1-.06.183A.168.168,0,0,1,428.426,234.705Z" transform="translate(-384.092 -213.945)" fill="url(#linear-gradient-4)"/>
    <path id="Path_4875" data-name="Path 4875" d="M425.756,229.65l.416,1.246,1.314.01-1.057.78.4,1.253-1.069-.764-1.069.764.4-1.252-1.057-.78,1.314-.01.416-1.246m0-.329a.329.329,0,0,0-.312.225l-.341,1.023-1.078.008a.329.329,0,0,0-.193.594l.868.641-.325,1.028a.329.329,0,0,0,.5.367l.877-.627.877.627a.329.329,0,0,0,.5-.367l-.325-1.028.868-.641a.329.329,0,0,0-.193-.594l-1.078-.008-.341-1.023a.329.329,0,0,0-.312-.225Z" transform="translate(-382.491 -212.344)" fill="#f5f5f5"/>
    <path id="Path_4876" data-name="Path 4876" d="M304.84,252.36a.166.166,0,0,1-.1-.031l-.973-.7-.973.7a.165.165,0,0,1-.253-.184l.361-1.14-.962-.711a.165.165,0,0,1,.1-.3l1.2-.009.378-1.135a.165.165,0,0,1,.312,0l.378,1.135,1.2.009a.165.165,0,0,1,.1.3l-.962.711.361,1.14a.166.166,0,0,1-.06.183A.167.167,0,0,1,304.84,252.36Z" transform="translate(-272.019 -229.955)" fill="url(#linear-gradient-4)"/>
    <path id="Path_4877" data-name="Path 4877" d="M302.17,247.3l.416,1.246,1.314.01-1.057.78.4,1.252-1.069-.764-1.069.764.4-1.252-1.057-.78,1.314-.01.416-1.246m0-.329a.329.329,0,0,0-.312.225l-.341,1.023-1.078.008a.329.329,0,0,0-.193.594l.868.641-.325,1.028a.329.329,0,0,0,.5.367l.877-.627.877.627a.329.329,0,0,0,.5-.367l-.325-1.028.868-.641a.329.329,0,0,0-.193-.594l-1.078-.008-.341-1.023a.329.329,0,0,0-.312-.225Z" transform="translate(-270.417 -228.354)" fill="#f5f5f5"/>
  </g>
</svg>
